<?xml version="1.0" encoding="utf-8"?>
<!-- Generator: Adobe Illustrator 25.2.3, SVG Export Plug-In . SVG Version: 6.00 Build 0)  -->
<svg version="1.1" id="Layer_1" xmlns="http://www.w3.org/2000/svg" xmlns:xlink="http://www.w3.org/1999/xlink" x="0px" y="0px"
	 viewBox="0 0 135.48 132.08" style="enable-background:new 0 0 135.48 132.08;" xml:space="preserve">
<style type="text/css">
	.st0{fill:#231F20;stroke:#231F20;stroke-miterlimit:10;}
</style>
<g>
	<g>
		<path class="st0" d="M109.95,132.08H25.53C11.45,132.08,0,120.63,0,106.55v-3.37c0-1.69,1.37-3.06,3.06-3.06h129.36
			c1.69,0,3.06,1.37,3.06,3.06v3.37C135.48,120.62,124.03,132.08,109.95,132.08z M6.13,106.24v0.3c0,10.7,8.7,19.4,19.4,19.4h84.42
			c10.7,0,19.4-8.7,19.4-19.4v-0.3H6.13z"/>
	</g>
	<g>
		<path class="st0" d="M132.42,41.75H3.06C1.37,41.75,0,40.38,0,38.69v-2.86C0,15.74,29.76,0,67.74,0
			c37.99,0,67.74,15.74,67.74,35.83v2.86C135.48,40.38,134.11,41.75,132.42,41.75z M6.13,35.63h123.23
			C129.12,19.62,101,6.13,67.75,6.13C34.49,6.12,6.37,19.61,6.13,35.63z"/>
	</g>
	<g>
		<path class="st0" d="M124.25,92.63H11.23C5.04,92.63,0,87.59,0,81.4s5.04-11.23,11.23-11.23h113.02c6.19,0,11.23,5.04,11.23,11.23
			C135.48,87.59,130.44,92.63,124.25,92.63z M11.23,76.29c-2.82,0-5.11,2.29-5.11,5.11c0,2.82,2.29,5.11,5.11,5.11h113.02
			c2.82,0,5.11-2.29,5.11-5.11c0-2.82-2.29-5.11-5.11-5.11H11.23z"/>
	</g>
	<g>
		<path class="st0" d="M110.86,62.67c-6.34,0-9.62-2.24-12.51-4.22c-2.57-1.76-4.61-3.15-9.05-3.15s-6.47,1.39-9.05,3.15
			c-2.89,1.98-6.17,4.23-12.51,4.23s-9.62-2.24-12.51-4.23c-2.57-1.76-4.61-3.15-9.05-3.15s-6.47,1.39-9.05,3.15
			c-2.89,1.98-6.17,4.23-12.51,4.23c-6.34,0-9.62-2.24-12.51-4.23C9.54,56.69,7.5,55.3,3.06,55.3C1.37,55.3,0,53.93,0,52.24
			s1.37-3.06,3.06-3.06c6.34,0,9.62,2.24,12.51,4.23c2.57,1.76,4.61,3.15,9.05,3.15c4.44,0,6.47-1.39,9.05-3.15
			c2.89-1.98,6.17-4.23,12.51-4.23s9.62,2.24,12.51,4.22c2.57,1.76,4.61,3.15,9.05,3.15s6.47-1.39,9.05-3.15
			c2.89-1.98,6.17-4.23,12.51-4.23s9.62,2.24,12.51,4.23c2.57,1.76,4.61,3.15,9.05,3.15s6.48-1.39,9.05-3.15
			c2.89-1.98,6.17-4.22,12.51-4.22c1.69,0,3.06,1.37,3.06,3.06s-1.37,3.06-3.06,3.06c-4.44,0-6.48,1.39-9.05,3.15
			C120.48,60.43,117.2,62.67,110.86,62.67z"/>
	</g>
	<g>
		<path class="st0" d="M28.62,27.38h-3.14c-1.69,0-3.06-1.37-3.06-3.06s1.37-3.06,3.06-3.06h3.14c1.69,0,3.06,1.37,3.06,3.06
			C31.69,26.01,30.32,27.38,28.62,27.38z"/>
	</g>
	<g>
		<path class="st0" d="M101.89,21.99h-3.14c-1.69,0-3.06-1.37-3.06-3.06s1.37-3.06,3.06-3.06h3.14c1.69,0,3.06,1.37,3.06,3.06
			S103.58,21.99,101.89,21.99z"/>
	</g>
	<g>
		<path class="st0" d="M59.31,30.07c-1.69,0-3.06-1.37-3.06-3.06v-3.14c0-1.69,1.37-3.06,3.06-3.06s3.06,1.37,3.06,3.06v3.14
			C62.37,28.7,61,30.07,59.31,30.07z"/>
	</g>
	<g>
		<path class="st0" d="M45.31,21.99c-0.78,0-1.57-0.3-2.17-0.9l-2.22-2.22c-1.2-1.2-1.2-3.14,0-4.33c1.2-1.2,3.14-1.2,4.33,0
			l2.22,2.22c1.2,1.2,1.2,3.14,0,4.33C46.87,21.69,46.09,21.99,45.31,21.99z"/>
	</g>
	<g>
		<path class="st0" d="M70.99,19.77c-0.78,0-1.57-0.3-2.17-0.9c-1.2-1.2-1.2-3.14,0-4.33l2.22-2.22c1.2-1.2,3.14-1.2,4.33,0
			c1.2,1.2,1.2,3.14,0,4.33l-2.22,2.22C72.56,19.47,71.77,19.77,70.99,19.77z"/>
	</g>
	<g>
		<path class="st0" d="M111.45,31.18c-0.78,0-1.57-0.3-2.17-0.9c-1.2-1.2-1.2-3.14,0-4.33l2.22-2.22c1.2-1.2,3.14-1.2,4.33,0
			c1.2,1.2,1.2,3.14,0,4.33l-2.22,2.22C113.02,30.88,112.24,31.18,111.45,31.18z"/>
	</g>
	<g>
		<path class="st0" d="M87.32,29.61c-0.78,0-1.57-0.3-2.17-0.9l-2.22-2.22c-1.2-1.2-1.2-3.14,0-4.33c1.2-1.2,3.14-1.2,4.33,0
			l2.22,2.22c1.2,1.2,1.2,3.14,0,4.33C88.89,29.31,88.1,29.61,87.32,29.61z"/>
	</g>
</g>
</svg>
