<?xml version="1.0" encoding="utf-8"?>
<!-- Generator: Adobe Illustrator 25.2.3, SVG Export Plug-In . SVG Version: 6.00 Build 0)  -->
<svg version="1.1" id="Layer_1" xmlns="http://www.w3.org/2000/svg" xmlns:xlink="http://www.w3.org/1999/xlink" x="0px" y="0px"
	 viewBox="0 0 135.48 135.48" style="enable-background:new 0 0 135.48 135.48;" xml:space="preserve">
<style type="text/css">
	.st0{fill:#231F20;stroke:#231F20;stroke-miterlimit:10;}
</style>
<g>
	<path class="st0" d="M88.95,31.45c-1.2-1.2-3.14-1.2-4.33,0c-1.2,1.2-1.2,3.14,0,4.33L86.84,38c0.6,0.6,1.38,0.9,2.17,0.9
		c0.78,0,1.57-0.3,2.17-0.9c1.2-1.2,1.2-3.14,0-4.33L88.95,31.45z"/>
	<path class="st0" d="M104.88,38.83c-1.69,0-3.06,1.37-3.06,3.06v3.14c0,1.69,1.37,3.06,3.06,3.06s3.06-1.37,3.06-3.06v-3.14
		C107.94,40.21,106.57,38.83,104.88,38.83z"/>
	<path class="st0" d="M72.46,35.74h-3.14c-1.69,0-3.06,1.37-3.06,3.06s1.37,3.06,3.06,3.06h3.14c1.69,0,3.06-1.37,3.06-3.06
		S74.15,35.74,72.46,35.74z"/>
	<path class="st0" d="M49.88,40.65l-2.22,2.22c-1.2,1.2-1.2,3.14,0,4.33c0.6,0.6,1.38,0.9,2.17,0.9c0.78,0,1.57-0.3,2.17-0.9
		l2.22-2.22c1.2-1.2,1.2-3.14,0-4.33C53.02,39.46,51.08,39.46,49.88,40.65z"/>
	<path class="st0" d="M90.25,15.88l-2.22,2.22c-1.2,1.2-1.2,3.14,0,4.33c0.6,0.6,1.38,0.9,2.17,0.9c0.78,0,1.57-0.3,2.17-0.9
		l2.22-2.22c1.2-1.2,1.2-3.14,0-4.33C93.39,14.69,91.45,14.69,90.25,15.88z"/>
	<path class="st0" d="M132.42,110.3H3.06c-1.69,0-3.06,1.37-3.06,3.06v19.06c0,1.69,1.37,3.06,3.06,3.06h129.36
		c1.69,0,3.06-1.37,3.06-3.06v-19.06C135.48,111.67,134.11,110.3,132.42,110.3z M129.36,129.36H6.13v-12.93h123.23V129.36z"/>
	<path class="st0" d="M135.02,56.6l-31.4-50.57c-0.05-0.07-0.1-0.15-0.15-0.22C101.14,2.17,97.2,0,92.87,0
		c-2.27,0-4.49,0.62-6.45,1.78c-0.08,0.04-0.16,0.09-0.24,0.14L1.43,55.62c-0.01,0.01-1.41,0.85-1.42,2.59v19.06
		c0,1.69,1.37,3.06,3.06,3.06h129.35c1.69,0,3.06-1.37,3.06-3.06V58.21C135.48,57.4,135.06,56.66,135.02,56.6z M89.27,7.22
		c0.06-0.03,0.12-0.07,0.18-0.1c1.03-0.65,2.21-0.99,3.42-0.99c2.26,0,4.33,1.16,5.52,3.11c0.05,0.08,0.1,0.15,0.15,0.23
		l28.37,45.68H13.62L89.27,7.22z M129.36,74.21H6.13V61.27h123.23V74.21z"/>
	<path class="st0" d="M1.51,93.26l16.17,9.53c0.96,0.57,2.15,0.57,3.11,0l14.61-8.61l14.61,8.61c0.96,0.57,2.15,0.57,3.11,0
		l14.61-8.61l14.61,8.61c0.96,0.57,2.15,0.57,3.11,0l14.61-8.61l14.62,8.61c0.48,0.28,1.02,0.42,1.56,0.42s1.08-0.14,1.56-0.42
		l16.17-9.53c1.46-0.86,1.94-2.74,1.08-4.2c-0.86-1.46-2.74-1.94-4.2-1.08l-14.62,8.61l-14.62-8.61c-0.96-0.57-2.15-0.57-3.11,0
		l-14.61,8.61l-14.61-8.61c-0.96-0.57-2.15-0.57-3.11,0l-14.61,8.61l-14.61-8.61c-0.96-0.57-2.15-0.57-3.11,0l-14.61,8.61
		L4.62,87.98c-1.46-0.86-3.34-0.38-4.2,1.08C-0.43,90.53,0.05,92.41,1.51,93.26z"/>
</g>
</svg>
