<?xml version="1.0" encoding="utf-8"?>
<!-- Generator: Adobe Illustrator 25.2.3, SVG Export Plug-In . SVG Version: 6.00 Build 0)  -->
<svg version="1.1" id="Layer_1" xmlns="http://www.w3.org/2000/svg" xmlns:xlink="http://www.w3.org/1999/xlink" x="0px" y="0px"
	 viewBox="0 0 135.48 135.49" style="enable-background:new 0 0 135.48 135.49;" xml:space="preserve">
<style type="text/css">
	.st0{stroke:#231F20;stroke-miterlimit:10;}
</style>
<path class="st0" d="M134.85,52.19c-0.58-0.76-1.48-1.21-2.44-1.21h-2.93l3.85-13.63c0.52-1.84,0.29-3.77-0.64-5.43
	c-0.93-1.67-2.46-2.87-4.3-3.39l-9.62-2.71l3.89-13.77c0.52-1.84,0.29-3.77-0.64-5.43c-0.93-1.67-2.46-2.87-4.3-3.39l-10.48-2.96
	C106.61,0.09,105.95,0,105.3,0c-3.18,0-6.01,2.14-6.88,5.21L94.3,19.8c-0.01,0-0.01,0-0.02,0h-8.51V7.15c0-3.94-3.21-7.15-7.15-7.15
	H67.73c-3.94,0-7.15,3.21-7.15,7.15v18.99l-4.6-1.3c-0.63-0.18-1.29-0.27-1.94-0.27c-3.18,0-6.01,2.14-6.88,5.21l-1.53,5.43v-22.7
	c0-3.94-3.21-7.15-7.15-7.15H27.59c-3.94,0-7.15,3.21-7.15,7.15v11.76c-0.54,0.03-1.08,0.1-1.6,0.25L8.36,27.48
	C6.52,28,5,29.2,4.06,30.87c-0.93,1.67-1.16,3.6-0.64,5.43L7.57,51H3.06c-0.96,0-1.86,0.45-2.44,1.21
	c-0.58,0.76-0.77,1.75-0.51,2.68l21.95,78.36c0.37,1.32,1.58,2.24,2.95,2.24h85.46c1.37,0,2.58-0.91,2.95-2.24l21.95-78.36
	C135.62,53.94,135.43,52.95,134.85,52.19z M127.34,34.9c0.08,0.14,0.19,0.42,0.09,0.78l-4.32,15.3h-13.44l5.31-18.81
	c0.14-0.51,0.61-0.74,0.98-0.74c0.09,0,0.19,0.01,0.28,0.04l10.48,2.96C127.08,34.52,127.27,34.77,127.34,34.9z M104.32,6.86
	c0.14-0.51,0.61-0.75,0.98-0.75c0.09,0,0.19,0.01,0.28,0.04l10.48,2.96c0.35,0.1,0.54,0.35,0.61,0.48c0.08,0.14,0.19,0.42,0.09,0.78
	l-4.51,15.97c-1.51,0.92-2.67,2.38-3.17,4.16l-5.78,20.48h-1.88V26.93c0-1.67-0.58-3.2-1.54-4.41L104.32,6.86z M82.37,26.93
	c0-0.56,0.46-1.02,1.02-1.02h10.89c0.56,0,1.02,0.46,1.02,1.02v26.99c-3.41,3.53-7.85,6.28-12.94,8.09V26.93H82.37z M67.73,6.11
	h10.89c0.56,0,1.02,0.46,1.02,1.02v13.72c-2.04,1.26-3.4,3.51-3.4,6.08v36.74c-2.74,0.52-5.59,0.8-8.51,0.8
	c-0.34,0-0.68-0.02-1.02-0.02V53.24l4.69-16.62c0.52-1.84,0.29-3.77-0.64-5.43c-0.89-1.59-2.32-2.75-4.05-3.31V7.14
	C66.71,6.57,67.17,6.11,67.73,6.11z M53.06,31.43c0.14-0.51,0.61-0.74,0.98-0.74c0.09,0,0.19,0.01,0.28,0.04l10.48,2.96
	c0.35,0.1,0.54,0.35,0.61,0.48c0.08,0.14,0.19,0.42,0.09,0.78l-8,28.35c-4.43-1.04-8.52-2.73-12.03-5.01L53.06,31.43z M27.58,11.48
	h10.89c0.56,0,1.02,0.46,1.02,1.02v40.72c-0.33-0.36-0.65-0.72-0.95-1.1c-0.58-0.72-1.46-1.14-2.38-1.14h-2.42l-6.08-21.54
	c-0.23-0.83-0.61-1.58-1.1-2.25V12.5C26.56,11.93,27.02,11.48,27.58,11.48z M9.31,34.62c-0.1-0.35,0.01-0.64,0.09-0.78
	c0.08-0.14,0.26-0.38,0.61-0.48l10.48-2.96c0.09-0.03,0.19-0.04,0.28-0.04c0.37,0,0.84,0.23,0.98,0.74l5.61,19.88H13.92L9.31,34.62z
	 M119.11,90.16H59.4c-1.69,0-3.06,1.37-3.06,3.06s1.37,3.06,3.06,3.06h57.99l-3.77,13.46H92.18c-1.69,0-3.06,1.37-3.06,3.06
	s1.37,3.06,3.06,3.06h19.72l-3.77,13.47H27.32l-3.77-13.47h45.38c1.69,0,3.06-1.37,3.06-3.06s-1.37-3.06-3.06-3.06h-47.1
	l-3.77-13.46h18.08c1.69,0,3.06-1.37,3.06-3.06s-1.37-3.06-3.06-3.06h-19.8L7.08,57.11h27.65c7.51,8.47,19.71,13.49,32.99,13.49
	s25.48-5.02,32.99-13.49h27.65L119.11,90.16z"/>
</svg>
