<?xml version="1.0" encoding="utf-8"?>
<!-- Generator: Adobe Illustrator 25.2.3, SVG Export Plug-In . SVG Version: 6.00 Build 0)  -->
<svg version="1.1" id="Layer_1" xmlns="http://www.w3.org/2000/svg" xmlns:xlink="http://www.w3.org/1999/xlink" x="0px" y="0px"
	 viewBox="0 0 135 135" style="enable-background:new 0 0 135 135;" xml:space="preserve">
<style type="text/css">
	.st0{fill:#171717;}
</style>
<g>
	<g>
		<g>
			<path class="st0" d="M103.85,136c-0.16,0-0.32,0-0.49-0.01c-5.19-0.19-10.83-1.53-15.48-3.68c-4.64-2.18-9.01-5.17-13.63-8.34
				c-2.11-1.44-4.27-2.92-6.46-4.33c-1.05-0.67-2.09-1.33-3.13-1.99c-2.65-1.67-5.39-3.4-8.1-5.31c-1.25-0.9-2.52-1.87-3.74-2.8
				c-1.3-0.99-2.64-2.02-3.9-2.92l-0.67-0.48c-5.5-3.94-10.69-7.67-15.52-10.5c-13.29-7.8-22.14-16.02-24.29-22.53
				c-0.48-1.43-0.77-4.54-0.81-6.18c-0.03-0.2-0.06-0.45-0.07-0.73c-0.74,0.31-1.24,0.46-1.63,0.5c-0.1,0.01-0.2,0.02-0.29,0.02
				c-0.64,0-1.16-0.33-1.52-0.99c-0.03-0.06-0.07-0.13-0.1-0.21C4,65.49,2.83,62.73,2.27,60.78c-0.15-0.54-0.33-1.64,0.13-3.06
				c0.08-0.24,0.17-0.48,0.29-0.73c-0.02-0.04-0.04-0.08-0.05-0.12c-0.1,0.02-0.21,0.03-0.31,0.03c-1.44,0-2.35-1.62-3.24-5.79
				C-1.09,50.2-1,49.37-0.65,48.62c-0.01-0.19-0.04-0.38-0.07-0.57c-0.1-0.78-0.24-1.83,0.14-2.9c0.03-0.08,0.06-0.16,0.09-0.23
				c-0.2-0.38-0.33-0.79-0.39-1.24c-0.06-0.48-0.1-1.43,0.4-2.41c0.02-0.03,0.03-0.06,0.04-0.09c-0.22-0.52-0.51-1.37-0.3-2.45
				c0.26-1.56,1.2-2.85,2.79-3.83c0.01-0.01,0.03-0.02,0.04-0.03c-0.13-1.63,0.5-2.73,0.93-3.47c0.11-0.19,0.19-0.34,0.27-0.49
				c0.06-0.14,0.14-0.28,0.23-0.4c-0.01-0.25-0.01-0.41-0.01-0.41c0-0.09,0-0.17,0.01-0.26c0.02-0.7,0.16-1.39,0.42-1.99
				c0.07-0.16,0.16-0.36,0.29-0.58C4.12,27.13,4,26.98,3.9,26.82c-0.09-0.12-0.14-0.21-0.19-0.3c-0.63-1.14-0.58-2.42-0.56-2.96
				c0-0.11,0.01-0.22,0.01-0.37c0.02-3.08,1.56-4.97,4.16-5.1c0.06-0.98,0.2-2.02,0.41-3.17C9.45,2.79,21.94-0.25,24.42-0.74
				C25.33-0.91,26.26-1,27.18-1C37.64-1,46.8,10.29,52.7,19.89c1.69-0.19,3.33-0.29,4.88-0.29c18.11,0,24.96,12.59,31.59,24.77
				l0.84,1.53c3.07-0.8,7.36-1.71,11.06-1.71c1.04,0,2,0.07,2.84,0.21c8.47,1.45,15.36,5.74,18.71,8.16
				c1.97,1.43,3.71,3.06,5.17,4.83c1.77,2.11,3.46,4.47,4.73,10.09c0.1,0.42,0.18,0.88,0.25,1.4c0.03,0.07,0.05,0.29,0.06,0.51
				c0.32,2.43-0.96,3.18-1.45,3.46l-4.35,2.6c1.24,1.21,2.25,3,2.94,5.2c0.61,1.94,0.96,4.13,1.02,6.38l3.56,1.19
				c0.46,0.15,0.83,0.54,1.03,1.08c0.62,1.64,0.41,2.84,0.17,4.22l-0.13,0.76c-0.05,0.27-0.13,0.52-0.24,0.73
				c-1.1,2.21-2.3,4.35-3.66,6.55c0.01,0.08,0.02,0.15,0.03,0.23c0.31,0.13,0.58,0.38,0.77,0.71c0.4,0.68,0.83,2.04,0.75,3.6
				c-0.03,0.61-0.15,1.19-0.33,1.7c0.24,0.86,0.49,1.89,0.19,2.91c-0.12,0.44-0.32,0.82-0.6,1.16c0.59,1.25,1.09,2.34,0.9,3.59
				c-0.24,1.59-1.14,2.37-1.85,3c-0.17,0.15-0.67,0.59-0.74,0.76c-0.41,1.78-0.92,4.01-2.6,4.01c-0.55,0-0.97-0.27-1.28-0.57
				c-0.07,0.17-0.14,0.37-0.23,0.62l-0.13,0.36c-0.34,0.98-0.72,2.1-1.52,2.8c-0.33,0.29-0.73,0.44-1.16,0.44
				c-0.25,0-0.5-0.05-0.76-0.15c-0.13,0.5-0.3,1.02-0.57,1.47c-1.16,1.92-2.96,1.98-3.55,2c-0.17,0.01-0.33,0.01-0.47,0.01
				c-0.7,0-1.23-0.07-1.69-0.24c-0.04,0.27-0.08,0.6-0.11,1.01c-0.12,1.61-1.12,2.57-2.68,2.57c-0.23,0-1.31-0.03-2.16-0.62
				C109.59,134.97,106.86,136,103.85,136z M50.55,102.83c1.27,0.9,2.57,1.9,3.83,2.86l0.08,0.06c1.27,0.97,2.52,1.93,3.72,2.79
				c2.62,1.84,5.32,3.54,7.92,5.19l0.11,0.07c1.03,0.65,2.05,1.3,3.08,1.96c2.21,1.42,4.38,2.9,6.47,4.34
				c4.56,3.12,8.85,6.07,13.28,8.14c4,1.85,8.8,3.06,13.33,3.36c-0.94-0.47-1.83-1.14-2.7-1.79c-1.27-0.95-2.47-1.85-3.42-1.85
				c-0.16,0-0.32,0.03-0.48,0.09c-0.27,0.11-0.54,0.17-0.82,0.17c-1.05,0-1.72-0.76-2.25-1.38c-0.22-0.25-0.47-0.53-0.76-0.8
				c-0.08-0.07-0.14-0.14-0.2-0.21c-0.27-0.34-0.51-0.7-0.7-1.06c-0.22,0.13-0.47,0.21-0.75,0.25l-0.18,0.01
				c-1.71,0-3.45-2.79-3.87-4.17c-0.6-0.27-1.36-0.58-1.84-0.62c-0.11-0.01-0.22-0.01-0.33-0.01c-0.68,0-1.48,0.15-2.25,0.29
				c-0.67,0.12-1.24,0.23-1.81,0.28c0,0-0.01,0-0.01,0c-0.71,0-1.26-0.24-1.67-0.7c-0.9-0.75-1.04-2.27-1.18-3.75
				c-0.01-0.11-0.02-0.22-0.03-0.32c-0.28,0.06-0.58,0.09-0.9,0.09c-1.52,0-3.13-0.68-3.44-0.82c-0.05-0.02-0.1-0.05-0.15-0.07
				c-0.35-0.12-0.81-0.38-1.16-0.96c-0.37-0.19-0.82-0.46-1.25-1.07c-0.14-0.2-0.28-0.41-0.41-0.64c-0.37,0.16-0.72,0.24-1.07,0.24
				c-1.38,0-2.09-1.16-2.72-2.18c-0.25-0.4-0.52-0.85-0.87-1.32c0,0,0,0,0,0c-0.32,0.08-0.64,0.16-1,0.16c-0.06,0-0.13,0-0.19-0.01
				c-1.98-0.29-3.66-0.96-4.62-1.83c-0.05-0.04-0.14-0.14-0.2-0.21c-0.37-0.33-0.74-0.87-1.04-1.54c-0.55-0.09-1.01-0.37-1.35-0.83
				c-0.21,0.12-0.4,0.21-0.6,0.28c-0.18,0.09-0.46,0.15-0.75,0.15c-1.34,0-2.62-1.26-4.82-4.78c-0.05,0-0.1,0-0.15,0
				c-0.32,0-0.64-0.05-0.96-0.15c-0.29,0.51-0.65,0.73-0.96,0.82C49.56,102.12,50.55,102.83,50.55,102.83z M106.54,130.15
				c-0.15,0.41-0.38,0.91-0.74,1.32c0.74-0.15,1.45-0.4,2.14-0.73C107.53,130.61,107.07,130.42,106.54,130.15z M113.65,129.16
				C113.65,129.16,113.65,129.16,113.65,129.16C113.65,129.16,113.64,129.16,113.65,129.16
				C113.64,129.16,113.65,129.16,113.65,129.16z M96.26,123.62c1.87,0,3.52,1.23,5.11,2.42c0.85,0.64,1.66,1.24,2.4,1.58
				c0.3-0.84,0.89-2.09,2.3-2.09c0.43,0,0.87,0.13,1.34,0.39c0.77,0.41,1.23,0.57,1.48,0.64c0.05-0.07,0.11-0.14,0.16-0.2
				c-5.03-4.04-24.21-13.74-29.7-15.47c0.16,0.21,0.29,0.47,0.38,0.78c0.07,0.26,0.14,0.54,0.21,0.85c0.28,1.24,0.38,2.35,0.46,3.24
				c0.01,0.13,0.03,0.37,0.06,0.61c0.23-0.04,0.48-0.08,0.74-0.13c0.94-0.17,1.91-0.36,2.87-0.36c0.19,0,0.37,0.01,0.55,0.02
				c1.08,0.09,2.36,0.66,3.57,1.24c0.54,0.25,0.92,0.86,1.02,1.61c0.02,0.17,0.05,0.32,0.09,0.47c0.04,0.13,0.25,0.47,0.51,0.82
				c0.26-0.35,0.58-0.69,0.98-1.02c0.27-0.23,0.59-0.35,0.92-0.35c0.56,0,1.05,0.32,1.35,0.89c0.43,0.8,0.5,1.6,0.54,2.08
				c0.03,0.37,0.04,0.51,0.41,0.98c0.28,0.24,0.6,0.6,0.85,0.88c0.1,0.11,0.18,0.21,0.25,0.29
				C95.46,123.68,95.85,123.62,96.26,123.62z M116.33,125.2c0.38,0,0.76,0.12,1.11,0.35l0.13,0.09c0.25,0.19,0.32,0.24,0.94,0.24
				c0.13,0,0.27,0,0.43-0.01c0.83-0.03,0.99-0.28,1.07-0.42c0.01-0.04,0.07-0.28,0.16-0.69c0.18-0.85,0.39-1.9,1.1-2.51
				c0.33-0.28,0.71-0.42,1.13-0.42c0.41,0,0.78,0.14,1.1,0.32c0.04-0.12,0.26-0.75,0.26-0.75c0.81-2.4,1.82-3.57,3.06-3.57
				c0.29,0,0.58,0.07,0.86,0.2c0.01-0.06,0.03-0.11,0.04-0.17c0.37-1.57,1.3-2.39,1.98-2.99c0.07-0.06,0.15-0.13,0.24-0.21
				c-0.08-0.16-0.15-0.33-0.21-0.46c-0.48-1.01-0.78-1.67-0.91-2.38c-0.13-0.72,0-1.46,0.34-1.99c0.21-0.32,0.42-0.56,0.62-0.74
				c-0.17-0.6-0.31-1.17-0.29-1.79c0.02-0.55,0.19-1.06,0.46-1.42c-0.28-0.06-0.53-0.2-0.74-0.41c-0.87,1.28-1.76,2.56-2.72,3.92
				c-0.98,1.4-1.88,2.68-2.79,4.03c-3.82,5.6-6.64,10.07-7.43,11.79C116.29,125.2,116.31,125.2,116.33,125.2z M79.28,106.49
				c5.91,1.56,27.51,12.48,32.18,16.72c0.3,0.28,0.57,0.53,0.82,0.76c0.18,0.17,0.38,0.36,0.56,0.53c0.07-0.18,0.16-0.42,0.26-0.72
				c0.74-2.23,4.83-8.46,8.13-13.3c0.87-1.29,1.74-2.52,2.6-3.75l0.23-0.32c2.93-4.17,5.69-8.1,8.43-13.53c0,0,0.12-0.69,0.14-0.81
				l-1.91-0.64c-0.16,1.05-0.39,2.02-0.67,2.89c-2.41,7.33-6.96,11.57-14.76,13.75c-0.07,0.02-0.15,0.04-0.23,0.06
				c-0.1,0.36-0.21,0.69-0.3,0.91c-0.25,0.6-1.05,1.76-2.25,1.76c-0.43,0-1.42-0.18-2-1.7c-2.53,0.4-5.1,0.61-7.66,0.61l-1-0.01
				c-3.45-0.01-9.23-0.03-14.16-1.67c-1.78-0.58-5.02-1.81-7.45-3.82c-0.03,0.07-0.06,0.14-0.09,0.22
				C79.81,105.18,79.53,105.85,79.28,106.49z M74.09,111.28c0.42,0.17,1.35,0.5,2.12,0.5c0.21,0,0.34-0.03,0.42-0.05
				c0.14-0.58,0.45-1.02,0.87-1.25c-0.17-0.08-0.33-0.2-0.46-0.34c-0.66-0.72-1.03-1.98-1.15-2.92c-0.03-0.23-0.05-0.45-0.05-0.66
				c-0.04-0.36,0.03-0.83,0.18-1.25c0.24-0.67,0.52-1.38,0.84-2.14c-1.08,1.94-1.37,2.68-1.44,2.93c-0.45,1.51-1.08,3.58-2.77,3.58
				c-0.12,0-0.23-0.01-0.34-0.03c0.12,0.21,0.24,0.4,0.36,0.57c0-0.01,0-0.01,0-0.01c0.01,0,0.04,0.01,0.08,0.03
				c0.27,0.14,0.69,0.36,1.07,0.88C73.91,111.16,74,111.22,74.09,111.28z M65.4,104.9c0.71,0,1.33,0.31,1.79,0.89
				c0.63,0.79,1.07,1.51,1.39,2.03c0.08,0.12,0.21,0.34,0.33,0.52c0.15-0.1,0.34-0.24,0.54-0.41c0.14-0.12,0.29-0.2,0.44-0.26
				c-0.1-0.12-0.48-0.56-0.67-0.77c-4.59-5.11-27.86-20.46-29.57-20.58c-0.46-0.02-0.87-0.26-1.16-0.66
				c-0.64-0.9-1.31-3.2-0.84-4.61c0.17-0.53,0.38-1.08,0.64-1.73l0.16-0.4c0.21-0.5,0.42-0.98,0.65-1.45
				c0.12-0.25,0.25-0.51,0.39-0.77l0.22-0.42c0.43-0.82,0.9-1.63,1.41-2.45c-0.04-0.05-0.09-0.11-0.13-0.16
				c-0.07-0.04-0.14-0.09-0.21-0.13c-2.32,2.92-2.85,3.89-2.97,4.17c-0.55,1.29-1.3,3.05-2.85,3.05c-1.16,0-1.9-0.98-2.91-2.34
				c-0.22-0.29-0.45-0.61-0.72-0.95c-3.09-3.96-16.27-14.93-23.5-20.27c-0.16,0.07-0.33,0.16-0.49,0.25
				c-0.2,0.11-0.4,0.21-0.61,0.31c-0.82,0.74-1.19,1.43-1.31,1.7c0.26,0.84,0.66,1.89,0.96,2.64c0.1-0.04,0.2-0.08,0.31-0.13
				c0.35-0.14,0.61-0.32,0.77-0.45c0.26-0.2,0.56-0.3,0.86-0.3c0.62,0,1.16,0.4,1.44,1.08c0,0,0.17,0.41,0.23,0.55
				c1.52,3.79,2.23,4.87,2.48,5.17c0.23-0.06,0.87-0.35,1.27-0.54c0.65-0.29,1.37-0.62,2.18-0.89c0.15-0.05,0.29-0.07,0.43-0.07
				c0.57,0,1.08,0.35,1.38,0.94c0.24,0.49,0.33,1.13,0.23,1.72c-0.07,0.43-0.18,0.8-0.34,1.15c-0.13,0.27-0.2,0.87-0.09,1.4
				c0.08,0.39,0.21,0.54,0.25,0.56c0.28,0.09,0.54,0.27,0.74,0.53c1.65,2.1,3.42,3.58,4.31,3.58c0.12,0,0.17-0.03,0.21-0.06
				c0.61-0.48,1.37-0.85,2.13-1.03l0.14-0.02c0,0,0.14-0.01,0.14-0.01c0.85,0,1.5,0.69,1.65,1.72c0.4,2.77,1.26,4.83,1.86,5.23
				l0.08,0.06l0.11,0.09c0.09,0.08,0.16,0.14,0.22,0.19c0.15,0.09,1.08,0.46,2.03,0.46c0.51,0,0.85-0.12,0.96-0.24
				c0.29-0.31,0.66-0.48,1.06-0.48c0.28,0,0.56,0.09,0.8,0.25c0.41,0.28,0.69,0.77,0.8,1.38c0.08,0.44,0.14,0.93,0.18,1.49
				c0.03,0.38,0.06,0.83,0.11,1.03c0.04,0,0.08,0,0.12,0c0.15,0.01,0.29,0.01,0.43,0.03c0.54,0.05,1.01,0.42,1.27,1.01
				c0.1,0.22,0.17,0.46,0.2,0.72c1.85,0.49,3.09,1.6,4.18,2.59c0.53,0.48,1.03,0.93,1.46,1.15l0.61,0.31l-0.02,0.15
				c0.02,0.02,0.03,0.04,0.05,0.06c0.18,0.24,0.31,0.38,0.39,0.45c0.04-0.04,0.09-0.1,0.16-0.19c0.3-0.41,0.72-0.63,1.18-0.63
				c0.48,0,0.93,0.26,1.24,0.7c0.39,0.57,0.51,1.44,0.32,2.2c-0.16,0.63-0.24,1.03-0.28,1.27c0.19,0.19,0.49,0.37,0.84,0.51
				c0.18-0.16,0.39-0.28,0.62-0.36c0.38-0.19,0.88-0.31,1.34-0.31c0.27,0,0.53,0.04,0.77,0.12c0.11,0.04,0.18,0.06,0.23,0.06
				c0.05,0,0.13-0.03,0.24-0.08c0.19-0.09,0.39-0.13,0.59-0.13c0.52,0,0.99,0.29,1.29,0.79c1.74,2.89,2.55,3.81,2.87,4.09
				c0.31-0.19,0.76-0.56,1.05-0.79c0.38-0.3,0.79-0.57,1.32-0.57c0.65,0,1.21,0.41,1.51,1.11c0.1,0.23,0.17,0.48,0.21,0.75
				c0.64,0.16,1.11,0.71,1.27,1.53c0.1,0.5,0.27,0.8,0.39,0.9c0.06,0.05,0.12,0.11,0.18,0.19c0.35,0.27,1.38,0.75,2.83,0.98
				c0.05-0.01,0.14-0.04,0.23-0.06C64.68,104.99,65.01,104.9,65.4,104.9z M80.04,97.81c0.25,0.6,0.48,1.07,0.61,1.26
				c1.23,1.8,4.11,3.54,7.88,4.75c4.52,1.5,10.03,1.52,13.32,1.53l1,0c2.36,0,4.74-0.19,7.08-0.56c-0.02-0.22-0.04-0.44-0.05-0.67
				c-2.07,0.77-4.23,1.17-6.29,1.17c-1.67,0-3.25-0.25-4.71-0.75c-2.62-0.89-6.1-2.9-7.83-7.44c-0.03-0.07-0.07-0.18-0.16-0.6
				c-0.23,0.1-0.47,0.15-0.71,0.15c-0.38,0-1.07-0.12-1.64-0.91C86.16,97.11,83.3,97.79,80.04,97.81z M40.87,82.27
				c5.41,2.15,26.51,16.85,30.52,21.31c0.28,0.32,0.52,0.6,0.74,0.86c0.05,0.06,0.11,0.12,0.16,0.19c0.02-0.07,0.05-0.15,0.07-0.23
				c0.35-1.16,1.56-3.48,3.58-6.89c-6.91-0.98-15.44-4.43-25.36-10.24c-2.79-1.64-5.75-4.75-7.06-7.4c-0.24-0.47-0.49-1.14-0.71-1.8
				c-0.14,0.25-0.28,0.5-0.41,0.75l-0.14,0.27c-0.17,0.34-0.29,0.55-0.39,0.77c-0.2,0.41-0.38,0.82-0.55,1.23l-0.11,0.27
				C41.09,81.71,40.97,82.01,40.87,82.27z M115.49,101.02c-0.07,0.54-0.14,1.56-0.15,2.59c7.92-2.47,10.41-7.21,11.69-11.1
				c0.95-2.92,0.92-6.88-0.09-10.08c-0.49-1.56-1.61-4.13-3.72-4.47c0.26,0.84,0.45,1.73,0.55,2.65c0.12,1.22,0.2,3.65-0.08,5.57
				c0.31,0.34,0.51,0.83,0.58,1.37c0.25,2.06-2.53,6.07-4.92,9.07c-0.89,1.42-2.06,2.77-3.44,3.97
				C115.78,100.73,115.64,100.88,115.49,101.02z M100.72,100.65c0.83,0.2,1.71,0.31,2.62,0.33c-0.01-0.02-0.02-0.05-0.03-0.07
				c-0.46-0.15-1.11-0.34-1.47-0.44l-0.08-0.02C101.45,100.55,101.1,100.62,100.72,100.65z M106.47,99.39
				c0.01,0,0.08,0.03,0.22,0.03c0.13,0,0.24-0.03,0.33-0.06c0.66-1.48,1.52-2,2.17-2.15c-0.13,0.01-0.26,0.01-0.4,0.01
				c-0.39,0-0.79-0.02-1.19-0.04l-0.13-0.01c-0.24-0.01-0.42-0.03-0.6-0.03c-0.64-0.05-1.34-0.11-2.07-0.2
				c0.5,0.21,0.72,0.42,0.93,0.75c0.25,0.37,0.4,0.81,0.52,1.16C106.32,99.05,106.41,99.32,106.47,99.39
				C106.47,99.39,106.47,99.39,106.47,99.39z M109.88,97.15c1.15,0.09,2.08,1.04,2.58,2.08c0.2-0.72,0.47-1.22,0.81-1.51
				c0.51-0.43,1.17-1.1,1.92-1.96c-0.63,0.26-1.31,0.5-2.03,0.7l-0.37,0.1C111.87,96.8,110.93,97.04,109.88,97.15z M11.87,72.37
				c2.49,5.39,10.66,12.51,22.26,19.32c3.15,1.85,6.37,4.02,9.27,6.04c-0.03-0.15-0.06-0.31-0.08-0.48
				c-0.64-0.19-1.25-0.63-1.84-1.36c-0.67-0.39-1.26-0.91-1.87-1.46c-1.06-0.95-1.97-1.77-3.35-2.02c-0.84-0.15-1.5-0.7-1.87-1.54
				c-0.03-0.06-0.05-0.12-0.07-0.19c-1.48-0.47-2-2-2.23-3.33c-0.22,0.03-0.46,0.04-0.69,0.04c-1.43,0-3.02-0.53-3.69-1.01
				c-0.13-0.1-0.3-0.23-0.47-0.39c-1.45-1-2.36-3.48-2.88-5.62c-0.47,0.26-0.98,0.39-1.52,0.39c-2.28,0-4.71-2.4-6.37-4.45
				c-1.04-0.56-1.78-1.75-2.11-3.39c-0.07-0.34-0.11-0.69-0.14-1.04c-0.6,0.25-1.14,0.45-1.67,0.49c-0.05,0.02-0.22,0.02-0.27,0.02
				C12.14,72.41,12,72.39,11.87,72.37z M94.89,93.64c1.09,1.55,3.65,2.7,5.35,2.7c0.51,0,0.73-0.11,0.77-0.13
				c0.06-0.03,0.12-0.06,0.19-0.09c-1.91-0.67-3.32-1.75-4.61-2.8c-0.17-0.15-0.32-0.3-0.46-0.47L94.89,93.64z M99.58,90.56
				c0.69,0.5,1.55,1.03,2.56,1.38c1.48,0.55,3.38,0.75,4.87,0.85c0.17,0.01,0.4,0.02,0.62,0.03c0.41,0.02,0.78,0.05,1.14,0.05
				c0.16,0,0.33,0,0.49-0.02c0.98-0.07,1.91-0.31,2.81-0.55l0.37-0.09c1.37-0.38,2.53-0.9,3.54-1.57c0.27-0.16,0.5-0.26,0.74-0.36
				c0.11-0.04,0.3-0.12,0.39-0.17c0.1-0.08,0.35-0.43,0.53-0.68c0.4-0.57,0.85-1.2,1.5-1.58c0.4-0.25,0.85-0.97,1.21-1.97
				c0.21-0.59,0.33-2.95,0.16-4.64c-0.06-0.59-0.18-1.13-0.36-1.66c-1.09,0.66-2.13,1.28-3.11,1.88c0.4,0.1,0.72,0.27,0.97,0.53
				c0.34,0.36,0.51,0.84,0.49,1.4c-0.05,1.41-1.76,1.58-3.42,1.75c-0.83,0.08-1.76,0.17-2.31,0.38c-0.22,0.08-0.46,0.12-0.73,0.12
				c-0.2,0-0.78-0.03-1.29-0.3l-0.64,0.4c1.42,1.61,2.4,2.96,1.91,4.18c-0.19,0.47-0.67,1.06-1.9,1.16c0,0,0,0,0,0
				c-1.39,0-1.86-1.28-2.23-2.31c-0.16-0.44-0.34-0.93-0.55-1.25c-0.02,0.01-0.04,0.03-0.06,0.04c-0.24,0.35-0.49,0.78-0.72,1.2
				c-0.73,1.31-1.49,2.65-2.85,2.65c-0.55,0-1.09-0.24-1.6-0.72c-0.31-0.29-0.48-0.67-0.47-1.07c0-0.14,0.02-0.27,0.06-0.39
				c-0.01,0-1,0.54-1,0.54C100.34,90.03,99.97,90.29,99.58,90.56z M87.1,91.67c-0.21,0.17-0.42,0.33-0.64,0.49
				c0.22-0.1,0.43-0.21,0.64-0.33C87.1,91.78,87.1,91.72,87.1,91.67z M96.49,86.66c-6.02,3.71-6.1,4.93-6.1,4.98l0.06,0.13
				c0.26-0.21,0.58-0.46,0.94-0.73c0.66-0.45,1.42-0.93,2.26-1.47c1.19-0.76,2.58-1.65,3.99-2.61
				C97.24,86.87,96.86,86.77,96.49,86.66z M64.33,82.03c0.12,0.4,0.25,0.77,0.39,1.1c1.93,4.64,6.75,7.65,12.27,7.65
				c2.73,0,5.36-0.76,7.41-2.13c1.19-0.79,3.28-2.51,4.28-5.28c-0.14-0.07-0.29-0.15-0.43-0.22c-0.54,0.86-1.41,1.98-2.67,3.04
				l-0.16,0.14c-1.46,1.22-3.45,2.89-6.18,2.99c0,0,0,0,0,0c-0.67,0-1.49-0.22-2.04-1.11c-0.38,0.4-0.92,0.69-1.61,0.88
				c-0.22,0.06-0.48,0.1-0.76,0.1c-2.28,0-5.98-2.42-7.46-3.46c-0.38-0.25-0.82-0.76-1.77-2.55l-0.06-0.11
				c-0.12-0.22-0.2-0.46-0.23-0.71C64.94,82.34,64.61,82.23,64.33,82.03z M45.64,75.63c0.26,0.82,0.5,1.48,0.65,1.79
				c1.01,2.04,3.46,4.58,5.72,5.9c4.48,2.62,8.69,4.77,12.56,6.39c-1.12-1.28-2.03-2.75-2.72-4.41c-0.95-2.29-1.37-4.99-1.66-7.33
				c-0.18-0.49-0.3-1.04-0.36-1.71c-0.02-0.2-0.04-0.41-0.08-0.68c-0.13-0.37-0.2-0.9-0.23-1.19c-0.01-0.11-0.03-0.24-0.05-0.37
				c-0.02-0.15-0.04-0.31-0.05-0.46c-0.09,0.06-0.17,0.11-0.26,0.17c-2.51,1.6-5.69,2.48-8.94,2.48
				C48.7,76.22,47.13,76.02,45.64,75.63z M79.19,84.86c0.02,0.17,0.02,0.34,0.02,0.5c0,0.45,0.03,0.68,0.05,0.79
				c1.52-0.09,2.85-1,3.92-1.85c-0.92,0.24-1.88,0.46-2.97,0.54c-0.23,0.02-0.46,0.02-0.69,0.02C79.41,84.86,79.3,84.86,79.19,84.86
				z M68.46,82.54c0.25,0.4,0.34,0.51,0.35,0.51c2.08,1.46,4.79,2.97,6.01,2.97c0.09,0,0.13-0.01,0.15-0.01
				c0.12-0.03,0.21-0.06,0.28-0.09l-0.02-0.21c-0.03-0.24-0.07-0.65-0.13-1.18c-1.2-0.18-2.26-0.44-3.14-0.77
				c-0.99-0.35-1.93-0.84-2.93-1.53C68.82,82.35,68.63,82.45,68.46,82.54z M10.97,15.71c0,0-0.01,0.12-0.06,0.39
				c-0.49,2.53-0.46,4.18,0.09,5.69c1.44,3.9,2.22,5.13,4.88,7.75c1.64,1.63,5.96,5.29,8.57,7c2.36,1.54,4.12,2.75,5.68,3.82
				c2.43,1.66,4.15,2.85,6.27,4.03c1.24,0.69,3.72,2.45,5.9,4.01c1.44,1.03,2.77,1.97,3.48,2.43c4.79,3.01,9.33,6.24,14.14,9.66
				c7.41,5.27,15,10.67,23.91,15.55l1.07,0.59c4.4,2.42,8.21,4.51,12.31,5.79c2.64,0.78,5.52,1.2,8.56,1.23
				c6.08-3.92,13.76-8.5,19.94-12.19c0,0,2.92-1.75,3.75-2.25c-0.02-0.12-0.05-0.25-0.08-0.37c-1.03-4.59-2.35-6.44-3.84-8.22
				c-1.28-1.56-2.82-2.99-4.57-4.27c-3.15-2.28-9.61-6.3-17.51-7.65c-0.69-0.12-1.5-0.18-2.39-0.18c-3.78,0-8.3,1.04-11.42,1.91
				l-0.16,0.03c0,0-0.17,0.01-0.17,0.01c-0.58,0-1.07-0.31-1.37-0.86c-0.42-0.76-0.84-1.53-1.26-2.3l-0.2-0.36
				c-6.16-11.33-12.54-23.04-28.92-23.04c-1.72,0-3.55,0.13-5.45,0.38c0,0-0.15,0.01-0.15,0.01c-0.55,0-1.02-0.29-1.32-0.79
				c-5.54-9.22-14.1-20.21-23.47-20.21c-0.75,0-1.5,0.07-2.24,0.21C23.67,3.8,12.4,6.28,10.97,15.71
				C10.97,15.71,10.97,15.71,10.97,15.71z M68.38,76.06c0.23,0.32,0.4,0.62,0.51,0.82c0.14,0.26,0.19,0.33,0.28,0.42
				c1,0.83,2.19,1.76,3.71,2.29c1.23,0.46,2.86,0.74,4.86,0.85c0.21,0.01,0.44,0.02,0.67,0.04c0.41,0.02,0.77,0.04,1.12,0.04
				c0.16,0,0.32,0,0.48-0.02c0.86-0.06,1.69-0.26,2.49-0.46l0,0c-2.45-1.34-4.94-2.81-7.61-4.47
				C72.64,75.61,70.31,75.66,68.38,76.06z M65.81,79.01c0.02-0.01,0.05-0.02,0.07-0.03c-0.05-0.05-0.09-0.08-0.13-0.12
				C65.77,78.91,65.79,78.96,65.81,79.01z M22.86,64.09c3.52,3,8.75,7.61,10.81,10.25c0.28,0.37,0.54,0.7,0.76,1.01
				c0.12,0.16,0.25,0.33,0.38,0.5c0.04-0.1,0.09-0.21,0.14-0.33c0.36-0.87,1.33-2.3,2.94-4.38c-1.13-1.21-2.05-2.59-2.73-4.12
				C31.21,66.49,27.08,65.51,22.86,64.09z M62.95,74.56c0.01,0.07,0.02,0.14,0.03,0.21c0.88-0.93,2.09-2.19,3.56-2.66
				c0.67-0.2,1.41-0.37,2.24-0.5c-0.72-0.48-1.45-0.97-2.17-1.47c-1.96,0.53-4.15,1.46-3.92,2.99c0.03,0.2,0.08,0.62,0.09,0.68
				l0.31,0.25l-0.14,0.41C62.95,74.52,62.95,74.54,62.95,74.56z M37.6,63.74c0.1,0.29,0.21,0.58,0.32,0.85
				c1.92,4.43,6.74,7.29,12.29,7.29c2.74,0,5.38-0.72,7.44-2.03c0.96-0.62,2.33-1.68,3.36-3.27c0.04-0.09,0.07-0.19,0.11-0.28
				l-0.53-0.37c-0.54,0.64-1.15,1.23-1.81,1.75l-0.14,0.11c-1.45,1.17-3.44,2.77-6.18,2.87h0c-0.88,0-1.57-0.38-2.03-1.09
				c-0.39,0.42-0.93,0.71-1.64,0.9c-0.22,0.06-0.47,0.09-0.74,0.09c-2.12,0-5.57-2.08-7.43-3.31c-0.51-0.33-1.01-1.1-1.71-2.31
				l-0.09-0.15c-0.14-0.25-0.24-0.51-0.28-0.76C38.18,64.02,37.87,63.92,37.6,63.74z M52.43,66.8c0,0.38,0.03,0.58,0.05,0.69
				c1.12-0.07,2.14-0.54,3.02-1.11c-0.61,0.13-1.26,0.24-1.96,0.3c-0.21,0.02-0.45,0.02-0.68,0.02c-0.14,0-0.28,0-0.43-0.01
				C52.43,66.73,52.43,66.76,52.43,66.8z M41.73,64.17c0.19,0.29,0.27,0.36,0.27,0.37c3.17,2.1,5.24,2.86,6.03,2.86
				c0.08,0,0.13-0.01,0.14-0.01c0.11-0.03,0.19-0.06,0.26-0.08c-0.01-0.05-0.07-0.58-0.11-0.95c-1.17-0.18-2.19-0.43-3.05-0.76
				c-1.04-0.36-2.05-0.89-3.12-1.65C42.01,64.02,41.87,64.1,41.73,64.17z M12.1,50.48c0.3,0.98,0.74,2.18,0.97,2.58
				c0.87,1.55,2.67,3.69,4.85,4.62C23.36,60,28.7,61.6,33.81,62.43c-0.27-1.41-0.44-2.78-0.56-3.83L33.17,58
				c-0.05-0.37-0.08-0.75-0.1-1.12c-0.38,0.59-1.07,1.28-2,1.28c-0.59,0-1.61-0.28-2.13-2.06c-1.05,0.28-2.18,0.42-3.36,0.42
				C21.49,56.52,15.98,54.64,12.1,50.48z M45.82,61.28c0.13,0.05,0.26,0.1,0.39,0.15c1.22,0.46,2.85,0.75,4.85,0.85l0.65,0.03
				c0.41,0.02,0.78,0.05,1.14,0.05c0.16,0,0.32,0,0.48-0.02c0.62-0.05,1.21-0.16,1.8-0.29l-1.26-0.89c-1.57-0.36-3.07-0.7-4.51-1.02
				l-0.17,0.06C48.07,60.59,46.94,60.99,45.82,61.28z M39.01,60.7c0.01-0.01,0.03-0.01,0.04-0.02c-0.02-0.02-0.07-0.05-0.07-0.05
				C38.99,60.65,39,60.67,39.01,60.7z M41.73,57.16c0.33,0.14,0.73,0.21,1.21,0.21c1.14,0,2.55-0.39,4.04-0.9
				c-0.6-0.39-1.2-0.78-1.8-1.17c-0.24,0.12-0.43,0.25-0.61,0.38C43.76,56.28,42.81,56.78,41.73,57.16z M36.26,53.37
				c0.72,0.06,1.54,0.16,2.52,0.3c0.24-0.16,0.5-0.28,0.79-0.34c0.67-0.15,1.29-0.35,1.85-0.59l-1.82-1.3
				c-0.42-0.03-0.82-0.04-1.19-0.04c-1.85,0-2.23,0.37-2.24,0.39l0.03,0.48C36.2,52.57,36.22,53.07,36.26,53.37z M4.32,49.98
				c1.07,0.56,2.79,1.71,5.12,3.42c-0.29-0.84-0.54-1.66-0.67-2.18c-0.26-0.96-0.43-2.03-0.5-3.18c-0.01-0.06-0.03-0.24-0.04-0.43
				c-0.05-1.11-0.01-2.26,0.12-3.43c-0.05-0.13-0.1-0.26-0.14-0.4c-0.03-0.1-0.06-0.2-0.09-0.31c-1.01,1.47-1.91,2.94-2.69,4.36
				C5.01,48.61,4.65,49.31,4.32,49.98z M11.26,42.1c1.79,5.94,7.98,9.63,13.33,10.05c-0.08-0.05-0.16-0.11-0.24-0.18
				c-0.12-0.1-0.24-0.21-0.36-0.34c-0.14-0.02-0.29-0.06-0.43-0.09c-0.79-0.2-1.4-0.71-1.75-1.47c-0.58,0.33-1.21,0.33-1.46,0.33
				c-1.54-0.03-3.82-1.58-7.17-4.87c-0.18-0.17-0.56-0.53-1.4-2.68c-0.09-0.22-0.14-0.45-0.16-0.69c-0.14-0.04-0.27-0.09-0.39-0.15
				C11.24,42.04,11.25,42.07,11.26,42.1z M28.55,51.31c-0.16,0.19-0.39,0.42-0.67,0.64c0.22-0.05,0.44-0.11,0.65-0.17
				c0.04-0.01,0.07-0.02,0.11-0.04c0-0.2,0.01-0.39,0.01-0.56C28.62,51.22,28.59,51.27,28.55,51.31z M31.01,47.92
				c0.14,0.23,0.27,0.46,0.37,0.67c0.01-0.01,0.01-0.02,0.02-0.04c0.12-0.26,0.25-0.47,0.38-0.65c-0.08,0.01-0.16,0.02-0.23,0.02
				c-0.1,0.01-0.19,0.01-0.28,0.01C31.19,47.93,31.1,47.92,31.01,47.92z M25.05,46.2c0.15,0.13,0.28,0.28,0.4,0.48
				c0.21,0.33,0.35,0.73,0.46,1.05c0.06,0.16,0.14,0.42,0.2,0.51c0.01-0.01,0.02-0.02,0.04-0.04c0.25-0.59,0.56-1.06,0.9-1.4
				c-0.02-0.01-0.04-0.02-0.07-0.03c-0.4-0.16-0.66-0.26-0.92-0.36C25.74,46.36,25.4,46.28,25.05,46.2z M21.23,45.2
				c0.05,0.03,0.18,0.07,0.48,0.13C21.55,45.29,21.39,45.24,21.23,45.2C21.23,45.2,21.23,45.2,21.23,45.2z M2.69,42.7
				c0.24,0.16,0.67,0.44,0.95,0.99c1.09-1.84,2.35-3.71,3.76-5.57c-0.02-0.48-0.03-0.95-0.04-1.4c-0.58-0.32-1.03-0.62-1.42-0.92
				c-0.03-0.01-0.05-0.01-0.08-0.02c0.06,0.36,0.05,0.74-0.02,1.1c-0.17,0.81-0.65,1.38-1.29,1.53c-0.42,0.09-0.75,0.22-1,0.39
				c-0.46,0.29-0.74,0.54-0.89,0.72C3.01,40.55,3.02,41.61,2.69,42.7z M17.85,39.95c0.25,0.02,0.54,0.06,0.87,0.11
				c0.74,0.18,1.58,0.42,2.53,0.69c1.11,0.32,2.4,0.69,3.72,1.01c-0.64-0.42-1.32-0.88-2.06-1.36c-0.46-0.3-0.96-0.65-1.49-1.04
				c-1.15-0.28-2.07-0.42-2.74-0.42c-0.68,0-0.83,0.13-0.83,0.13l0,0.4C17.86,39.6,17.85,39.79,17.85,39.95z M14.58,39.24
				c0-0.01,0.02-0.54,0.03-0.61c-0.06,0.1-0.12,0.19-0.18,0.27C14.47,39.01,14.52,39.12,14.58,39.24z M14.75,34.55
				c0.28,0.65,0.42,1.28,0.43,1.92c0.31-0.56,0.72-0.95,1.13-1.22c-0.29-0.25-0.57-0.49-0.83-0.73
				C15.23,34.53,14.98,34.54,14.75,34.55z M6.8,30.09c0.02,0.37,0.08,1,0.14,1.45c0.45-0.04,1.04-0.15,1.5-0.24
				c0.36-0.07,0.64-0.12,0.78-0.13c0.19-0.01,0.52-0.1,0.92-0.2c0.39-0.1,0.88-0.23,1.49-0.35c-0.42-0.51-0.78-1-1.11-1.52
				C7.68,29.44,6.95,29.96,6.8,30.09z M6.43,23.96c0.07,0.1,0.15,0.14,0.45,0.23c0.13,0.04,0.25,0.08,0.36,0.12
				c0.16,0.06,0.48,0.1,0.88,0.15c0.06,0.01,0.13,0.02,0.19,0.02c-0.09-0.23-0.18-0.46-0.27-0.71c-0.16-0.44-0.3-0.89-0.41-1.36
				c-0.01,0-0.01,0-0.02,0c-1.17,0-1.17,0.4-1.17,0.8c0,0.2,0,0.36-0.01,0.5C6.43,23.83,6.43,23.91,6.43,23.96z"/>
		</g>
		<g>
			<path class="st0" d="M103.85,135.5c-0.15,0-0.31,0-0.47-0.01c-5.13-0.19-10.7-1.51-15.29-3.63c-4.61-2.16-8.96-5.15-13.58-8.31
				c-2.1-1.44-4.26-2.92-6.46-4.33c-1.05-0.67-2.09-1.33-3.14-1.99c-2.65-1.67-5.4-3.41-8.08-5.29c-1.24-0.89-2.5-1.85-3.72-2.79
				c-1.34-1.03-2.65-2.03-3.91-2.93l-0.67-0.48c-5.54-3.98-10.71-7.68-15.56-10.53C19.79,87.47,11.02,79.36,8.91,72.95
				c-0.44-1.33-0.74-4.36-0.79-6.04c-0.04-0.29-0.07-0.63-0.08-0.96c-0.06-0.14-0.12-0.28-0.18-0.43c-0.1,0.05-0.2,0.09-0.31,0.13
				c-0.81,0.34-1.32,0.51-1.69,0.55c-0.09,0.01-0.17,0.02-0.23,0.02c-0.68,0-0.98-0.55-1.08-0.74c-0.03-0.05-0.05-0.1-0.08-0.16
				c-0.01-0.03-1.17-2.76-1.72-4.68c-0.14-0.48-0.3-1.48,0.12-2.76c0.1-0.29,0.22-0.6,0.38-0.91c-0.14-0.21-0.25-0.47-0.3-0.76
				c-0.23,0.15-0.45,0.2-0.63,0.2c-1.12,0-1.95-1.61-2.75-5.4c-0.16-0.84-0.07-1.61,0.28-2.28c-0.01-0.25-0.05-0.5-0.08-0.76
				c-0.09-0.71-0.22-1.69,0.12-2.66c0.05-0.15,0.11-0.29,0.18-0.42c-0.24-0.38-0.39-0.81-0.46-1.28c-0.06-0.42-0.09-1.26,0.35-2.12
				c0.07-0.14,0.12-0.25,0.14-0.32c-0.01-0.02-0.02-0.05-0.04-0.08c-0.16-0.36-0.53-1.19-0.32-2.27c0.24-1.42,1.1-2.6,2.56-3.5
				c0.1-0.06,0.2-0.12,0.31-0.18c-0.23-1.65,0.41-2.75,0.84-3.5c0.11-0.2,0.2-0.35,0.28-0.51c0.08-0.18,0.18-0.34,0.29-0.48
				c-0.02-0.34-0.02-0.56-0.02-0.57c0-0.08,0-0.16,0.01-0.23c0.02-0.64,0.15-1.28,0.38-1.81c0.1-0.23,0.23-0.52,0.48-0.83
				c-0.21-0.19-0.39-0.41-0.56-0.67l-0.04-0.06c-0.05-0.07-0.09-0.14-0.13-0.22c-0.56-1.02-0.52-2.2-0.5-2.7
				c0-0.12,0.01-0.23,0.01-0.39c0.01-2.93,1.46-4.61,3.97-4.61c0.06,0,0.11,0,0.17,0c0.04-1.09,0.18-2.26,0.43-3.57
				C9.9,3.2,22.09,0.23,24.52-0.25c0.88-0.17,1.77-0.25,2.66-0.25c10.29,0,19.39,11.31,25.25,20.93c1.78-0.21,3.51-0.32,5.14-0.32
				c17.81,0,24.59,12.46,31.15,24.51l1.03,1.88c3.15-0.84,7.54-1.79,11.31-1.79c1.01,0,1.94,0.07,2.76,0.21
				c8.37,1.43,15.18,5.67,18.5,8.07c1.94,1.41,3.65,3.01,5.08,4.74c1.73,2.06,3.39,4.38,4.62,9.88c0.1,0.4,0.17,0.85,0.24,1.35
				c0.03,0.1,0.05,0.28,0.06,0.46c0.28,2.15-0.76,2.76-1.2,3.02l-4.94,2.95c1.41,1.14,2.54,3,3.31,5.43c0.63,2,0.98,4.27,1.01,6.59
				l3.89,1.3c0.31,0.1,0.57,0.38,0.73,0.79c0.57,1.51,0.38,2.59,0.14,3.96l-0.13,0.76c-0.04,0.22-0.1,0.42-0.19,0.59
				c-1.12,2.25-2.35,4.43-3.73,6.66c0.03,0.23,0.06,0.47,0.1,0.73c0.31,0.03,0.6,0.24,0.79,0.57c0.36,0.63,0.76,1.87,0.68,3.32
				c-0.03,0.62-0.16,1.21-0.36,1.7c0.25,0.89,0.51,1.86,0.24,2.79c-0.16,0.59-0.45,0.96-0.71,1.21l0.1,0.22
				c0.6,1.26,1.07,2.26,0.9,3.38c-0.22,1.41-1,2.1-1.69,2.71c-0.33,0.29-0.82,0.72-0.89,1c-0.46,1.99-0.93,3.64-2.12,3.64
				c-0.59,0-0.99-0.45-1.3-0.82l-0.11-0.12c-0.12,0.19-0.32,0.57-0.58,1.33l-0.12,0.36c-0.32,0.92-0.68,1.97-1.38,2.59
				c-0.23,0.21-0.52,0.32-0.83,0.32c-0.34,0-0.7-0.13-1.11-0.39c-0.13,0.62-0.3,1.36-0.65,1.95c-0.92,1.51-2.23,1.73-3.14,1.76
				c-0.16,0.01-0.31,0.01-0.46,0.01c-1.05,0-1.57-0.17-2.05-0.47c-0.09,0.32-0.19,0.87-0.25,1.71c-0.1,1.36-0.87,2.1-2.18,2.1
				c-0.15,0-1.42-0.02-2.17-0.77C109.59,134.42,106.88,135.5,103.85,135.5z M50.26,103.23c1.25,0.89,2.55,1.89,3.82,2.85l0.08,0.06
				c1.23,0.94,2.5,1.92,3.73,2.8c2.65,1.86,5.36,3.58,7.99,5.23c1.05,0.66,2.1,1.32,3.15,2c2.21,1.42,4.37,2.9,6.46,4.33
				c4.59,3.14,8.88,6.09,13.35,8.18c4.38,2.03,9.71,3.29,14.61,3.47c0.15,0.01,0.29,0.01,0.43,0.01c2.03,0,3.9-0.58,5.57-1.74
				c-0.1,0.01-0.2,0.02-0.3,0.02c-0.7,0-1.54-0.29-2.82-0.96c-0.03-0.02-0.06-0.03-0.09-0.04c-0.01,0.04-0.03,0.09-0.05,0.14
				c-0.22,0.68-0.67,2.08-1.95,2.08c-0.16,0-0.32-0.02-0.48-0.07c-1.32-0.34-2.58-1.28-3.8-2.2c-1.34-1.01-2.6-1.95-3.71-1.95
				c-0.23,0-0.45,0.04-0.66,0.13c-0.21,0.09-0.42,0.13-0.64,0.13c-0.82,0-1.38-0.64-1.88-1.21c-0.23-0.26-0.49-0.56-0.8-0.84
				c-0.05-0.05-0.1-0.09-0.14-0.15c-0.45-0.57-0.73-1.09-0.92-1.57c-0.22,0.29-0.52,0.51-0.99,0.58l-0.15,0.01
				c-1.32,0-3.06-2.61-3.39-3.94c-0.01-0.03-0.01-0.06-0.02-0.09c-0.79-0.36-1.63-0.71-2.22-0.76c-0.12-0.01-0.25-0.01-0.38-0.01
				c-0.72,0-1.55,0.15-2.34,0.3c-0.67,0.12-1.22,0.23-1.77,0.27c0,0-0.01,0-0.01,0c-0.53,0-0.94-0.18-1.25-0.53
				c-0.79-0.67-0.93-2.09-1.06-3.46c-0.03-0.29-0.06-0.6-0.09-0.92c-0.39,0.16-0.84,0.24-1.34,0.24c-1.42,0-2.94-0.64-3.23-0.77
				c-0.05-0.02-0.1-0.05-0.14-0.08c-0.32-0.1-0.72-0.33-1.01-0.88c-0.03-0.02-0.06-0.03-0.11-0.06c-0.28-0.14-0.69-0.35-1.09-0.93
				c-0.21-0.3-0.42-0.64-0.63-1.01c-0.46,0.27-0.88,0.4-1.27,0.4c-1.1,0-1.71-0.99-2.29-1.94c-0.3-0.48-0.63-1.03-1.09-1.62
				c-0.1,0.01-0.23,0.04-0.36,0.08c-0.27,0.07-0.56,0.14-0.86,0.14c-0.05,0-0.1,0-0.15-0.01c-1.84-0.27-3.44-0.91-4.32-1.7
				c-0.04-0.03-0.1-0.11-0.16-0.17c-0.4-0.37-0.78-0.95-1.08-1.69c-0.87-0.01-1.3-0.58-1.51-1.07c0,0,0,0,0,0
				c-0.33,0.23-0.63,0.4-0.93,0.51c-0.16,0.08-0.37,0.12-0.59,0.12c-1.15,0-2.4-1.31-4.56-4.81c-0.14,0.02-0.27,0.03-0.41,0.03
				c-0.32,0-0.63-0.06-0.96-0.18c-0.01,0-0.01,0-0.02,0c-0.11,0-0.22,0.03-0.3,0.06c-0.24,0.55-0.59,0.85-1.02,0.85
				c-0.09,0-0.18-0.01-0.27-0.04c-0.27-0.05-0.96-0.2-1.69-0.57C47.29,101.1,50.26,103.23,50.26,103.23z M113.3,129.57
				c0.13,0.06,0.44,0.16,0.78,0.16c0.07-0.61,0.17-1.16,0.29-1.63c-0.33,0.38-0.74,0.63-1.24,0.63c-0.12,0-0.23-0.01-0.34-0.04
				c0.05,0.09,0.1,0.18,0.15,0.27C113.09,129.22,113.21,129.43,113.3,129.57z M96.26,124.12c1.7,0,3.28,1.18,4.81,2.33
				c1.07,0.8,2.07,1.55,3.01,1.84c0.02-0.05,0.03-0.1,0.05-0.17c0.21-0.67,0.66-2.07,1.94-2.07c0.34,0,0.7,0.11,1.1,0.33
				c0.93,0.49,1.6,0.74,1.98,0.74l0,0c0.18-0.35,0.41-0.6,0.69-0.74c-4.68-4.21-28.81-16.24-31.69-16.24
				c-0.27,0-0.55-0.13-0.73-0.33c-0.59-0.64-0.92-1.82-1.03-2.64c-0.03-0.21-0.04-0.41-0.04-0.6c-0.03-0.33,0.02-0.72,0.15-1.07
				c0.34-0.95,0.75-1.96,1.26-3.1c0.17-0.39,0.35-0.79,0.53-1.19c-0.14-0.25-0.27-0.53-0.39-0.8c-2.23,3.78-2.8,5.11-2.94,5.57
				c-0.51,1.7-1.07,3.22-2.29,3.22c-0.82,0-1.43-0.72-2.36-1.8c0,0-0.49-0.57-0.7-0.81c-4.26-4.74-27.87-20.68-29.92-20.75
				c-0.3-0.01-0.57-0.17-0.77-0.45c-0.59-0.83-1.18-2.94-0.77-4.17c0.17-0.52,0.37-1.06,0.63-1.7l0.16-0.4
				c0.2-0.49,0.41-0.95,0.64-1.42c0.13-0.27,0.27-0.55,0.42-0.83l0.19-0.35c0.48-0.91,1-1.8,1.58-2.73
				c-0.14-0.17-0.28-0.33-0.42-0.5c-0.22-0.13-0.43-0.27-0.65-0.42c-2.5,3.12-3.16,4.25-3.32,4.65c-0.62,1.45-1.26,2.75-2.38,2.75
				c-0.91,0-1.55-0.85-2.51-2.14c-0.22-0.29-0.46-0.61-0.72-0.96c-3.17-4.07-16.55-15.18-23.82-20.53
				c-0.26,0.08-0.54,0.23-0.82,0.38c-0.21,0.11-0.42,0.22-0.64,0.33C5.38,58.3,4.97,59.2,4.9,59.47c0.31,1.03,0.86,2.44,1.21,3.29
				c0.21-0.07,0.47-0.18,0.79-0.31c0.4-0.15,0.69-0.36,0.88-0.51c0.17-0.13,0.36-0.2,0.56-0.2c0.41,0,0.77,0.29,0.98,0.77
				c0,0,0.17,0.4,0.23,0.54c1.78,4.44,2.51,5.34,2.77,5.51c0.04-0.01,0.09-0.01,0.12-0.01c0.28-0.02,0.92-0.31,1.54-0.59
				c0.63-0.28,1.35-0.61,2.13-0.87c0.1-0.03,0.18-0.04,0.27-0.04c0.38,0,0.72,0.24,0.93,0.66c0.2,0.4,0.27,0.93,0.19,1.42
				c-0.06,0.38-0.16,0.71-0.3,1.01c-0.19,0.41-0.25,1.13-0.13,1.71c0.06,0.3,0.21,0.82,0.58,0.94c0.19,0.06,0.36,0.19,0.5,0.37
				c1.36,1.74,3.41,3.77,4.7,3.77c0.2,0,0.37-0.06,0.52-0.17c0.56-0.44,1.25-0.77,1.94-0.93l0.06-0.01l0.13-0.01
				c0.56,0,1.01,0.52,1.13,1.3c0.39,2.69,1.26,5.04,2.07,5.58l0.04,0.02l0.11,0.09c0.09,0.08,0.18,0.16,0.25,0.21
				c0.14,0.1,1.18,0.55,2.32,0.55c0.61,0,1.09-0.14,1.33-0.4c0.19-0.21,0.44-0.32,0.69-0.32c0.18,0,0.36,0.06,0.51,0.16
				c0.3,0.21,0.51,0.58,0.59,1.06c0.08,0.43,0.13,0.9,0.17,1.44c0.11,1.47,0.13,1.47,0.71,1.5c0.13,0.01,0.26,0.01,0.4,0.03
				c0.36,0.04,0.68,0.3,0.87,0.72c0.12,0.27,0.19,0.59,0.19,0.92c1.93,0.41,3.2,1.55,4.32,2.56c0.56,0.5,1.08,0.97,1.56,1.22
				l0.3,0.15l0,0.03c0.06,0.05,0.12,0.12,0.17,0.19c0.48,0.64,0.72,0.71,0.81,0.71c0.13,0,0.33-0.16,0.54-0.45
				c0.21-0.28,0.48-0.43,0.78-0.43c0.32,0,0.61,0.17,0.82,0.48c0.31,0.45,0.41,1.18,0.25,1.8c-0.22,0.85-0.29,1.32-0.32,1.56
				c0.31,0.42,0.93,0.75,1.5,0.94c0.18-0.23,0.39-0.38,0.64-0.46c0.38-0.18,0.79-0.29,1.19-0.29c0.22,0,0.42,0.03,0.61,0.1
				c0.16,0.06,0.28,0.08,0.39,0.08c0.13,0,0.27-0.04,0.45-0.12c0.12-0.06,0.25-0.08,0.38-0.08c0.34,0,0.65,0.2,0.86,0.55
				c2.21,3.67,3.02,4.31,3.26,4.42l0.04-0.02c0.29-0.1,0.84-0.54,1.36-0.97c0.35-0.28,0.65-0.46,1-0.46c0.45,0,0.83,0.29,1.06,0.81
				c0.15,0.34,0.2,0.69,0.2,1.01c0.02,0,0.08-0.01,0.08-0.01c0.6,0,1.02,0.46,1.17,1.17c0.11,0.54,0.31,0.97,0.55,1.18
				c0.05,0.04,0.1,0.1,0.16,0.17c0.42,0.36,1.62,0.89,3.2,1.13c0.04-0.01,0.18-0.04,0.35-0.08c0.25-0.07,0.54-0.14,0.86-0.14
				c0.56,0,1.03,0.24,1.4,0.71c0.61,0.77,1.04,1.47,1.36,1.99c0.21,0.35,0.51,0.83,0.62,0.9c-0.02-0.01,0.22-0.03,0.99-0.67
				c0.18-0.15,0.38-0.23,0.59-0.23c0.39,0,0.75,0.27,0.95,0.72c0.31,0.68,0.63,1.25,0.94,1.7c0.05,0.07,0.1,0.1,0.27,0.19
				c0.25,0.13,0.64,0.33,0.97,0.84c0.13,0.04,0.24,0.1,0.35,0.19c0.41,0.17,1.47,0.56,2.38,0.56c0.62,0,0.84-0.19,0.87-0.24
				c0.11-0.67,0.48-1.15,0.97-1.23l0.04-0.01l0.1,0c0.48,0,0.89,0.39,1.06,1.01c0.07,0.25,0.14,0.52,0.21,0.83
				c0.27,1.21,0.37,2.3,0.45,3.17c0.02,0.23,0.08,0.82,0.13,1.13c0.37-0.04,0.84-0.13,1.34-0.22c0.84-0.16,1.79-0.33,2.7-0.33
				c0.17,0,0.34,0.01,0.51,0.02c1,0.08,2.23,0.64,3.4,1.2c0.38,0.18,0.66,0.64,0.74,1.23c0.03,0.19,0.06,0.37,0.1,0.53
				c0.09,0.34,0.64,1.1,1.04,1.54c0.24-0.45,0.61-0.94,1.25-1.49c0.18-0.15,0.38-0.23,0.6-0.23c0.37,0,0.7,0.23,0.91,0.62
				c0.38,0.71,0.45,1.45,0.49,1.89c0.04,0.41,0.06,0.66,0.51,1.24c0.33,0.29,0.64,0.64,0.88,0.92c0.22,0.25,0.43,0.49,0.51,0.53
				C95.36,124.2,95.81,124.12,96.26,124.12z M116.33,125.7c0.28,0,0.57,0.09,0.84,0.27l0.11,0.08c0.3,0.22,0.45,0.33,1.23,0.33
				c0.13,0,0.28,0,0.45-0.01c0.97-0.04,1.29-0.35,1.48-0.66c0.07-0.12,0.17-0.62,0.22-0.87c0.17-0.8,0.36-1.71,0.94-2.22
				c0.24-0.2,0.51-0.3,0.8-0.3c0.49,0,0.92,0.28,1.28,0.54c0.02,0.01,0.03,0.03,0.05,0.04c0.12-0.28,0.26-0.68,0.37-0.98l0.13-0.37
				c0.74-2.17,1.59-3.23,2.59-3.23c0.4,0,0.8,0.18,1.17,0.52c0.06-0.23,0.13-0.52,0.22-0.88c0.33-1.42,1.16-2.14,1.83-2.73
				c0.14-0.12,0.35-0.31,0.51-0.47c-0.12-0.27-0.26-0.57-0.37-0.79c-0.46-0.97-0.75-1.6-0.86-2.25c-0.11-0.59,0-1.21,0.27-1.63
				c0.26-0.4,0.54-0.66,0.76-0.85l-0.02-0.08l0.45-0.24l-0.48,0.13c-0.18-0.63-0.33-1.17-0.31-1.76c0.02-0.49,0.17-0.93,0.42-1.21
				c0.04-0.04,0.08-0.11,0.09-0.29c0.01-0.11,0-0.25-0.02-0.38c-0.09-0.01-0.17-0.03-0.24-0.03c-0.45,0-0.82-0.33-1.01-0.85
				c-1,1.5-2.03,2.96-3.14,4.55c-0.95,1.36-1.87,2.67-2.79,4.03c-4.29,6.27-7.22,11-7.66,12.33c-0.06,0.18-0.13,0.38-0.2,0.58
				C115.69,125.82,116,125.7,116.33,125.7z M78.73,106.87c4.97,1.02,27.65,12.39,32.4,16.71c0.3,0.28,0.57,0.53,0.82,0.77
				c0.36,0.34,0.82,0.78,1.08,0.97c0.1-0.18,0.27-0.56,0.54-1.37c0.72-2.18,4.79-8.37,8.07-13.18c0.92-1.36,1.84-2.67,2.75-3.96
				l0.07-0.1c2.94-4.2,5.73-8.16,8.5-13.66l0.08-0.48c0.07-0.38,0.11-0.64,0.14-0.83l-2.88-0.96c-0.16,1.25-0.41,2.39-0.73,3.4
				c-2.35,7.15-6.8,11.29-14.42,13.43c-0.15,0.04-0.3,0.08-0.46,0.11c-0.01,0-0.03,0.01-0.04,0.01c-0.12,0.53-0.26,0.92-0.35,1.12
				c-0.24,0.58-0.93,1.46-1.8,1.46c-0.37,0-1.21-0.18-1.66-1.77c-2.63,0.45-5.32,0.67-8,0.67l-1-0.01
				c-3.42-0.01-9.15-0.03-14.01-1.64c-1.94-0.62-5.41-1.97-7.79-4.17c-0.13,0.28-0.25,0.56-0.37,0.84c-0.4,0.91-0.73,1.71-1.01,2.45
				C78.69,106.74,78.71,106.81,78.73,106.87z M79.3,97.3c0.34,0.86,0.72,1.72,0.95,2.05c1.29,1.89,4.26,3.69,8.14,4.95
				c4.59,1.53,10.15,1.55,13.47,1.56l1,0c2.54,0,5.11-0.21,7.62-0.64c-0.04-0.56-0.09-1.2-0.15-1.8c-2.21,0.91-4.52,1.38-6.73,1.38
				c-1.61,0-3.14-0.24-4.55-0.72c-2.51-0.85-5.86-2.79-7.53-7.14c-0.03-0.07-0.09-0.23-0.28-1.24c-0.26,0.24-0.6,0.47-1.05,0.47
				c-0.31,0-0.9-0.12-1.37-0.91c-0.04-0.04-0.08-0.1-0.13-0.17c-2.42,1.47-5.37,2.21-8.77,2.21C79.72,97.31,79.51,97.31,79.3,97.3z
				 M40.4,82.63c4.64,1.58,26.61,16.82,30.63,21.29c0.27,0.31,0.52,0.59,0.73,0.85c0.22,0.26,0.51,0.6,0.74,0.84
				c0.08-0.22,0.2-0.55,0.35-1.06c0.36-1.18,1.65-3.64,3.84-7.3c-0.01-0.05-0.03-0.1-0.04-0.14c-6.95-0.85-15.63-4.3-25.81-10.26
				c-2.71-1.59-5.6-4.61-6.86-7.19c-0.35-0.71-0.75-1.89-1.02-2.8c-0.35,0.59-0.68,1.17-0.98,1.74l-0.14,0.27
				c-0.16,0.31-0.28,0.55-0.4,0.79c-0.2,0.42-0.38,0.83-0.56,1.25l-0.11,0.28c-0.18,0.45-0.32,0.82-0.44,1.15
				C40.34,82.43,40.37,82.53,40.4,82.63z M115.03,100.77c-0.11,0.64-0.2,2.19-0.17,3.5c8.65-2.48,11.31-7.5,12.66-11.61
				c0.98-3.02,0.95-7.09-0.09-10.39c-0.57-1.8-1.92-4.82-4.64-4.85l-0.23,0.14c0.36,0.97,0.6,2.01,0.71,3.1
				c0.13,1.25,0.2,3.81-0.11,5.7c0.37,0.29,0.56,0.8,0.62,1.25c0.24,1.99-2.91,6.3-4.81,8.7c-0.88,1.41-2.03,2.74-3.38,3.9
				C115.39,100.42,115.19,100.62,115.03,100.77z M109.69,97.65c1.14,0,2.08,1.12,2.47,2.16c0.15,0.44,0.29,1.59,0.4,2.81
				c0.05-1.82,0.28-3.88,1.03-4.5c0.96-0.8,2.27-2.3,3.57-3.94c-1.16,0.76-2.53,1.36-4.14,1.82l-0.36,0.09
				c-1.02,0.26-2.05,0.53-3.22,0.61c-0.21,0.02-0.43,0.02-0.65,0.02c-0.38,0-0.77-0.02-1.16-0.04c-0.32-0.02-0.53-0.03-0.75-0.04
				c-1.66-0.12-3.77-0.34-5.5-0.98c-1.85-0.65-3.23-1.7-4.48-2.73c-0.28-0.25-0.49-0.5-0.66-0.75c-0.47,0.3-2.04,1.31-2.04,1.31
				c0.98,1.88,3.99,3.35,6.03,3.35c0.58,0,0.88-0.12,1.01-0.19c0.13-0.08,0.28-0.12,0.43-0.12c0.08,0,0.17,0.01,0.25,0.04l0.49,0.14
				c2.28,0.66,2.58,0.79,2.89,1.26c0.22,0.32,0.35,0.73,0.47,1.05c0.12,0.35,0.22,0.63,0.37,0.75c0.12,0.09,0.32,0.15,0.54,0.15
				c0.3,0,0.56-0.09,0.71-0.18C108.14,97.92,109.15,97.65,109.69,97.65z M96.61,99.29c1.1,0.81,2.22,1.29,3.01,1.56
				c1.22,0.42,2.56,0.63,3.98,0.63c0.16,0,0.33,0,0.49-0.01c-0.15-0.31-0.26-0.61-0.36-0.89l-0.02-0.06
				c-0.47-0.17-1.35-0.42-1.77-0.54l-0.19-0.05c-0.43,0.17-0.94,0.25-1.52,0.25C99.19,100.17,97.88,99.87,96.61,99.29z M10.97,71.44
				c1.85,5.61,10.41,13.35,22.91,20.68c3.55,2.08,7.24,4.6,11.08,7.32c-0.34-0.33-0.65-0.74-0.88-1.24
				c-0.18-0.38-0.27-0.83-0.29-1.37c-0.68-0.08-1.33-0.52-1.99-1.33c-0.66-0.36-1.24-0.89-1.86-1.45c-1.07-0.96-2.08-1.87-3.6-2.14
				c-0.67-0.12-1.19-0.55-1.49-1.25c-0.05-0.13-0.1-0.26-0.14-0.4c-1.24-0.25-1.92-1.34-2.2-3.5c-0.34,0.08-0.71,0.13-1.11,0.13
				c-1.4,0-2.87-0.53-3.39-0.92c-0.12-0.09-0.27-0.21-0.43-0.36c-1.61-1.12-2.5-4.25-2.9-6.07c-0.07,0.04-0.13,0.09-0.19,0.14
				c-0.49,0.38-1.05,0.58-1.65,0.58c-2.21,0-4.71-2.68-6.04-4.34c-0.95-0.46-1.64-1.55-1.94-3.09c-0.11-0.55-0.16-1.12-0.16-1.7
				l-0.01,0c-0.82,0.37-1.54,0.69-2.18,0.75c-0.04,0.01-0.14,0.02-0.23,0.02c-0.47,0-0.91-0.21-1.37-0.67
				C10.93,71.32,10.95,71.39,10.97,71.44z M87.72,90.46c-0.62,0.6-1.3,1.14-2.04,1.64c-1.14,0.76-2.42,1.36-3.78,1.79
				c2.18-0.22,4.1-0.81,5.72-1.77c-0.05-0.5-0.03-0.99,0.06-1.46C87.7,90.58,87.71,90.52,87.72,90.46z M98.72,90.54
				c0.9,0.7,1.96,1.42,3.26,1.88c1.53,0.57,3.47,0.77,5,0.88c0.2,0.01,0.42,0.02,0.66,0.03c0.39,0.02,0.77,0.05,1.15,0.05
				c0.18,0,0.35,0,0.53-0.02c1.01-0.08,1.97-0.32,2.89-0.56l0.37-0.09c1.43-0.4,2.64-0.94,3.69-1.63c0.22-0.13,0.44-0.22,0.66-0.31
				c0.14-0.06,0.39-0.16,0.48-0.22c0.19-0.14,0.43-0.48,0.67-0.82c0.38-0.54,0.78-1.09,1.33-1.42c0.52-0.32,1.01-1.09,1.42-2.23
				c0.26-0.73,0.36-3.18,0.19-4.86c-0.09-0.84-0.29-1.61-0.61-2.35c-1.89,1.13-3.61,2.18-5.2,3.15c0.38-0.07,0.75-0.12,1.07-0.12
				c0.61,0,1.07,0.16,1.37,0.46c0.25,0.26,0.37,0.61,0.35,1.04c-0.04,0.98-1.4,1.11-2.97,1.27c-0.9,0.09-1.83,0.18-2.44,0.41
				c-0.16,0.06-0.34,0.09-0.56,0.09c-0.41,0-0.95-0.11-1.29-0.39c-0.48,0.3-0.95,0.59-1.41,0.89c1.46,1.62,2.63,3.05,2.22,4.1
				c-0.2,0.5-0.69,0.78-1.48,0.85c0,0,0,0,0,0c-1,0-1.37-1.01-1.72-1.98c-0.22-0.6-0.45-1.21-0.78-1.58
				c-0.05-0.05-0.1-0.11-0.13-0.18c-0.18,0.12-0.35,0.24-0.53,0.36c-0.28,0.38-0.55,0.86-0.81,1.32c-0.69,1.23-1.34,2.39-2.41,2.39
				c-0.42,0-0.84-0.2-1.26-0.58c-0.26-0.24-0.32-0.51-0.32-0.7c0-0.57,0.53-1.05,1.14-1.6c0.18-0.16,0.37-0.33,0.54-0.5
				c-0.37,0.21-0.72,0.39-1.05,0.54c-0.41,0.23-0.86,0.48-1.33,0.73c-0.34,0.18-0.66,0.36-0.99,0.54
				C99.89,89.74,99.31,90.15,98.72,90.54z M96.43,86.12c-6.73,4.11-6.61,5.43-6.51,5.66l0.1,0.26c0.07,0.19,0.17,0.42,0.24,0.57
				c0.29-0.28,0.77-0.67,1.43-1.16c0.65-0.43,1.41-0.92,2.26-1.47c1.45-0.93,3.21-2.06,4.91-3.25c-0.84-0.17-1.6-0.36-2.3-0.57
				L96.43,86.12z M63.19,79.12c0.28,1.77,0.64,3.15,1.07,4.21c2.01,4.83,7.01,7.96,12.73,7.96c2.82,0,5.55-0.79,7.69-2.21
				c1.33-0.89,3.64-2.81,4.61-5.94c-0.41-0.21-0.82-0.42-1.23-0.63c-0.54,0.94-1.43,2.17-2.81,3.32l-0.16,0.14
				c-1.4,1.17-3.32,2.78-5.88,2.88h0c-0.98,0-1.63-0.57-1.94-1.7c-0.01,0.03-0.02,0.05-0.03,0.08c-0.27,0.71-0.84,1.15-1.79,1.41
				c-0.18,0.05-0.4,0.08-0.63,0.08c-2.2,0-6.04-2.58-7.17-3.37c-0.31-0.2-0.72-0.69-1.62-2.38l-0.06-0.11
				c-0.16-0.29-0.22-0.65-0.17-1.01c0-0.01,0-0.02,0-0.03c-0.17,0.04-0.33,0.06-0.46,0.06c-0.47,0-0.85-0.23-1.07-0.64
				c-0.12-0.21-0.53-1.33-0.85-2.22C63.35,79.04,63.27,79.08,63.19,79.12z M44.89,74.9c0.32,1.11,0.71,2.26,0.95,2.75
				c1.04,2.12,3.58,4.74,5.91,6.11c5.46,3.2,10.48,5.67,15.01,7.37c-1.72-1.38-3.33-3.31-4.46-6.01c-0.93-2.24-1.35-4.92-1.63-7.26
				c-0.18-0.46-0.29-0.99-0.35-1.63c-0.02-0.21-0.04-0.42-0.08-0.7c-0.14-0.42-0.2-0.92-0.23-1.19c-0.01-0.1-0.03-0.23-0.05-0.37
				c-0.07-0.44-0.09-0.9-0.07-1.34c-0.33,0.25-0.66,0.48-1,0.7c-2.43,1.55-5.51,2.4-8.67,2.4C48.42,75.72,46.6,75.44,44.89,74.9z
				 M78.59,84.33c0.02,0.19,0.04,0.3,0.06,0.36c0.06,0.22,0.06,0.43,0.06,0.67c0,1.21,0.19,1.3,0.49,1.3l0.03,0
				c2.02-0.08,3.71-1.5,4.95-2.53l0.17-0.14c0.32-0.27,0.62-0.55,0.9-0.84c-0.48,0.18-0.98,0.34-1.5,0.49l-0.38,0.1
				c-1,0.26-2.03,0.52-3.2,0.61c-0.21,0.02-0.43,0.02-0.65,0.02C79.22,84.36,78.9,84.35,78.59,84.33z M67.76,82.35
				c0.5,0.88,0.68,1.05,0.7,1.07c2.04,1.43,4.94,3.11,6.36,3.11c0.11,0,0.2-0.01,0.28-0.03c0.58-0.16,0.7-0.33,0.7-0.33c0,0,0,0,0,0
				c-0.02,0-0.03-0.09-0.05-0.24l-0.03-0.27c-0.04-0.3-0.09-0.86-0.17-1.56c-1.33-0.17-2.48-0.44-3.42-0.79
				c-1.03-0.36-2.02-0.89-3.08-1.65c-0.3,0.17-0.58,0.32-0.83,0.46C68.06,82.18,67.91,82.27,67.76,82.35z M92.2,84.51
				c-0.03,0.25-0.05,0.5-0.07,0.74c0.22-0.15,0.44-0.31,0.68-0.48C92.61,84.69,92.41,84.6,92.2,84.51z M27.18,2.84
				c-0.78,0-1.56,0.07-2.34,0.22c-1.31,0.26-12.89,2.81-14.37,12.57c0,0.05-0.01,0.15-0.06,0.37c-0.51,2.63-0.48,4.36,0.11,5.96
				c1.47,3.99,2.27,5.25,5,7.93c1.65,1.64,6.01,5.33,8.64,7.06c2.37,1.55,4.14,2.77,5.71,3.84c2.43,1.67,4.13,2.83,6.28,4.03
				c1.23,0.68,3.7,2.45,5.89,4.01c1.44,1.02,2.75,1.96,3.47,2.42c4.8,3.02,9.34,6.25,14.16,9.68c7.36,5.24,14.97,10.65,23.92,15.56
				l1.07,0.59c4.43,2.44,8.25,4.54,12.4,5.83c2.73,0.81,5.71,1.23,8.86,1.26c6.1-3.94,13.84-8.56,20.07-12.27l0.1-0.06
				c1.33-0.79,3.24-1.94,3.92-2.35c-0.04-0.24-0.08-0.49-0.14-0.74c-1.06-4.7-2.41-6.59-3.94-8.42c-1.31-1.59-2.88-3.05-4.66-4.35
				c-3.18-2.3-9.72-6.37-17.72-7.74c-0.72-0.12-1.55-0.18-2.47-0.18c-3.83,0-8.4,1.05-11.56,1.92l-0.07,0.02L89.28,50
				c-0.36,0-0.68-0.22-0.89-0.6c-0.45-0.81-0.89-1.62-1.33-2.44l-0.12-0.22c-6.23-11.45-12.68-23.3-29.36-23.3
				c-1.74,0-3.59,0.13-5.51,0.38l-0.11,0.01c-0.34,0-0.65-0.2-0.87-0.55C45.48,13.96,36.78,2.84,27.18,2.84z M67.46,75.77
				c0.1,0.09,0.2,0.21,0.32,0.34c0.32,0.37,0.53,0.75,0.66,1.01c0.15,0.28,0.23,0.41,0.4,0.56c1.03,0.86,2.27,1.82,3.87,2.38
				c1.27,0.47,2.94,0.77,5,0.88c0.21,0.01,0.44,0.02,0.67,0.04c0.39,0.02,0.77,0.04,1.15,0.04c0.17,0,0.35,0,0.52-0.02
				c1.01-0.08,1.97-0.32,2.89-0.56l0.37-0.09c0.17-0.05,0.34-0.1,0.51-0.15l-1.08-0.6c-2.47-1.36-4.99-2.84-7.71-4.53l-0.13,0
				C72.29,75.12,69.59,75.17,67.46,75.77z M64.81,77.73c0.25,0.71,0.55,1.51,0.71,1.93c0.19-0.05,0.52-0.17,1.09-0.49
				c-0.09-0.17-0.17-0.3-0.28-0.43c-0.16-0.19-0.25-0.25-0.38-0.35c-0.24-0.18-0.53-0.39-0.86-0.96
				C64.99,77.53,64.9,77.63,64.81,77.73z M20.42,62.69c5.24,4.36,10.79,9.32,12.85,11.95c0.28,0.36,0.53,0.7,0.76,1
				c0.28,0.37,0.64,0.85,0.88,1.12c0.11-0.18,0.27-0.5,0.5-1.06c0.37-0.88,1.4-2.39,3.14-4.61c-1.27-1.28-2.29-2.78-3.02-4.46
				c-0.01-0.03-0.02-0.05-0.03-0.08C30.69,65.94,25.63,64.65,20.42,62.69z M66.71,69.6c-3.23,0.82-4.74,2.04-4.51,3.6
				c0.03,0.19,0.05,0.35,0.06,0.49c0.02,0.16,0.04,0.34,0.06,0.39l0.18,0.15l-0.05,0.16c0,0.13,0,0.18,0.01,0.24
				c0.07,0.48,0.11,0.84,0.13,1.1c0,0.05,0.01,0.09,0.01,0.14c0.15-0.13,0.46-0.46,0.72-0.73c0.85-0.89,2.01-2.12,3.37-2.55
				c0.97-0.3,2.1-0.51,3.49-0.64C69.03,71.18,67.87,70.4,66.71,69.6z M36.21,59.55c0.25,1.8,0.6,3.73,1.26,5.24
				c2,4.61,7,7.59,12.75,7.59c2.83,0,5.57-0.75,7.7-2.11c1.02-0.65,2.46-1.78,3.54-3.46c0.08-0.23,0.17-0.46,0.27-0.69l-1.23-0.87
				c-0.59,0.75-1.27,1.44-2.03,2.04l-0.14,0.11c-1.4,1.12-3.32,2.67-5.89,2.77h0c-0.73,0-1.56-0.33-1.94-1.66
				c-0.01,0.02-0.01,0.04-0.02,0.05c-0.26,0.71-0.84,1.17-1.82,1.43c-0.18,0.05-0.39,0.08-0.61,0.08c-2.07,0-5.69-2.26-7.15-3.23
				c-0.42-0.28-0.91-1.03-1.56-2.14c-0.05-0.09-0.08-0.15-0.1-0.18c-0.19-0.34-0.26-0.69-0.21-1.05c-0.17,0.04-0.32,0.06-0.46,0.06
				c-0.47,0-0.83-0.21-1.06-0.62C37.33,62.59,36.5,60.43,36.21,59.55z M51.87,66.16c0.06,0.2,0.06,0.41,0.06,0.64
				c0,1.19,0.22,1.19,0.49,1.19l0.04,0c2.04-0.08,3.75-1.45,4.99-2.44c0,0,0.3-0.24,0.38-0.3c-0.24,0.08-0.47,0.15-0.72,0.22
				l-0.38,0.1c-1,0.26-2.03,0.52-3.22,0.61c-0.21,0.02-0.42,0.02-0.64,0.02C52.53,66.2,52.2,66.18,51.87,66.16z M41.02,63.97
				c0.47,0.78,0.63,0.92,0.65,0.93c2.77,1.84,5.21,2.99,6.36,2.99c0.11,0,0.2-0.01,0.27-0.03c0.42-0.11,0.6-0.23,0.67-0.29
				c-0.01-0.05-0.06-0.43-0.06-0.43c-0.03-0.24-0.07-0.67-0.13-1.23c-1.29-0.17-2.41-0.44-3.33-0.78c-1.09-0.38-2.11-0.93-3.26-1.77
				c-0.27,0.15-0.52,0.28-0.76,0.39C41.3,63.83,41.15,63.9,41.02,63.97z M11.14,48.54c0.06,0.47,0.15,0.9,0.26,1.31
				c0.24,0.94,0.89,2.87,1.23,3.47c0.91,1.62,2.79,3.86,5.09,4.83c5.73,2.44,11.35,4.08,16.72,4.89c-0.34-1.63-0.55-3.26-0.7-4.49
				l-0.08-0.6c-0.14-1.15-0.18-2.35-0.1-3.58c-0.04-0.26-0.08-0.52-0.1-0.78c-0.08,1.12-0.42,2.21-0.6,2.62
				c-0.24,0.58-0.93,1.46-1.8,1.46c-0.52,0-1.38-0.3-1.76-2.19c-0.03,0.01-0.07,0.02-0.1,0.03c-1.12,0.34-2.33,0.51-3.61,0.51
				C21.04,56.02,14.87,53.67,11.14,48.54z M44.32,61.09c0.58,0.35,1.14,0.61,1.73,0.81c1.26,0.48,2.93,0.77,4.98,0.88
				c0.21,0.01,0.44,0.02,0.67,0.04c0.4,0.02,0.77,0.05,1.14,0.05c0.17,0,0.35,0,0.52-0.02c1.03-0.08,1.98-0.32,2.9-0.56l0.03-0.01
				c-0.75-0.53-1.5-1.06-2.24-1.58c-1.66-0.38-3.24-0.74-4.74-1.07l-0.3,0.1C47.45,60.28,45.83,60.85,44.32,61.09z M37.4,57.34
				c0.07,0.41,0.15,0.78,0.26,1.12c0.12,0.42,0.78,2.15,1.07,2.86c0.2-0.05,0.54-0.17,1.13-0.48c-0.06-0.1-0.11-0.19-0.19-0.27
				c-0.16-0.18-0.26-0.26-0.39-0.35c-0.25-0.18-0.59-0.43-0.99-1.19c-0.3-0.58-0.43-1.17-0.52-1.65
				C37.64,57.37,37.52,57.36,37.4,57.34z M40.63,56.97c0.54,0.61,1.29,0.89,2.31,0.89c1.49,0,3.35-0.62,5.17-1.25
				c-0.96-0.64-1.92-1.27-2.9-1.89c-0.38,0.18-0.68,0.35-0.94,0.55C43.28,56.02,42.06,56.59,40.63,56.97z M3.8,50.28
				c1.43,0.67,4.31,2.74,6.73,4.56c-0.52-1.17-1.07-2.93-1.28-3.74c-0.25-0.94-0.41-1.98-0.49-3.09c-0.02-0.1-0.03-0.26-0.04-0.42
				c-0.05-1.12-0.01-2.28,0.13-3.46l-0.04-0.1c-0.05-0.13-0.09-0.25-0.13-0.38c-0.13-0.42-0.24-0.87-0.34-1.36
				c-1.29,1.8-2.41,3.58-3.36,5.32c-0.47,0.86-0.88,1.64-1.24,2.4C3.77,50.1,3.78,50.19,3.8,50.28z M35.95,53.85
				c0.78,0.05,1.76,0.17,2.97,0.35c0.22-0.19,0.48-0.32,0.76-0.38c1.02-0.23,1.93-0.57,2.71-1c-0.44-0.31-2.62-1.86-2.62-1.86
				c-0.48-0.03-0.94-0.05-1.37-0.05c-1.82,0-2.41,0.34-2.6,0.54c-0.09,0.1-0.13,0.21-0.13,0.35l0.02,0.5
				c0.02,0.59,0.05,1.25,0.17,1.5l0.02,0.05C35.9,53.84,35.92,53.85,35.95,53.85z M10.21,38.53c0.07,1.27,0.23,2.59,0.57,3.71
				c1.97,6.54,9.08,10.44,14.81,10.44c1.11,0,2.15-0.15,3.1-0.44c0.15-0.05,0.3-0.1,0.45-0.16c0.01-0.38,0.02-0.86,0.02-1.12
				c-0.09-0.22-0.22-0.44-0.35-0.62c-0.11,0.05-0.23,0.1-0.35,0.15c-0.07,0.19-0.16,0.35-0.28,0.48c-0.37,0.43-1.13,1.14-2.11,1.14
				c-0.5,0-0.97-0.18-1.4-0.54c-0.14-0.11-0.28-0.25-0.41-0.42c-0.19-0.03-0.38-0.06-0.57-0.11c-0.69-0.17-1.21-0.64-1.48-1.34
				c-0.05-0.13-0.09-0.27-0.13-0.43c-0.03,0-0.06,0-0.08-0.01c-0.44,0.56-1.13,0.63-1.64,0.63c-1.39-0.03-3.65-1.62-6.82-4.72
				c-0.14-0.13-0.48-0.46-1.28-2.51c-0.12-0.29-0.16-0.62-0.1-0.93c-0.36-0.02-1-0.14-1.29-0.85
				C10.76,40.65,10.45,39.47,10.21,38.53z M29.82,47.23c0.85,0.77,1.35,2.1,1.42,2.31c0.07,0.2,0.11,0.41,0.14,0.65
				c0.12-0.53,0.27-1.02,0.46-1.43c0.45-0.97,1-1.17,1.38-1.17c0.07,0,0.19,0.02,0.26,0.03c0.06,0.02,0.1,0.02,0.14,0.02
				c0.19,0,0.41-0.11,0.64-0.3c-0.18-0.1-0.35-0.21-0.52-0.31c-1.08,0.24-1.77,0.36-2.23,0.39c-0.09,0-0.16,0.01-0.25,0.01
				C30.8,47.43,30.32,47.35,29.82,47.23z M19.42,44.16c0.41,0.49,0.91,1.01,1.52,1.44c0.27,0.19,1.37,0.35,1.89,0.42
				c1.2,0.18,1.8,0.27,2.19,0.91c0.19,0.3,0.31,0.67,0.41,0.96c0.14,0.4,0.22,0.64,0.38,0.76c0.08,0.06,0.15,0.09,0.23,0.09
				c0.18,0,0.38-0.12,0.52-0.24c0.5-1.23,1.12-1.67,1.63-1.8c-0.34-0.13-0.68-0.26-1.03-0.4c-0.35-0.14-0.64-0.25-0.93-0.36
				c-1.91-0.39-3.95-0.98-5.59-1.45C20.21,44.39,19.8,44.27,19.42,44.16z M2.07,47.64c0.17-0.36,0.36-0.72,0.55-1.09
				c-0.03,0.02-0.07,0.03-0.1,0.05c-0.3,0.12-0.46,0.23-0.54,0.29C1.99,47,2.06,47.51,2.07,47.64z M16.62,45.37
				c0.23,0.2,0.45,0.39,0.67,0.56c-0.03-0.04-0.07-0.09-0.1-0.13c-0.11-0.14-0.22-0.3-0.31-0.41C16.8,45.39,16.71,45.38,16.62,45.37
				z M2.09,42.9c0.12,0.09,0.25,0.17,0.31,0.22c0.37,0.24,1.05,0.69,1,1.91c0,0.03,0,0.05,0,0.08c1.25-2.24,2.76-4.54,4.5-6.83
				C7.87,37.63,7.86,37,7.85,36.42c-0.73-0.39-1.26-0.73-1.69-1.08c-0.52-0.09-0.93-0.36-1.25-0.8c0,0.18,0.09,0.36,0.27,0.73
				c0.21,0.43,0.27,0.99,0.17,1.51c-0.13,0.61-0.46,1.04-0.91,1.14c-0.48,0.11-0.86,0.26-1.17,0.46c-0.71,0.44-1.04,0.83-1.18,1.07
				C2.35,40.06,2.71,41.26,2.09,42.9z M17.44,40.43c0.28,0,0.68,0.04,1.2,0.13c0.7,0.17,1.53,0.41,2.48,0.68
				c1.63,0.47,3.67,1.05,5.61,1.45c0.41,0.15,0.74,0.28,1.07,0.41c0.02,0.01,0.04,0.01,0.05,0.02c-1.33-0.91-2.82-1.92-4.67-3.13
				c-0.47-0.31-0.99-0.68-1.54-1.09c-1.23-0.3-2.23-0.46-2.95-0.46c-1.28,0-1.3,0.43-1.3,0.59l-0.02,0.42
				c-0.02,0.35-0.04,0.82,0.01,0.97C17.4,40.43,17.42,40.43,17.44,40.43z M13.85,38.84c0.19,0.48,0.62,1.41,1.26,2.15
				c-0.08-0.64-0.05-1.28-0.03-1.77l0.02-0.37c0.08-2.15,1.05-3.1,2.11-3.48c-0.55-0.47-1.07-0.93-1.54-1.34
				c-0.62,0.01-1.19,0.04-1.71,0.09c0.35,0.61,0.75,1.47,0.72,2.54C14.64,37.79,14.15,38.45,13.85,38.84z M11.42,34.55
				c-0.05,0.8-0.01,1.58,0.12,2.29c0.02,0.11,0.07,0.32,0.14,0.59c0.13-0.36,0.33-0.7,0.58-1.04c-0.03-0.06-0.07-0.13-0.12-0.2
				c-0.32-0.51-0.53-1.06-0.62-1.66C11.49,34.54,11.45,34.55,11.42,34.55z M6.51,32.04c0.04,0,0.1,0.01,0.17,0.01
				c0.5,0,1.28-0.15,1.85-0.26c0.33-0.06,0.59-0.11,0.72-0.12c0.23-0.01,0.57-0.1,1.01-0.21c0.56-0.15,1.31-0.34,2.3-0.51
				c-0.74-0.83-1.3-1.58-1.79-2.38c-3.36,0.37-4.19,0.98-4.39,1.24c-0.08,0.1-0.09,0.17-0.08,0.23C6.31,30.46,6.43,31.61,6.51,32.04
				z M7.62,21.92c-1.47,0-1.67,0.65-1.67,1.29c0,0.19,0,0.35-0.01,0.49c-0.01,0.28-0.01,0.4,0.02,0.44
				c0.16,0.33,0.39,0.41,0.77,0.53c0.11,0.04,0.23,0.07,0.33,0.11c0.22,0.08,0.55,0.12,1.01,0.18C8.36,25,8.7,25.04,9.1,25.1
				c-0.18-0.46-0.37-0.96-0.57-1.5c-0.2-0.54-0.35-1.08-0.47-1.67C7.9,21.92,7.76,21.92,7.62,21.92z"/>
		</g>
		<g>
			<path class="st0" d="M115.36,89.17c-0.68,0-1.47-0.45-2.38-0.97c-0.71-0.41-1.45-0.83-2.08-0.99c-0.57-0.16-1.16-0.79-1.12-1.39
				c0.01-0.17,0.1-0.73,0.91-0.86l0.1-0.02l0.67,0.18c2.85,0.74,5.05,1.4,5.27,2.56c0.06,0.32-0.01,0.8-0.68,1.27
				C115.86,89.1,115.62,89.17,115.36,89.17z"/>
		</g>
	</g>
</g>
</svg>
