<?xml version="1.0" encoding="utf-8"?>
<!-- Generator: Adobe Illustrator 25.2.3, SVG Export Plug-In . SVG Version: 6.00 Build 0)  -->
<svg version="1.1" id="Layer_1" xmlns="http://www.w3.org/2000/svg" xmlns:xlink="http://www.w3.org/1999/xlink" x="0px" y="0px"
	 viewBox="0 0 1199.37 1032.15" style="enable-background:new 0 0 1199.37 1032.15;" xml:space="preserve">
<style type="text/css">
	.st0{fill:#333230;}
</style>
<path class="st0" d="M649.63,1.66c8.5-2.35,17.77-2.4,25.97,1.08c15.24,6.23,27.82,17.26,40.02,28.03
	c13.34,11.98,25.92,24.79,39.47,36.53c6.53,5.58,13.27,11.05,20.91,15.06c8.29,4.19,17.63,5.59,26.77,6.62
	c27.65,2.71,55.58,0.25,83.19,3.65c11.89,1.67,24.78,4.26,33.48,13.25c9.4,9.89,14.68,22.79,19.47,35.36
	c8.01,21.8,13.26,44.48,21.05,66.35c4.12,11.44,9.14,23.17,18.64,31.23c16.81,14.88,37.04,25.07,56.04,36.8
	c12.13,7.43,24.35,15.02,34.71,24.87c13.32-2.23,27.11-3.19,40.34,0.24c31.34,7.36,56.67,32.18,68.45,61.67
	c3.83,9.43,6.36,19.36,7.68,29.45c4.01,29.6,8,59.2,12.01,88.81c4.35,26.76-0.45,55.26-15.05,78.29
	c-9.95,15.88-24.58,29.01-41.96,36.21c-10.2,4.55-21.37,5.84-32.33,7.25c-18.23,29.09-45.65,50.66-66.65,77.53
	c-5.51,7.03-10.25,14.88-12.13,23.71c-4.3,18.73-3.66,38.09-4.13,57.17c-0.22,14.95-0.33,29.99-2.65,44.81
	c-1.39,8.4-3.44,16.97-8.18,24.18c-5.21,7.61-13.23,12.68-21.27,16.87c-16.27,8.17-33.86,13.2-51.23,18.42
	c-16.64,5.05-33.63,9.42-49.32,17.07c-12.24,5.79-20.62,16.94-28.12,27.79c-11.85,17.46-21.66,36.2-33.3,53.79
	c-7.14,10.56-14.72,21.31-25.27,28.75c-10.01,7.04-22.9,7.24-34.64,6.45c-29.95-2.61-58.54-12.67-88.08-17.66
	c-9.9-1.58-20.21-2.79-30.01,0.02c-15.91,4.42-30.33,12.73-44.72,20.61c-16.53,9.11-32.8,18.96-50.52,25.65
	c-10.49,3.87-22.36,6.68-33.22,2.52c-14.06-5.24-25.62-15.24-36.75-25.01c-15.13-13.55-29.08-28.38-44.65-41.45
	c-8.44-6.95-17.57-13.75-28.4-16.3c-13.94-3.39-28.39-3.61-42.66-3.98c-20.64-0.47-41.42,0.11-61.88-3.1
	c-10.67-1.84-21.94-4.76-29.83-12.65c-7.81-7.9-12.75-18.08-17.06-28.19c-7.55-18.22-12.69-37.29-18.62-56.07
	c-4.54-13.86-8.73-28.16-16.76-40.49c-7.96-11.06-19.65-18.6-30.88-25.97c-21.91-14.04-45.56-25.62-65.55-42.49
	c-8.75,1.24-17.54,2.86-26.42,2.32c-20.11-0.79-39.54-9.19-54.7-22.26c-20.22-17.27-33.16-42.33-36.96-68.53
	c-4.36-31.75-8.62-63.51-12.9-95.26c-3.19-23.78,1.01-48.65,12.75-69.65c9.17-16.53,23.14-30.58,40.21-38.89
	c10.63-5.39,22.46-7.75,34.24-8.88c9.44-15.94,22.43-29.32,35.15-42.64c12.83-13.57,26.56-26.56,36.9-42.22
	c5.54-8.15,7.96-17.91,9.11-27.57c3.69-30.97,0.1-62.41,5.11-93.26c1.56-8.66,3.85-17.49,9-24.77c5.31-7.23,13.1-12.1,20.93-16.2
	c29.42-14.63,62.2-20.26,92.53-32.55c7.82-3.25,15.62-7.1,21.64-13.19c9.39-9.29,16.49-20.53,23.45-31.66
	c11.59-18.65,21.85-38.25,35.63-55.43c6.69-8.1,14.61-16.15,25.07-18.98c11.08-2.91,22.72-1.98,33.95-0.5
	c24.68,3.5,48.55,10.94,72.99,15.63c12.32,2.25,25.33,4.34,37.54,0.33c19.1-5.98,36.21-16.67,53.66-26.22
	C616.56,15.43,632.25,6.3,649.63,1.66 M436.17,104.09c-47.2,18.61-91.14,45.45-129.25,78.94
	c-71.03,62.12-121.57,147.34-141.3,239.67c61.05-8.21,122.09-16.52,183.15-24.74c29.18-61.44,81.69-111.41,144.72-137.09
	c42.25-17.41,88.82-24.16,134.28-19.6c39.59,3.95,78.25,16.64,112.53,36.83c25.99,15.25,49.45,34.79,69.21,57.54
	c61.35-8.34,122.73-16.53,184.07-24.95c-22.8-43.63-53-83.36-88.89-117.05c-57.34-54.06-129.29-92.49-206.18-109.83
	C611.67,63.99,518.97,71.4,436.17,104.09 M493.56,270.67c-57.59,24.44-105.82,69.91-133.9,125.79
	c146.33-19.77,292.65-39.56,438.97-59.36c-43.16-47.83-104.02-79.24-168.07-86.42C584.19,245.34,536.47,252.28,493.56,270.67
	 M1083.8,341.4c-9.77,32.12-19.43,64.28-29.16,96.41c-4.1-30.26-8.2-60.52-12.28-90.78c-9.2,1.21-18.39,2.49-27.59,3.72
	c10.01,74.2,20.07,148.39,30.09,222.6c9.2-1.21,18.38-2.5,27.58-3.71c-4.2-31.44-8.51-62.87-12.73-94.32
	c19.18,29.44,38.08,59.06,57.43,88.36c12.57-1.92,25.2-3.43,37.79-5.21c-24.01-36.51-48.06-72.99-72.09-109.5
	c11.47-37.35,22.92-74.71,34.38-112.06C1106.07,338.38,1094.94,339.94,1083.8,341.4 M935.7,361.37
	c-6.32,76.41-12.48,152.82-18.73,229.23c9.88-1.33,19.76-2.67,29.64-4c0.98-15.24,1.93-30.48,2.93-45.72
	c15.31-2.08,30.62-4.15,45.93-6.22c5.01,14.43,9.96,28.88,14.97,43.31c9.88-1.35,19.76-2.67,29.64-4.02
	c-26.33-72.01-52.54-144.06-78.96-216.03C952.65,359.13,944.17,360.24,935.7,361.37 M814.97,377.88
	c10.17,74.14,20.07,148.32,30.14,222.47c23.07-3.1,46.13-6.22,69.19-9.35c-2-14.85-4.01-29.7-6.02-44.54
	c-13.87,1.83-27.73,3.74-41.6,5.61c-2.01-14.92-4.05-29.83-6.04-44.74c13.28-1.78,26.55-3.59,39.82-5.38
	c-1.98-14.86-4.01-29.71-6.01-44.56c-13.28,1.79-26.56,3.59-39.84,5.38c-1.99-14.73-4.01-29.46-5.96-44.2
	c13.85-1.86,27.71-3.74,41.57-5.61c-1.99-14.86-4-29.71-6.02-44.57C861.13,371.6,838,374.47,814.97,377.88 M719.9,390.54
	c2.01,14.85,3.99,29.71,6.04,44.56c9.56-1.31,19.12-2.59,28.69-3.88c8.03,59.34,16.05,118.69,24.08,178.04
	c9.19-1.24,18.38-2.5,27.58-3.72c-8-59.36-16.05-118.7-24.07-178.05c9.57-1.31,19.14-2.59,28.71-3.89
	c-2-14.86-4.02-29.71-6.03-44.56C776.57,382.87,748.23,386.69,719.9,390.54 M662.13,397.31c-10.18,7.58-15.46,19.93-18.13,32
	c-3.39,16.53-2.63,33.91,1.88,50.17c4.77,16.59,14.74,32.08,29.34,41.63c8.35,5.92,17.82,10.59,24.69,18.36
	c5.63,6.32,7.12,15.26,6.29,23.45c-0.47,4.36-2.34,8.84-6.07,11.39c-5.06,3.35-11.88,4.06-17.4,1.39
	c-9.55-4.35-17.2-11.87-24.21-19.51c-2.67,14.85-5.34,29.7-8.02,44.55c8.67,10.16,19.89,18.64,32.91,22.18
	c13.61,3.72,29.34,0.23,39.26-10.05c10.99-11.33,14.25-27.79,14.62-43.05c0.04-14.84-1.14-30.07-6.84-43.92
	c-6.44-15.81-18.11-29.59-33.09-37.9c-8.69-5.29-18.2-10.24-24.19-18.76c-4.18-6.21-4.61-14.4-2.65-21.46
	c1.56-5.71,7.27-9.6,13.13-9.32c9.42,0.38,17.49,6.22,24.34,12.19c1.87-14.01,3.78-28.01,5.66-42.02
	c-8.81-8.28-19.9-14.81-32.1-16.1C674.78,391.77,667.62,393.11,662.13,397.31 M544.26,414.26c10.11,74.21,19.93,148.47,30.22,222.65
	c23.01-3.26,46.05-6.25,69.07-9.4c-2-14.86-4-29.72-6.03-44.57c-13.87,1.86-27.74,3.77-41.61,5.61c-1.97-14.91-4.03-29.8-6.02-44.71
	c13.27-1.81,26.56-3.58,39.83-5.4c-2-14.85-4.02-29.7-6.02-44.55c-13.28,1.78-26.56,3.59-39.84,5.38
	c-2.01-14.72-3.97-29.45-5.99-44.17c13.86-1.9,27.71-3.78,41.58-5.62c-1.93-14.86-4.03-29.71-5.98-44.57
	C590.4,407.99,567.33,411.13,544.26,414.26 M467.74,434.87c-8.63,15.32-10.35,33.58-8.81,50.83c1.58,19.19,8.88,38.4,22.66,52.15
	c10.06,10.29,24.18,15.41,34.12,25.83c6.34,6.59,8.04,16.34,6.86,25.14c-0.59,4.19-2.62,8.4-6.3,10.73
	c-5.14,3.22-11.91,3.75-17.37,1.01c-9.4-4.41-16.96-11.82-23.88-19.38c-2.67,14.86-5.35,29.71-8.02,44.57
	c8.13,9.52,18.46,17.51,30.45,21.44c11.41,3.79,24.52,2.63,34.79-3.75c9.54-5.85,15.61-16.04,18.51-26.64
	c4.14-15.01,3.54-30.87,1.49-46.17c-2.56-19.08-12.15-37.21-26.88-49.67c-7.1-6.21-15.85-10.02-23.52-15.41
	c-6.42-4.41-13.03-9.87-15.08-17.73c-1.31-6.2-1.46-13.27,2.07-18.79c3.1-4.83,9.47-6.39,14.84-5.21
	c7.99,1.63,14.82,6.54,20.82,11.84c1.88-14.01,3.77-28.02,5.67-42.03c-10.31-9.66-23.98-17.18-38.49-16.16
	C481.1,418.06,472.7,426.07,467.74,434.87 M360.77,439.25c10.02,74.2,20.06,148.4,30.1,222.6c23.06-3.1,46.12-6.24,69.18-9.34
	c-1.98-14.86-4.02-29.7-6.02-44.56c-13.87,1.84-27.73,3.75-41.6,5.61c-2.01-14.91-4.04-29.81-6.04-44.72
	c13.26-1.79,26.53-3.61,39.8-5.37c-1.93-14.87-4.01-29.72-5.98-44.58c-13.29,1.78-26.57,3.6-39.85,5.38
	c-1.99-14.73-4-29.46-5.97-44.19c13.86-1.87,27.72-3.75,41.58-5.62c-1.98-14.85-4.02-29.7-6.01-44.55
	C406.9,432.99,383.84,436.14,360.77,439.25 M275.77,450.5c10.01,74.2,20.07,148.4,30.09,222.6c23.07-3.09,46.13-6.24,69.2-9.34
	c-2.01-14.86-4.01-29.71-6.03-44.56c-13.87,1.85-27.73,3.75-41.6,5.61c-2.02-14.91-4.04-29.82-6.04-44.73
	c13.27-1.78,26.55-3.59,39.82-5.37c-1.98-14.86-4.01-29.72-6.01-44.57c-13.29,1.78-26.57,3.6-39.85,5.37
	c-1.98-14.72-3.98-29.44-5.97-44.16c13.86-1.92,27.73-3.75,41.6-5.65c-2.01-14.85-4.02-29.7-6.03-44.55
	C321.89,444.25,298.83,447.39,275.77,450.5 M230.77,456.76c3.97,29.58,8.01,59.16,11.99,88.75c-12.97,1.75-25.94,3.52-38.91,5.26
	c-3.99-29.59-7.99-59.17-12-88.75c-9.2,1.24-18.39,2.49-27.58,3.73c10.02,74.2,20.06,148.4,30.1,222.6
	c9.2-1.22,18.39-2.48,27.59-3.72c-4.02-29.77-8.06-59.53-12.07-89.3c12.97-1.74,25.93-3.52,38.91-5.24
	c4.01,29.75,8.05,59.5,12.06,89.26c9.2-1.2,18.38-2.49,27.58-3.7c-9.98-74.21-20.07-148.4-30.07-222.61
	C249.16,454.25,239.97,455.52,230.77,456.76 M109.08,469.49c-12.23,3.36-21.7,12.85-28.38,23.26
	c-10.77,17.02-15.9,37.03-17.92,56.91c-3.13,34.12,2.74,69.29,18.01,100.05c7.76,15.28,17.99,29.77,31.95,39.97
	c9.37,6.84,21.14,11.39,32.87,9.48c15.26-2.16,28.7-12.31,36.1-25.65c-5.77-13.94-11.76-27.79-17.54-41.72
	c-3.37,5.59-7.76,10.77-13.49,14.04c-6.97,4.05-15.79,4.08-23.19,1.19c-9.76-3.88-16.85-12.34-21.92-21.26
	c-9.71-17.6-13.82-38.06-12.88-58.07c0.76-12.84,3.43-26.14,10.98-36.82c5.58-8.01,15.07-13.45,24.95-13.08
	c8.28,0.48,15.73,5.07,21.56,10.72c1.94-14.95,3.9-29.88,5.89-44.82C144.21,471.38,125.82,465.15,109.08,469.49 M848.25,637.58
	c-26.07,52.91-69.43,97.12-121.98,123.96c-55.46,28.61-120.7,37.68-181.87,25.37c-58.63-11.6-113.07-42.9-152.74-87.57
	c-61.35,8.29-122.69,16.59-184.04,24.88c34.62,65.51,86.37,121.7,148.31,162.27c41.81,27.44,88.29,47.77,136.85,59.75
	c83.51,20.72,172.97,16.13,254.14-12.26c66.63-23.2,127.44-62.75,175.79-114.1c54.45-57.6,93.35-129.9,110.54-207.33
	C971.59,620.93,909.91,629.24,848.25,637.58 M402.64,697.81c18.8,20.28,40.85,37.52,64.95,51.07
	c52.12,29.5,114.32,40.58,173.44,31.01c48.5-7.51,94.79-28.69,132.12-60.56c26.27-22.31,48.14-49.74,64.14-80.26
	C692.4,658.63,547.53,678.3,402.64,697.81 M586.29,99.47c5.97-0.19,11.94-0.39,17.91-0.55c1.09,37.7,2.23,75.4,3.3,113.11
	c-5.97,0.17-11.93,0.36-17.89,0.54C588.49,174.87,587.39,137.17,586.29,99.47 M638.14,100.48c7.28-1.84,15.19-1.2,22.17,1.57
	c6.07,2.41,10.94,7.58,12.86,13.84c1.58,4.8,1.72,9.95,1.23,14.94c-1.69,17.04-3.36,34.08-5.05,51.13c-0.7,8.48-1.4,17.67-7,24.55
	c-5.26,6.82-14.42,9.22-22.69,8.42c-8.15-0.5-16.81-3.74-21.32-10.92c-4.67-7.17-4.45-16.16-3.39-24.31
	c1.78-17.98,3.55-35.96,5.32-53.95C620.85,114.93,626.85,103.18,638.14,100.48 M643.94,116.21c-4.24,1.53-5.45,6.44-5.76,10.46
	c-1.87,19.04-3.74,38.08-5.64,57.12c-0.34,3.66-1,7.67,0.88,11.06c2.25,3.88,7.58,4.65,11.57,3.45c3.91-1.38,5.35-5.81,5.68-9.57
	c2.03-20.33,4.02-40.66,6.03-60.99c0.35-3.54,0.1-7.78-2.93-10.16C651,115.57,647.16,115.19,643.94,116.21 M524.25,111.47
	c5.66-6.69,14.85-9.03,23.29-9.14c7.42-0.17,15.02,3.16,19.18,9.44c5.36,7.55,5.71,17.09,7.25,25.89
	c-5.58,0.87-11.16,1.75-16.74,2.61c-1.23-5.83-1.1-12.08-3.62-17.56c-2.55-5.21-9.94-5.17-14.06-1.98
	c-2.97,2.46-3.09,6.72-2.53,10.23c3.16,20.28,6.34,40.56,9.54,60.84c0.54,3.62,2.18,7.83,6.04,8.95c3.15,0.79,6.71,0.25,9.42-1.58
	c2.88-2.06,3.37-5.97,2.95-9.24c-0.78-5.77-1.8-11.5-2.65-17.25c5.57-0.89,11.15-1.75,16.74-2.62c1.23,10.45,4.91,21.26,1.39,31.64
	c-2.3,7.15-8.7,12.33-15.81,14.27c-8.98,2.67-19.93,2.68-27.2-4.02c-6.74-6.14-8.55-15.54-9.67-24.17
	c-2.77-17.69-5.55-35.38-8.31-53.07C518.21,126.78,518.88,117.84,524.25,111.47 M673.98,190.88c7.81-27.89,15.67-55.78,23.51-83.67
	c5.75,1.57,11.5,3.15,17.26,4.74c-7.87,28.01-15.75,56.01-23.62,84.02c-0.87,3.18-1.47,6.95,0.57,9.83
	c3.84,4.91,13.23,5.45,15.81-1.05c3.62-9.85,5.83-20.19,8.88-30.24c5.41-19.22,10.8-38.45,16.22-57.66
	c5.44,1.49,10.88,2.97,16.32,4.49c-6.87,24.38-13.72,48.77-20.58,73.16c-2.45,8.29-3.99,17.34-9.92,24.02
	c-4.75,5.7-12.48,8.29-19.75,7.44c-8.53-0.96-17.61-4.29-22.57-11.69C671.53,207.4,671.87,198.54,673.98,190.88 M479.96,118.32
	c5.73-1.67,11.47-3.31,17.2-4.97c10.58,36.21,21.09,72.44,31.66,108.65c-5.74,1.68-11.48,3.32-17.22,4.97
	C501.05,190.76,490.5,154.54,479.96,118.32 M422.42,140.53c5.56-2.24,10.98-4.83,16.64-6.81c12.47,29.79,25.17,59.48,37.75,89.22
	c9.06-3.76,18.09-7.61,27.17-11.34c2.09,4.95,4.18,9.91,6.31,14.86c-14.55,6.14-29.13,12.2-43.69,18.31
	C451.87,210.02,437.14,175.28,422.42,140.53 M762.78,141.95c5.31-5.76,13.68-8.31,21.3-6.42c9.17,2.21,18.73,7.67,21.97,17.05
	c2.92,8.71-0.39,17.89-4.4,25.66c-5.11-2.39-10.22-4.75-15.31-7.17c1.74-3.86,4.3-7.78,3.8-12.2c-0.71-4.4-5.5-6.84-9.58-6.98
	c-4.74,0.26-7.38,4.95-8.99,8.84c-2.78,6.71-1.22,14.19,1.27,20.72c3.56,9.55,8.51,18.91,8.88,29.31
	c0.41,10.14-3.77,20.18-10.44,27.7c-4.84,5.46-12.34,8.5-19.61,7.39c-7.51-1.1-14.8-4.58-20.13-10.02
	c-4.35-4.51-6.37-10.99-5.66-17.18c0.55-6.89,3.89-13.06,6.81-19.17c5.11,2.38,10.21,4.76,15.31,7.16
	c-1.71,3.99-4.18,7.73-5.07,12.03c-1.98,7.92,10.12,13.76,15.3,7.73c4.74-5.27,6.13-12.96,4.51-19.75
	c-2.68-11.55-9.63-21.83-10.8-33.79C750.64,161.61,755.16,150.15,762.78,141.95 M362.73,174.97c13.83-8.56,27.71-17.03,41.57-25.54
	c2.86,4.57,5.7,9.16,8.56,13.73c-8.74,5.42-17.53,10.78-26.3,16.16c5.53,8.94,11.1,17.86,16.68,26.78
	c6.97-4.27,13.93-8.57,20.91-12.82c2.84,4.58,5.71,9.15,8.55,13.74c-6.96,4.3-13.95,8.55-20.9,12.85
	c5.84,9.38,11.67,18.77,17.53,28.13c8.77-5.37,17.54-10.77,26.31-16.14c2.86,4.58,5.72,9.17,8.57,13.75
	c-13.86,8.51-27.71,17.02-41.57,25.52C402.65,239.08,382.72,207.01,362.73,174.97 M322.33,207.48c5.62-5.22,12.22-10.38,20.23-10.72
	c8.43-0.45,15.87,4.77,21.27,10.78c12.89,14.46,25.75,28.94,38.62,43.42c4.84,5.45,8.97,12.24,8.82,19.77
	c-0.12,7.17-4.45,13.47-9.63,18.09c-7.28,6.42-14.6,12.8-21.91,19.18c-25.13-28.26-50.28-56.51-75.38-84.79
	C310.34,217.96,316.33,212.72,322.33,207.48 M328.6,223.67c18.01,20.08,35.85,40.31,53.81,60.43c3.18-3,6.87-5.51,9.65-8.91
	c2.78-3.72,0.54-8.57-2.26-11.55c-13.34-15.01-26.67-30.03-40.04-45c-2.63-3.03-7.05-5.68-11.01-3.48
	C334.99,217.49,331.89,220.75,328.6,223.67 M565.05,262.53c2.97,3.9,5.86,7.88,8.81,11.82c4.9,0.25,9.81,0.56,14.72,0.81
	c-2.85,3.96-5.6,7.98-8.53,11.88c1.13,4.83,2.53,9.59,3.75,14.41c-4.7-1.48-9.39-2.97-14.09-4.42c-4.12,2.67-8.25,5.34-12.38,7.99
	c-0.05-4.93-0.08-9.85-0.16-14.77c-3.81-3.1-7.63-6.19-11.41-9.32c4.69-1.56,9.39-3.07,14.04-4.76
	C561.49,271.6,563.31,267.08,565.05,262.53 M726.49,299.62c2.75,2.79,4.42,6.52,7.31,9.13c3.71,0.33,7.46,0.36,11.19,0.64
	c-2.25,3.12-4.46,6.26-6.7,9.39c0.93,3.67,1.94,7.33,2.93,11c-3.73-0.81-7.29-2.17-10.92-3.29c-3.31,2.04-6.53,4.21-9.82,6.28
	c-0.04-3.87-0.04-7.75-0.13-11.62c-2.98-2.41-5.98-4.81-8.91-7.27c3.67-1.16,7.31-2.44,10.97-3.66
	C723.76,306.68,725.13,303.15,726.49,299.62 M425.39,340.34c2.67,2.79,4.44,6.37,7.17,9.07c3.76,0.35,7.54,0.47,11.31,0.7
	c-2.23,3.15-4.48,6.28-6.69,9.43c1.02,3.71,1.97,7.43,2.97,11.15c-3.61-1.16-7.25-2.22-10.83-3.47c-3.41,1.93-6.61,4.2-9.91,6.3
	c-0.05-3.86-0.07-7.72-0.11-11.58c-2.98-2.44-5.97-4.86-8.95-7.3c3.61-1.21,7.2-2.48,10.84-3.61
	C422.71,347.52,423.99,343.9,425.39,340.34 M952.9,495.04c1.6-22.28,3.07-44.58,4.79-66.86c7.54,21.04,14.92,42.13,22.37,63.2
	C971,492.58,961.95,493.82,952.9,495.04 M773.02,666.69c3.33-2.01,6.56-4.19,9.84-6.28c0.07,3.87,0.02,7.75,0.15,11.63
	c3,2.36,5.93,4.83,8.94,7.22c-3.67,1.25-7.36,2.42-11,3.73c-1.38,3.59-2.77,7.18-4.16,10.76c-2.26-3.14-4.58-6.22-6.88-9.31
	c-3.84-0.23-7.68-0.43-11.52-0.6c2.19-3.14,4.38-6.27,6.67-9.33c-0.93-3.79-1.94-7.55-2.96-11.31
	C765.73,664.38,769.4,665.44,773.02,666.69 M873.04,668.7c4.54,2.99,8.79,6.42,13.2,9.62c-6.18,8.19-12.36,16.38-18.52,24.58
	c8.46,6.28,16.94,12.53,25.41,18.82c4.92-6.5,9.81-13.03,14.74-19.54c4.35,3.22,8.7,6.44,13.05,9.67
	c-4.89,6.53-9.82,13.02-14.71,19.55c8.9,6.59,17.81,13.18,26.71,19.78c6.2-8.18,12.35-16.4,18.55-24.57
	c4.36,3.21,8.71,6.43,13.06,9.67c-9.77,12.94-19.51,25.89-29.27,38.82c-30.46-22.55-60.93-45.06-91.35-67.65
	C853.61,694.53,863.45,681.7,873.04,668.7 M471.97,707.42c3.29-2.07,6.54-4.19,9.79-6.31c0.05,3.85,0.09,7.7,0.11,11.56
	c2.97,2.45,5.96,4.88,8.96,7.31c-3.61,1.2-7.2,2.47-10.84,3.6c-1.55,3.58-2.86,7.25-4.29,10.88c-2.39-3.05-4.44-6.4-7.03-9.26
	c-3.79-0.34-7.59-0.43-11.37-0.69c2.23-3.15,4.48-6.29,6.7-9.44c-1.02-3.71-1.98-7.44-3-11.14
	C464.66,705.08,468.33,706.21,471.97,707.42 M303.49,807.76c25.03-28.46,50.07-56.91,75.11-85.36c7.03,6.09,14.1,12.12,21.08,18.27
	c5.9,5.26,10.35,13.13,8.85,21.26c-1.6,9.91-9.42,16.89-15.62,24.17c-4.77,5.65-10.2,11.32-17.47,13.57
	c-6.09,1.99-12.83,0.63-18.19-2.67c-4.46-2.63-8.1-6.36-12.06-9.63c-9.41,10.69-18.8,21.38-28.22,32.06
	C312.48,815.53,307.98,811.66,303.49,807.76 M355.94,775.14c4.01,2.88,7.23,8.11,12.65,8.06c6.02-1.28,9.02-7.37,13.12-11.37
	c3.38-4.46,8.85-8.13,9.4-14.1c-0.57-5.45-6.35-7.86-9.75-11.45C372.87,755.89,364.42,765.53,355.94,775.14 M810.19,741.2
	c4.17-4.87,9.05-9.09,13.58-13.62c22.8,23.05,45.59,46.1,68.36,69.17c7.05-6.79,14.05-13.63,21.07-20.46
	c3.82,3.82,7.61,7.69,11.42,11.54c-11.28,10.98-22.58,21.95-33.87,32.93c-25.48-25.78-50.96-51.57-76.45-77.34
	c7.75,22.76,15.58,45.5,23.3,68.27c1.06,3.55,3.78,6.22,5.76,9.27c5.63,7.9,11.26,15.78,16.89,23.69
	c-4.88,3.43-9.75,6.86-14.64,10.27c-6.13-8.57-12.23-17.15-18.36-25.73c-1.58-2.14-2.89-4.57-5.09-6.15
	c-15.85-12.3-31.64-24.67-47.47-36.99c-5.63,2.88-11.37,5.53-17.05,8.29c14.15,29.1,28.42,58.14,42.6,87.23
	c-5.38,2.59-10.75,5.17-16.12,7.77c-14.23-29.05-28.41-58.13-42.63-87.19c-5.62,2.69-11.21,5.41-16.82,8.1
	c-2.42-4.83-4.77-9.68-7.13-14.53c10.76-5.21,21.53-10.39,32.29-15.58c7-3.66,14.64-6.27,20.92-11.17c1.95-1.39,3.9-2.75,5.86-4.11
	c13.71,11.37,27.4,22.79,41.12,34.16c-6.26-16.61-12.52-33.22-18.8-49.82C802.64,746.47,806.52,743.98,810.19,741.2 M626.3,737.71
	c4.1-2.68,8.23-5.33,12.36-7.97c0.05,4.91,0.08,9.83,0.14,14.74c3.8,3.11,7.62,6.2,11.42,9.33c-4.65,1.55-9.3,3.13-13.95,4.68
	c-1.81,4.57-3.56,9.17-5.35,13.75c-2.95-3.94-5.86-7.9-8.79-11.84c-4.91-0.28-9.82-0.51-14.72-0.83c2.86-3.99,5.68-7.99,8.54-11.98
	c-1.23-4.77-2.52-9.53-3.79-14.29C616.87,734.78,621.57,736.28,626.3,737.71 M358.52,853.26c19.32-32.56,39.3-64.75,58.88-97.16
	c5.12,3.03,10.22,6.09,15.34,9.14c-8.4,13.87-16.86,27.7-25.26,41.57c5.79,3.47,11.58,6.92,17.38,10.38
	c8.43-13.85,16.85-27.7,25.27-41.55c5.23,3.07,10.42,6.2,15.63,9.31c-19.66,32.34-39.32,64.67-59,97
	c-5.21-3.11-10.41-6.21-15.61-9.32c8.42-13.86,16.85-27.71,25.27-41.56c-5.8-3.46-11.59-6.94-17.4-10.37
	c-8.42,13.85-16.84,27.7-25.27,41.55C368.66,859.27,363.67,856.12,358.52,853.26 M471.1,786.36c5.48,2.3,10.95,4.67,16.44,6.99
	c-15.07,34.68-30.17,69.34-45.3,104c-5.47-2.38-10.97-4.67-16.43-7.04C440.92,855.66,456,821.01,471.1,786.36 M460.33,904.61
	c10.94-36.15,21.88-72.3,32.84-108.44c5.72,1.69,11.44,3.37,17.16,5.08c-9.39,30.97-18.76,61.95-28.15,92.93
	c9.4,2.8,18.81,5.56,28.21,8.35c-1.56,5.17-3.12,10.34-4.7,15.51C490.57,913.57,475.44,909.1,460.33,904.61 M697.52,799.84
	c6.92-1.79,14.85-1.21,20.65,3.29c6.51,4.88,9.59,12.8,11.66,20.4c-5.42,1.61-10.82,3.27-16.25,4.83
	c-1.26-3.94-2.01-8.43-5.18-11.37c-3.35-2.97-8.6-1.75-11.82,0.8c-3.14,2.67-2.65,7.32-1.57,10.88c1.62,6.12,6.26,10.94,11.59,14.12
	c9.38,5.69,20.29,8.92,28.55,16.39c7.89,6.89,12.12,17.29,12.68,27.62c0.32,6.21-1.64,12.68-6.11,17.13
	c-5.3,5.26-12.72,7.89-20.02,8.77c-7.03,0.9-14.51-1.48-19.27-6.82c-5.43-5.7-7.45-13.5-9.63-20.82c5.4-1.66,10.82-3.25,16.23-4.88
	c1.46,4.19,2.13,8.75,4.52,12.56c4.08,6.91,16.93,3.08,16.45-4.99c-0.19-6.76-4.02-13.04-9.45-16.93
	c-8.97-6.5-20.02-9.41-28.82-16.2c-6.55-4.82-11.35-11.86-13.55-19.69c-2.2-7.35-2.91-15.76,0.89-22.71
	C682.77,805.37,690.2,801.57,697.52,799.84 M538.13,808.91c5.92,0.82,11.83,1.65,17.74,2.51c-4.67,32-9.34,64-14.02,96
	c9.72,1.39,19.44,2.74,29.15,4.13c-0.76,5.34-1.55,10.67-2.33,16.01c-15.63-2.19-31.25-4.41-46.88-6.62
	C527.22,883.59,532.69,846.25,538.13,808.91 M569.42,814.88c6.24,0.05,12.48,0.11,18.73,0.19c4.34,17.22,8.66,34.44,13.02,51.66
	c4.76-17.13,9.52-34.26,14.31-51.39c5.69,0.05,11.39,0.12,17.09,0.18c-7.7,24.67-15.41,49.34-23.14,74.01
	c-0.79,2.67-0.39,5.5-0.51,8.26c-0.14,10.22-0.25,20.44-0.4,30.66c-5.96-0.06-11.93-0.14-17.89-0.18c0.05-12.49,0.44-25,0.36-37.49
	C583.99,865.43,576.57,840.19,569.42,814.88L569.42,814.88z"/>
</svg>
