<?xml version="1.0" encoding="utf-8"?>
<!-- Generator: Adobe Illustrator 25.2.3, SVG Export Plug-In . SVG Version: 6.00 Build 0)  -->
<svg version="1.1" id="Layer_1" xmlns="http://www.w3.org/2000/svg" xmlns:xlink="http://www.w3.org/1999/xlink" x="0px" y="0px"
	 viewBox="0 0 135 135" style="enable-background:new 0 0 135 135;" xml:space="preserve">
<style type="text/css">
	.st0{fill:#171717;}
</style>
<g>
	<path class="st0" d="M124.48,136l-0.15-0.03c-0.83-0.16-1.74-0.43-2.7-0.72l-0.21-0.06c-0.94-0.29-1.84-0.56-2.63-0.72
		c-1.31-0.26-2.63-0.47-3.91-0.68l-0.55-0.09c-2.61-0.41-5.57-0.88-8.6-1.77c-4.49-1.33-7.73-2.76-11.5-4.65
		c-7.03-3.49-10.07-6.54-13.21-10.95l-0.35-0.5c-0.86-1.21-1.65-2.33-2.5-3.61c-0.56,0-1.17-0.09-1.78-0.27
		c-0.35-0.12-0.71-0.21-1.08-0.3l-0.18-0.05c-1.55-0.38-3.65-0.9-5.22-2.56c-1.89-1.97-4.25-4.62-6.97-7.7l-0.35-0.39
		c-3.53-3.98-7.48-8.43-11.59-12.76c-4.52-3.19-8.92-8.37-13.18-13.37c-3.17-3.72-6.45-7.57-9.75-10.6
		c-0.69-0.64-1.36-1.25-2.03-1.85c-4.59-3.63-8.34-7.08-12.77-11.2C6.13,45.06,1.82,41.35,0.26,37.52
		c-0.24-0.55-0.44-1.53-0.67-3.16c-0.08-0.4-0.2-1.01-0.27-1.65C-1.33,27.24-1,22.56,0.36,18c0.63-2.14,1.44-4.12,2.4-5.9
		C4.41,8.22,6.6,5.4,9.63,3.31C13.89,0.37,17.46-1,20.86-1c1.9,0,3.43,0.42,4.78,0.79c0.57,0.16,1.18,0.32,1.74,0.42
		C34,1.99,44.87,8.44,61.33,18.19l3.93,2.32c0.4,0.24,0.79,0.48,1.19,0.71c26.3,15.67,50.82,35.48,56.04,41.28l0.26,0.29
		c0.52,0.58,1.28,1.45,1.93,2.34c0.13,0.16,0.29,0.39,0.42,0.59c0,0,0.24,0.36,0.31,0.47c0.04,0.08,0.08,0.15,0.11,0.22
		c7.92,2.12,9.61,3.66,10.18,4.64c0.22,0.35,0.33,0.81,0.32,1.31c0,1.15-0.71,2.04-1.65,2.04c-0.06,0-0.19,0-0.63-0.1
		c-1.12-0.25-2.18-0.42-3.17-0.53c1.13,2.15,1.71,4.19,1.8,6.3c0.39,9.38-0.85,28-2.78,41.52c-0.64,4.58-1.18,8.32-1.9,11.22
		c-0.05,0.21-0.14,0.43-0.26,0.62l0,0c-0.02,0.04-1.26,2.16-2.44,2.51l-0.13,0.05l-0.27,0.01H124.48z M78.88,107.97
		c0.5,0,0.97,0.27,1.28,0.74c0.91,1.42,1.71,2.56,2.64,3.88l0.67,0.95c2.87,4.04,5.52,6.67,12,9.89c3.68,1.83,6.8,3.21,11.02,4.45
		c2.79,0.82,5.52,1.26,8.16,1.68c1.7,0.27,3.16,0.51,4.67,0.81c0.93,0.2,1.89,0.49,2.82,0.77l0.2,0.06c0.65,0.2,1.27,0.38,1.84,0.52
		c0.14-0.18,0.31-0.39,0.46-0.61c0.63-2.71,1.17-6.43,1.71-10.32c0.99-6.9,1.79-15.13,2.28-22.71c-0.3,0.42-0.74,0.68-1.25,0.68
		c-0.11,0-0.24,0-0.37-0.01c0.06,0.31,0.09,0.64,0.08,0.98c-0.02,1.1-0.68,1.95-1.56,2.01l-0.21,0c-0.54,0-1-0.12-1.4-0.27
		c-0.01,0.17-0.02,0.36-0.03,0.55c-0.06,1.18-0.12,2.52-0.12,3.24c0,6.64-5.92,12.52-9.92,14.41c-0.55,0.27-1.11,0.52-1.64,0.74
		c-0.03,0.57-0.14,1.09-0.34,1.56c-0.56,1.37-1.77,2.26-3.08,2.26c-0.92,0-1.73-0.43-2.31-1.17c-0.57,0.39-1.25,0.58-1.85,0.58
		c-0.71,0-1.36-0.23-1.9-0.67c-0.21,0.05-0.42,0.1-0.66,0.1c-0.3,0-0.72-0.07-1.14-0.38c-3.76-0.19-7.49-1.51-10.54-3.72
		c-3.28-2.37-5.41-7.6-5.97-10.33l-0.04-0.21l-0.01-0.14c-0.87-0.46-1.54-1.25-1.96-2.31c-0.06-0.15-0.09-0.19-0.09-0.19
		c-0.03-0.01-0.09-0.03-0.17-0.07c-0.28-0.13-0.74-0.34-1.27-0.81c-0.32-0.31-0.49-0.59-0.64-0.82l-0.14-0.2
		c-0.38-0.65-0.83-1.27-1.36-1.99l-0.55-0.74c-0.05,2.67,0.04,5.35,0.12,6.9c0.12-0.01,0.18-0.02,0.21-0.03
		C78.67,107.97,78.81,107.97,78.88,107.97z M108.79,120.03c0.02,0.11,0.05,0.15,0.05,0.15c-0.01-0.03,0.02-0.06,0.05-0.09
		c-0.01-0.03-0.01-0.06-0.02-0.09C108.85,120.01,108.82,120.02,108.79,120.03z M104.55,119.53c0.01-0.06,0.01-0.12,0.02-0.19
		c-0.02,0-0.07-0.01-0.07-0.01c-0.02,0.03-0.03,0.07-0.05,0.1C104.48,119.46,104.51,119.49,104.55,119.53
		C104.54,119.53,104.55,119.53,104.55,119.53z M88.52,110.36c0.88,2,2.18,4.07,3.54,5.05c1.94,1.41,4.15,2.38,6.5,2.86
		c-0.04-0.06-0.65-0.88-0.65-0.88c-0.53-0.71-1.05-1.45-1.55-2.16C93.3,114.3,90.54,112.58,88.52,110.36z M105.77,115.13
		c0.4,0,0.78,0.17,1.08,0.49c0.27,0.29,0.58,0.45,0.87,0.45c0.2,0,0.5-0.08,0.81-0.46c0.33-0.58,0.66-1.02,0.95-1.39
		c0.17-0.22,0.41-0.52,0.46-0.64h0c-0.01,0-0.05-0.43-0.64-1.6c-0.48-0.93-0.28-1.79-0.2-2.03c0.21-0.78,0.86-1.35,1.57-1.35
		c0.39,0,0.68,0.15,0.96,0.3l-0.33,0.95l0.45-0.89c0.08,0.04,0.22,0.11,0.35,0.17c0.24-1.24,0.53-2.25,0.84-3.27
		c0.63-2.07,0.79-2.85,0.31-4.11c-1.2-3.1-4.1-6.66-7.82-9.6c-0.24,0.08-0.48,0.16-0.73,0.23c0.37,0.61,0.77,1.24,1.15,1.85
		l0.3,0.47c1.27,2,2.46,3.88,3.08,5.42c1.84,4.56,2.03,5.78,1.66,6.93c-0.28,0.85-0.92,1.37-1.66,1.37c-0.96,0-1.79-0.56-5.27-5.64
		c-1.33-1.95-2.7-4.12-4.66-7.26c-0.94,1.51-2.25,2.61-3.84,3.2c-1.16,1.83-2.59,2.97-4.26,3.38c-0.44,0.11-0.91,0.17-1.4,0.17
		c-1.54,0-3.07-0.61-4.39-1.74c0.29,0.83,0.42,1.67,0.53,2.4c0.2,1.38,0.31,1.96,0.87,2.48c0.92,0.84,2.31,0.84,3.65,0.84h0.15
		c0.74,0,1.58,0,2.36,0.16c2.87,0.62,4.53,2.72,6.79,6.64c0.74,1.24,1.79,2.28,2.82,2.83c0.49-0.46,1.06-0.69,1.74-0.69
		c0.18,0,0.38,0.01,0.58,0.04c0.07,0.01,0.17,0.02,0.26,0.02C105.39,115.17,105.57,115.13,105.77,115.13z M115.95,111.88
		c0.04,0.48,0.01,0.94-0.09,1.38c-0.02,0.09-0.03,0.15-0.04,0.22c0,0-0.04,0.19-0.04,0.2c1.68-1.5,3.17-3.44,3.99-5.39
		c-0.03,0.04-0.06,0.07-0.08,0.1C118.53,109.8,117.09,111.02,115.95,111.88z M52.72,84.64c0.15,0.09,0.24,0.19,0.29,0.25
		c4.2,4.42,8.23,8.96,11.78,12.96c3.09,3.5,5.38,6.06,7.24,8c0.76,0.81,1.86,1.2,2.93,1.48c-0.15-3.2-0.35-11.14,1-14.76
		c1.36-3.58,2.74-5.48,5.02-8.64l0.62-0.86c1.31-1.84,2.44-3.57,3.39-5.05c3.46-5.33,6.24-9.61,12.97-13.29
		c-1.63,0.29-3.2,0.69-5.17,1.32c-2.11,0.69-4.75,1.8-6.87,2.69c-1.14,0.48-2.14,0.9-2.87,1.18c-2.53,0.98-4.98,2.07-7.34,3.11
		c-2.91,1.29-5.67,2.51-8.08,3.31c-0.61,0.2-1.25,0.41-1.92,0.64c-3.14,1.07-7.05,2.39-10.22,2.39c-0.37,0-0.75-0.02-1.1-0.06
		c-4.12-0.41-8.12-2.93-11.27-7.09c-9.14-12.14-13.44-26.91-14.39-49.39c-0.16-3.52,0.05-12.38,0.64-17.67
		c-0.97-0.38-1.86-0.68-2.64-0.89C26.18,4.18,25.5,4,24.87,3.82c-1.23-0.34-2.5-0.69-4.03-0.69c-2.81,0-5.86,1.2-9.6,3.79
		c-2.8,1.95-4.73,4.65-6.24,8.76c-1.84,4.1-2.79,8.8-2.64,12.98c0.13,3.29,0.62,6.44,0.79,6.89c1.22,2.97,5.69,6.8,12.44,12.61
		c3.63,3.11,8.6,7.38,14.4,12.7c3.41,3.13,6.72,7.01,9.93,10.76l0.19,0.22C44.45,76.92,48.53,81.71,52.72,84.64z M111.94,93.14
		c1.96,2.24,3.41,4.55,4.26,6.77c1.01,2.66,0.57,4.83,0.02,6.75c0.43-0.42,0.82-0.83,1.14-1.22c1.36-1.68,2.93-4.37,2.67-7.68
		c-0.11-0.25-0.8-1.36-1.97-2.25C116.55,94.37,114.42,93.56,111.94,93.14z M79.23,93.84c0.53,1.63,2.95,3.11,3.78,3.61
		c0.02,0.01,0.05,0.03,0.07,0.04c-0.8-1.59-1.23-3.44-1.21-5.35c0.02-1.38,0.2-2.71,0.55-3.96C81.05,90.11,80.1,91.63,79.23,93.84z
		 M85.85,88.38c-0.51,1.27-0.78,2.6-0.79,3.85c-0.02,1.62,0.42,2.93,1.28,3.8c0.66,0.67,1.51,1.02,2.46,1.02
		c0.12,0,0.24-0.01,0.36-0.02c-0.65-0.99-1.15-2.47-1.13-4.7c0.01-0.76,0.08-1.53,0.2-2.31C87.42,89.53,86.62,88.98,85.85,88.38z
		 M128.78,95.4c0-0.04,0-0.07,0.01-0.11c-0.01,0-0.03,0-0.04,0C128.75,95.32,128.76,95.36,128.78,95.4z M90.98,91.5
		c-0.01,0.17-0.02,0.33-0.02,0.5c-0.02,1.33,0.24,2.92,1.49,3.29c0.71-0.73,1.31-1.63,1.76-2.63C93.14,92.37,92.06,91.98,90.98,91.5
		z M121.92,93.88c0.33,0.33,0.7,0.69,1.03,1.17c0.24-0.51,0.63-0.89,1.12-1.07c0.19-0.06,0.33-0.08,0.48-0.08
		c0.07,0,0.14,0.01,0.21,0.02c-0.05-0.5,0.03-0.99,0.23-1.38c0.11-0.24,0.28-0.45,0.47-0.61c-0.12-0.19-0.21-0.46-0.27-0.78
		c-0.02-0.1-0.03-0.2-0.04-0.3c-1.02,1.15-2.13,2.16-3.29,3C121.89,93.85,121.91,93.86,121.92,93.88z M117.98,90.6
		c0.29,0.16,0.56,0.33,0.83,0.5c1.76-0.98,3.46-2.51,4.86-4.29c-1.88,1.64-3.84,2.82-4.52,3.22
		C118.78,90.24,118.39,90.43,117.98,90.6z M85.81,83.3c0.11,0.13,0.24,0.25,0.38,0.38c2.27,2.04,6.92,5.46,12.65,5.46
		c0.02,0,0.03,0,0.05,0c0.19,0,0.38,0,0.57-0.01c6.13-0.3,12.58-3.97,14.18-8.05c0.05-0.56,0.12-1.13,0.2-1.69l0.02-0.13
		c-0.17,0.08-0.36,0.12-0.56,0.12h-0.09l-0.09-0.02c-0.93-0.18-2.23-0.56-3.09-0.81c0,0-0.58-0.17-0.63-0.18
		c-0.71-0.08-2.23-0.55-4-1.09l-0.52-0.16c-1.37-0.42-3.62-1.11-4.27-1.18l-0.02,0.01l-0.26,0.02c-0.49,0-0.9-0.28-1.13-0.74
		c-0.11,0.15-0.24,0.28-0.39,0.38c-2.06,1.36-5.69,2.96-6.72,3.34c-0.33,0.14-0.78,0.38-1.27,0.64l-0.13,0.07
		c-1.12,0.61-2.29,1.25-3.33,1.3C86.87,81.71,86.35,82.49,85.81,83.3z M117.43,77.25c-0.05,0.93-0.17,1.83-0.29,2.65
		c-0.1,0.75-0.18,1.37-0.22,1.93c-0.01,0.21-0.06,0.42-0.12,0.64c-0.65,1.93-1.97,3.78-3.81,5.41c1.93-0.41,3.58-0.96,4.78-1.6
		c0.49-0.25,3.52-2.09,5.41-4.23c0.78-0.88,1.39-1.76,1.85-2.64C123.1,79.13,120.59,78.41,117.43,77.25z M128.22,86.43
		c0.14,0.08,0.26,0.15,0.39,0.22c0.19,0.1,0.36,0.25,0.5,0.42c0.02-0.9,0.03-1.76,0.03-2.58C128.87,85.14,128.57,85.78,128.22,86.43
		z M93.73,72.56c-1.25,1.2-2.3,2.48-3.29,3.84c0.27-0.14,0.54-0.26,0.8-0.37c0.75-0.27,2.65-1.11,4.34-2
		C94.95,73.52,94.33,73.03,93.73,72.56z M103.62,73.56c0.71,0.21,1.47,0.44,2.17,0.67c1.4,0.44,3.33,1.04,3.97,1.11
		c0.1,0.01,0.38,0.08,0.78,0.2l0.46,0.13c0.52,0.15,1.17,0.33,1.75,0.48c0.24-0.51,0.31-1.01,0.25-1.55
		c-0.26-2.05-2.55-4.13-3.69-4.95C107.93,70.46,105.66,71.97,103.62,73.56z M31.96,6.29c-0.63,5.27-0.79,16.49-0.07,23.68
		c0.51,5.44,1.45,13.53,3.76,21.1c2.13,6.9,5.5,13.77,9.02,18.37c2.8,3.69,6.1,5.41,10.38,5.41c1.41,0,2.99-0.19,4.81-0.57
		c2.42-0.5,4.78-1.12,7.23-1.91c2.14-0.72,5.39-2.1,9.51-3.84c1.65-0.7,3.41-1.44,5.27-2.22l0.35-0.14
		c2.45-0.98,6.55-2.62,10.44-3.71c4.32-1.25,6.68-1.52,13.28-1.52c2.03,0,5.22,0.65,6.49,0.93l-0.05,0.31
		c0.89,0.09,2.91,0.33,5.32,0.87c-8.21-7.61-29.72-24.4-52.72-38.1l-5.11-3.02C47.97,14.9,38.44,9.26,31.96,6.29z M97.02,69.9
		c0.25,0.16,0.49,0.3,0.75,0.45c0.54,0.31,1.02,0.59,1.53,0.98c1.14-0.39,2.95-1.91,4.13-3.27c0.26-0.29,0.5-0.53,0.72-0.72
		c-0.6-0.12-1.25-0.2-1.95-0.25c-0.51,0.21-1.04,0.46-1.61,0.74C99.28,68.49,98.1,69.17,97.02,69.9z"/>
	<path class="st0" d="M134.82,71.56c-0.91-1.55-5.42-3.09-10.03-4.3c-0.04-0.05-0.08-0.11-0.11-0.15c-0.03-0.14-0.08-0.28-0.14-0.39
		c-0.1-0.16-0.21-0.32-0.3-0.46c-0.11-0.17-0.24-0.37-0.38-0.54c-0.67-0.92-1.45-1.8-1.86-2.26l-0.26-0.29
		c-5.18-5.75-29.59-25.46-55.81-41.09c-0.4-0.24-0.8-0.47-1.19-0.71l-3.93-2.32C44.41,9.33,33.56,2.91,27.2,1.2
		c-0.59-0.11-1.2-0.27-1.82-0.44C24.08,0.4,22.63,0,20.86,0c-3.2,0-6.59,1.32-10.67,4.13c-2.88,1.99-4.94,4.66-6.56,8.44
		c-0.86,1.58-1.66,3.48-2.32,5.71C0,22.72-0.32,27.27,0.31,32.6c0.06,0.55,0.16,1.09,0.27,1.62c0.18,1.28,0.38,2.38,0.61,2.92
		c1.45,3.56,5.48,7.06,12.74,13.3c4.45,4.14,8.17,7.56,12.76,11.19c0.67,0.6,1.35,1.22,2.03,1.85c3.35,3.07,6.65,6.94,9.84,10.68
		c4.25,4.99,8.64,10.16,13.08,13.26c4.17,4.39,8.15,8.88,11.68,12.86c2.86,3.22,5.33,6.02,7.3,8.06c1.38,1.46,3.24,1.91,4.73,2.27
		c0.47,0.12,0.92,0.23,1.31,0.36c0.74,0.22,1.46,0.28,2.01,0.19c0.96,1.47,1.81,2.68,2.8,4.08l0.35,0.5
		c3.04,4.27,5.99,7.23,12.84,10.63c3.75,1.88,6.95,3.29,11.33,4.58c2.94,0.86,5.76,1.32,8.48,1.75c1.47,0.24,2.99,0.47,4.51,0.78
		c0.86,0.17,1.8,0.46,2.72,0.74c1.02,0.3,1.97,0.59,2.81,0.75c0.02,0,0.05,0.01,0.07,0.01c0.03,0,0.06,0,0.09-0.01
		c0.7-0.16,1.88-2.06,1.89-2.08c0.06-0.1,0.11-0.22,0.14-0.34c0.72-2.88,1.28-6.74,1.88-11.12c1.92-13.51,3.16-32.05,2.77-41.33
		c-0.13-2.85-1.25-5.32-2.61-7.47c2.21,0.05,4.37,0.51,5.2,0.69c0.23,0.05,0.37,0.08,0.4,0.08c0.36,0,0.65-0.47,0.65-1.07
		C135.01,72.03,134.94,71.76,134.82,71.56z M128.39,70.48c-0.28-0.01-0.54,0-0.81,0.02c-1.91,0.1-4.26-0.39-6.77-0.92
		c-2.2-0.46-4.67-0.96-7.22-1.15c-0.69-0.78-1.48-1.46-2.33-2.03c1.16,0.28,2.45,0.58,3.66,0.82
		C119.64,68.1,124.68,69.3,128.39,70.48z M126.67,88.98c-0.46,0.45-0.62,1.12-0.48,1.99c0.03,0.17,0.08,0.33,0.16,0.46
		c0.3,0.54,0.61,0.82,0.88,1.01c-0.26,0.05-0.54,0.1-0.87,0.13c-0.18,0.02-0.36,0.16-0.47,0.4c-0.12,0.24-0.16,0.55-0.13,0.85
		c0.08,0.8,0.24,1.33,0.41,1.74c-0.55-0.12-1.03-0.31-1.34-0.56c-0.13-0.11-0.28-0.13-0.42-0.09c-0.44,0.16-0.61,0.63-0.67,0.89
		c-0.2,0.86,0.15,1.66,0.55,2.58c-0.14-0.08-0.29-0.16-0.44-0.25l-0.22-0.13c-0.24-0.14-0.49-0.24-0.73-0.32
		c-0.26-1.68-0.99-2.4-1.68-3.09c-0.21-0.2-0.45-0.44-0.69-0.71c-0.07-0.08-0.14-0.14-0.21-0.22c2.05-1.27,3.97-3.13,5.51-5.27
		C126.11,88.59,126.38,88.79,126.67,88.98z M109.87,119.88c0.07,0.28,0.03,0.43-0.01,0.55c-0.16,0.4-0.63,0.7-1.08,0.7
		c-0.38,0-1.02-0.18-1.02-1.44c0-0.17-0.02-0.33-0.04-0.49c0.82-0.01,1.57-0.41,2.22-1.13
		C109.82,119.05,109.77,119.49,109.87,119.88z M82.49,98.3c-1.66-1.01-3.93-2.59-4.31-4.53c1.15-3.02,2.41-4.79,4.46-7.63l0.62-0.86
		c0.13-0.18,0.25-0.36,0.38-0.54c0.21,0.36,0.47,0.72,0.81,1.08c-0.96,1.71-1.55,3.86-1.57,6.33c-0.05,5.17,3.41,9.12,6.95,9.12
		c0.39,0,0.78-0.04,1.16-0.14c1.58-0.4,2.86-1.6,3.84-3.25c1.96-0.61,3.55-2.16,4.4-4.42l0.38,0.6c2.27,3.63,3.78,6.04,5.21,8.14
		c3.28,4.8,4,5.21,4.45,5.21c0.31,0,0.57-0.26,0.71-0.68c0.27-0.83,0.1-1.93-1.63-6.24c-0.6-1.48-1.79-3.35-3.06-5.35
		c-0.71-1.12-1.47-2.31-2.08-3.4c0.83-0.19,1.64-0.43,2.44-0.72c3.68,2.81,7.13,6.63,8.57,10.37c0.61,1.61,0.34,2.67-0.29,4.75
		c-0.3,0.98-0.63,2.09-0.87,3.44c-0.07,0.42-0.19,0.65-0.6,0.65s-0.89-0.26-1.21-0.42c-0.25-0.13-0.4-0.22-0.56-0.22
		c-0.25,0-0.52,0.27-0.62,0.65c-0.06,0.19-0.15,0.72,0.14,1.28c0.68,1.34,0.76,1.94,0.74,2.18c-0.02,0.32-0.32,0.7-0.66,1.13
		c-0.29,0.37-0.61,0.79-0.91,1.34c-0.58,0.73-1.22,0.89-1.64,0.89c-0.58,0-1.15-0.27-1.6-0.77c-0.15-0.16-0.33-0.22-0.5-0.14
		c-0.24,0.1-0.56,0.08-0.84,0.04c-0.16-0.02-0.31-0.03-0.45-0.03c-0.42,0-0.94,0.12-1.45,0.91c-1.46-0.5-2.95-1.83-3.98-3.55
		c-2.1-3.65-3.63-5.62-6.12-6.16c-0.69-0.14-1.48-0.14-2.16-0.14h-0.15c-1.47,0-3.12,0-4.33-1.1c-0.86-0.79-0.99-1.71-1.18-3.01
		C84.72,101.51,84.43,99.5,82.49,98.3z M83.63,103.24c-0.26-0.25-0.51-0.37-0.74-0.47c-0.25-0.12-0.48-0.23-0.74-0.46
		c-0.05-0.05-0.12-0.15-0.2-0.29c-0.06-0.1-0.12-0.19-0.15-0.23c-0.4-0.7-0.94-1.43-1.56-2.27l-0.51-0.69
		c-0.08-0.11-0.17-0.23-0.25-0.33c0.79,0.69,1.67,1.28,2.54,1.81C83.21,101.03,83.44,101.98,83.63,103.24z M87.22,79.95
		c0.81,0,1.92-0.6,2.99-1.19c0.56-0.3,1.09-0.59,1.54-0.78c1.09-0.4,4.62-1.98,6.53-3.25c0.12-0.08,0.2-0.26,0.2-0.47
		c0.01-0.2-0.07-0.41-0.18-0.5l-0.41-0.33c-1.15-0.94-2.34-1.92-3.5-2.8c0.06-0.04,0.11-0.1,0.17-0.14c0.04,0.03,0.09,0.08,0.13,0.1
		c0.94,0.83,1.69,1.26,2.36,1.65c0.59,0.33,1.15,0.66,1.76,1.21c0.05,0.04,0.1,0.06,0.15,0.06c1.86-0.13,4.47-2.61,5.58-3.9
		c0.46-0.52,0.86-0.8,1.18-1.02c0.55-0.38,1.07-0.74,1.04-2.07c0.85,0.26,1.65,0.57,2.42,0.94c-1.95,1.05-6.48,4.13-9,6.5
		c-0.14,0.13-0.2,0.41-0.14,0.66c0.06,0.25,0.21,0.39,0.37,0.32c0,0,0.03-0.01,0.11-0.01c0.69,0,2.9,0.69,4.86,1.29
		c1.78,0.55,3.47,1.08,4.21,1.16c0.07,0.01,0.31,0.09,0.65,0.18c0.81,0.24,2.16,0.64,3.07,0.81c0.11,0,0.19-0.04,0.24-0.12
		c0.9-1.22,1.26-2.57,1.08-4c-0.32-2.52-2.25-4.59-3.69-5.79c2.5,1.75,4.17,4.32,4.21,7.83c0.01,0.93-0.13,1.97-0.27,2.98
		c-0.09,0.67-0.19,1.36-0.24,2.03c-1.65,4.48-8.52,8.51-15.12,8.83c-0.22,0.01-0.45,0.01-0.67,0.01c-6.07,0-10.94-3.58-13.32-5.71
		c-0.44-0.39-0.73-0.75-0.94-1.1c0.75-1.11,1.45-2.17,2.11-3.2c0.05-0.08,0.1-0.15,0.14-0.22C86.97,79.93,87.09,79.95,87.22,79.95z
		 M87.56,78.83c1.9-2.9,3.64-5.37,6.1-7.58c1.2,0.89,2.47,1.94,3.69,2.93c-1.94,1.15-4.79,2.43-5.74,2.77
		c-0.48,0.19-1.02,0.49-1.59,0.8C89.14,78.23,88.25,78.7,87.56,78.83z M109.35,68.48c0.92,0.51,4.29,3.14,4.65,5.99
		c0.12,0.98-0.12,1.9-0.75,2.81c-0.89-0.18-2.13-0.55-2.9-0.77c-0.37-0.11-0.62-0.18-0.71-0.19c-0.71-0.09-2.45-0.63-4.15-1.15
		c-1.49-0.46-3-0.93-4.02-1.16C104.01,71.84,107.64,69.41,109.35,68.48z M106.12,66.85c-0.04,0.31-0.2,0.44-0.64,0.74
		c-0.35,0.24-0.79,0.54-1.3,1.12c-1.22,1.4-3.57,3.53-5.14,3.7c-0.63-0.54-1.19-0.86-1.77-1.2c-0.6-0.34-1.22-0.71-1.95-1.33
		c1.36-1.02,2.93-2.01,4.82-2.94c0.69-0.34,1.31-0.63,1.89-0.86C103.54,66.17,104.92,66.41,106.12,66.85z M113.67,112.33
		c-0.03,0.14-0.06,0.31-0.1,0.5c-0.06,0.32-0.2,1.07-0.27,1.19c0,0-0.25-0.04-0.85-1.16c-0.1-0.19-0.22-0.36-0.34-0.51
		c0.11,0.02,0.21,0.03,0.32,0.03c0.46,0,0.85-0.19,1.16-0.54C113.66,112.04,113.7,112.21,113.67,112.33z M115.27,100.26
		c-1.14-2.96-3.34-5.9-5.93-8.42c3.77,0.2,7.12,1.22,9.34,2.87c1.47,1.11,2.28,2.53,2.35,2.86c0.32,3.69-1.4,6.65-2.89,8.5
		c-1.13,1.37-2.62,2.58-3.73,3.39c0.18-0.84,0.41-1.6,0.63-2.33C115.66,105.07,116.3,102.96,115.27,100.26z M109.29,89.31
		c3.17-1.85,5.62-4.4,6.55-7.14c0.04-0.13,0.07-0.27,0.08-0.41c0.04-0.61,0.13-1.28,0.23-2.01c0.16-1.14,0.32-2.32,0.3-3.5
		c0-0.15-0.01-0.3-0.02-0.45c3.69,1.42,7.55,2.66,10.06,2.74c-0.03,0.08-0.05,0.14-0.07,0.22c-0.53,1.36-1.35,2.65-2.49,3.96
		c-2.02,2.29-5.15,4.17-5.69,4.45c-2.14,1.14-5.2,1.84-8.09,2.21C109.85,89.35,109.56,89.32,109.29,89.31z M115.7,71.96
		c0.52,0.22,0.97,0.4,1.35,0.54c4.22,1.68,6.78,2.84,8.3,3.73c0.05,0.03,0.1,0.06,0.14,0.09c-2.52-0.32-6.04-1.53-9.36-2.82
		C116.03,72.97,115.88,72.46,115.7,71.96z M126.2,72.79c0.72,0.87,0.81,1.07,0.84,1.87c0,0.12,0,0.29,0,0.47
		c-0.32-0.29-0.73-0.58-1.24-0.89c-1.2-0.7-2.97-1.53-5.6-2.63c0.15,0.03,0.32,0.06,0.47,0.1c1.9,0.4,3.73,0.78,5.35,0.91
		C126.08,72.66,126.15,72.73,126.2,72.79z M104.36,96.7c1.16,1.82,2.36,3.71,2.87,4.98c0.41,1.02,0.71,1.81,0.93,2.43
		c-0.55-0.69-1.35-1.78-2.51-3.48c-1.42-2.07-2.91-4.46-5.17-8.09l-0.2-0.32c-0.24,0.02-0.48,0.04-0.72,0.06
		c0.24-0.01,0.48-0.04,0.72-0.06c0.44-0.04,0.88-0.09,1.33-0.16C102.3,93.45,103.31,95.03,104.36,96.7z M85.49,86.8
		c1,0.85,2.3,1.83,3.86,2.73c-0.19,0.92-0.3,1.87-0.31,2.82c-0.03,2.63,0.74,4.34,1.98,5.19c-0.32,0.15-0.64,0.27-0.96,0.36
		c-0.43,0.11-0.85,0.16-1.26,0.16c-2.62,0-4.79-2.13-4.74-5.82C84.07,90.37,84.62,88.44,85.49,86.8z M89.96,91.98
		c0.01-0.68,0.09-1.35,0.23-1.98c1.58,0.83,3.39,1.55,5.37,1.95c-0.58,1.75-1.57,3.31-2.78,4.41
		C91.02,96.23,89.92,94.74,89.96,91.98z M96.73,92.13c0.53,0.06,1.08,0.11,1.62,0.13c-0.5,1.35-1.38,2.43-2.43,3.15
		C96.28,94.39,96.55,93.28,96.73,92.13z M95.29,111.61c-1.36-0.57-2.62-1.32-3.74-2.22c0.37,0.01,0.74,0.04,1.06,0.11
		c0.84,0.18,1.55,0.57,2.22,1.16C94.98,111,95.14,111.31,95.29,111.61z M88.96,109.33c0.03,0.03,0.06,0.09,0.09,0.12
		c2.03,2.34,4.83,4.04,7.92,4.92c0.55,0.79,1.14,1.63,1.73,2.43l0.36,0.49c0.56,0.77,1.04,1.41,1.36,1.94
		c0.02,0.05,0.04,0.23,0.06,0.33c-3.22-0.26-6.38-1.41-9.01-3.33c-2.05-1.49-3.81-4.87-4.58-7.34
		C87.57,109.16,88.26,109.28,88.96,109.33z M102.99,119.29c0.03,0.01,0.07,0.01,0.1,0.01c0.2,0,0.39-0.15,0.51-0.41
		c0.24-0.5,0.42-0.58,0.7-0.58c0.12,0,0.24,0.01,0.36,0.03c0.31,0.04,0.66,0.05,0.96-0.01c0.05,0.04,0.1,0.08,0.15,0.12
		c-0.04,0.09-0.08,0.18-0.1,0.29c-0.01,0.04-0.02,0.08-0.02,0.12c-0.05,0.37-0.09,0.67-0.12,0.94c-0.02,0.15-0.03,0.29-0.05,0.44
		c-0.13,0.13-0.46,0.3-0.86,0.3c-0.34,0-0.63-0.13-0.83-0.36c-0.03-0.04-0.07-0.08-0.11-0.1c-0.44-0.32-0.97-0.28-1.35-0.17
		c-0.1,0.03-0.19,0.05-0.33,0.05c0,0-0.1-0.1-0.24-0.64c-0.01-0.06-0.02-0.13-0.03-0.2c-0.01-0.1-0.03-0.2-0.05-0.32
		C102.12,119,102.56,119.18,102.99,119.29z M111.47,115.96c0.18-0.27,0.35-0.56,0.48-0.91c0.48,0.73,0.92,1.08,1.35,1.08
		c1,0,1.33-1.75,1.51-2.68c0.03-0.15,0.05-0.28,0.08-0.4c0.12-0.54,0.1-1.08-0.01-1.62c1.18-0.85,2.79-2.16,4.04-3.67
		c1.17-1.43,2.02-2.96,2.6-4.57c-0.03,0.81-0.06,1.56-0.06,2.09c0,4.41-4.44,9.58-8.41,11.46c-0.56,0.27-1.13,0.52-1.7,0.77
		C111.39,116.97,111.44,116.46,111.47,115.96z M118.74,92.27c-1.05-0.77-2.21-1.35-3.42-1.79c1.22-0.36,2.34-0.78,3.3-1.29
		c0.03-0.02,3.61-2.01,6.02-4.72c1.3-1.47,2.23-2.95,2.85-4.55c0.22-0.54,0.38-1.1,0.5-1.65c-0.02,1.28-0.14,2.5-0.39,3.31
		C126.31,85.95,122.63,90.36,118.74,92.27z M76.03,108.63c-0.16-0.04-0.33-0.08-0.5-0.12c-1.45-0.34-3.08-0.74-4.23-1.96
		c-1.94-2.04-4.42-4.81-7.27-8.03c-3.55-4-7.57-8.53-11.76-12.95c-0.03-0.03-0.06-0.06-0.1-0.09c-4.33-3.02-8.48-7.9-12.89-13.07
		c-3.22-3.77-6.55-7.69-9.96-10.81c-5.7-5.23-10.51-9.36-14.37-12.68C7.84,42.81,3.54,39.11,2.23,35.93
		c-0.25-0.6-0.74-4.09-0.87-7.23c-0.16-4.31,0.81-9.15,2.7-13.36c1.58-4.31,3.62-7.16,6.61-9.24c3.92-2.71,7.15-3.97,10.17-3.97
		c1.65,0,3,0.37,4.3,0.72c0.66,0.18,1.28,0.34,1.86,0.45c1.03,0.28,2.18,0.69,3.46,1.22c-0.66,5.13-0.89,14.73-0.73,18.27
		c0.8,18.9,3.98,35.26,14.18,48.83c2.78,3.68,6.45,6.29,10.58,6.7c0.32,0.03,0.66,0.05,1,0.05c3.66,0,8.42-1.89,11.83-2.99
		c4.28-1.4,9.63-4.17,15.38-6.4c2.07-0.79,6.5-2.81,9.78-3.88c4.26-1.37,6.7-1.65,11.58-2.15c1.61-0.15,3.41-0.24,5.09-0.24
		c1.08,0,2.11,0.03,3.04,0.12c-1.72-0.38-4.53-0.91-6.28-0.91c-6.68,0-8.88,0.29-13.01,1.49c-4.03,1.12-8.3,2.86-10.68,3.81
		c-6.45,2.68-11.78,5.05-14.85,6.08c-2.7,0.87-5.12,1.49-7.33,1.94c-1.73,0.37-3.41,0.59-5.01,0.59c-4.18,0-7.9-1.5-11.17-5.8
		c-3.45-4.51-6.93-11.37-9.18-18.68c-2.2-7.23-3.2-14.92-3.8-21.29c-0.77-7.6-0.57-20.42,0.26-25.23
		c6.47,2.78,16.04,8.43,29.22,16.23l3.93,2.32c0.39,0.23,0.78,0.46,1.19,0.7c26.13,15.57,50.39,35.16,55.51,40.84l0.09,0.11
		c-3.86-1.3-7.69-1.76-8.96-1.88l-0.26-0.02c-1.6-0.13-2.98-0.25-4.26-0.25c-2.28,0-4.5,0.34-7.86,2.05
		c-7.48,3.72-10.32,8.1-13.92,13.64c-1.05,1.62-2.13,3.28-3.42,5.09l-0.62,0.86c-2.23,3.09-3.58,4.96-4.89,8.41
		C75.58,96.45,75.78,104.88,76.03,108.63z M130.06,80.23c0.39,9.1-0.84,27.36-2.74,40.7c-0.58,4.18-1.12,7.87-1.76,10.59
		c-0.3,0.46-0.82,1.11-1.05,1.3c-0.77-0.15-1.65-0.42-2.59-0.7c-0.94-0.28-1.9-0.57-2.8-0.77c-1.54-0.3-3.06-0.55-4.54-0.79
		c-2.7-0.43-5.49-0.87-8.38-1.72c-4.32-1.27-7.48-2.67-11.18-4.52c-6.67-3.31-9.4-6.04-12.37-10.21l-0.35-0.5
		c-1.05-1.49-1.95-2.76-2.98-4.36c-0.12-0.18-0.28-0.29-0.44-0.29c-0.04,0-0.07,0-0.11,0.01c-0.35,0.1-0.86,0.09-1.43-0.02
		c-0.13-1.92-0.32-6.87-0.04-10.77c0.56,0.85,1.12,1.61,1.6,2.26l0.51,0.68c0.59,0.81,1.1,1.5,1.49,2.17
		c0.06,0.09,0.11,0.16,0.16,0.24c0.13,0.2,0.26,0.41,0.46,0.6c0.4,0.36,0.74,0.52,1.02,0.65c0.39,0.18,0.56,0.26,0.78,0.81
		c0.44,1.11,1.12,1.65,1.74,1.91c0.07,0.09,0.16,0.17,0.24,0.26l0.05,0.49c0.01,0.06,0.02,0.12,0.03,0.17
		c0.58,2.78,2.69,7.63,5.58,9.72c3.01,2.19,6.67,3.43,10.35,3.55c0.2,0.22,0.44,0.37,0.75,0.37c0.16,0,0.32-0.04,0.49-0.09
		c0.19-0.05,0.4-0.11,0.57-0.01c0.41,0.44,0.93,0.67,1.51,0.67c0.7,0,1.76-0.41,2.03-1.49c0.33,1.28,1.11,2.08,2.13,2.08
		c0.9,0,1.74-0.65,2.15-1.65c0.23-0.55,0.3-1.19,0.25-1.84c0.76-0.3,1.51-0.61,2.22-0.97c3.77-1.78,9.35-7.31,9.35-13.51
		c0-0.73,0.06-2.03,0.12-3.29c0.04-0.84,0.07-1.53,0.09-2.1c0.08,0.03,0.16,0.06,0.24,0.11l0.21,0.12c0.54,0.32,1.11,0.65,1.88,0.65
		h0.15c0.34-0.02,0.62-0.47,0.63-1.03c0.02-0.77-0.25-1.49-0.55-2.2c0.74,0.23,1.46,0.26,1.83,0.26c0.37,0,0.66-0.47,0.66-1.07
		c0-0.18-0.03-0.36-0.08-0.51c-0.14-0.7-0.35-1.13-0.52-1.49c-0.03-0.06-0.06-0.12-0.08-0.17c0.1-0.02,0.21-0.04,0.31-0.06
		c0.34-0.06,0.69-0.14,1.12-0.18c0.2-0.02,0.39-0.19,0.5-0.47c0.11-0.28,0.14-0.64,0.07-0.95c-0.35-1.63-0.95-2.01-1.39-2.29
		c-0.05-0.03-0.1-0.06-0.15-0.1c0.64-0.44,0.9-1.16,0.76-2.17c-0.05-0.37-0.21-0.66-0.43-0.78c-0.42-0.23-0.84-0.5-1.25-0.78
		c0.81-1.36,1.47-2.8,1.89-4.26c0.48-1.53,0.58-3.75,0.5-5.72C129.71,77.91,130.01,79.05,130.06,80.23z"/>
	<path class="st0" d="M100.64,85.95c-1.7,0-1.73-2.05-1.74-2.93c0-0.32,0-0.64-0.03-0.99c-0.03-0.65-0.06-1.26-0.1-1.87l-0.01-0.14
		c-0.06-1.41-0.12-2.87-0.23-4.17c-0.04-0.38,0.05-0.8,0.26-1.12c0.25-0.37,0.64-0.58,1.05-0.58h0.21l0.27,0.1
		c1.28,0.54,7.44,2.49,8.55,2.8l0.2,0.06c0.84,0.25,2.42,0.73,2.81,2.26c0.14,0.59,0.09,1.18-0.14,1.73
		c-1.16,2.83-7.35,4.54-8.15,4.67c-0.33,0.05-0.9,0.07-1.74,0.11l-0.54,0.02c-0.24,0.01-0.44,0.02-0.54,0.03L100.64,85.95z
		 M101.33,77.83c0.04,0.69,0.06,1.39,0.09,2.09l0.08,1.88c0.03,0.34,0.04,0.7,0.04,1.03c0.01,0,0.37-0.02,0.37-0.02
		c0.48-0.02,1.14-0.05,1.32-0.08c1.53-0.25,4.49-1.53,5.67-2.48c-0.14-0.05-0.31-0.11-0.51-0.17l-0.18-0.06
		C107.35,79.78,103.74,78.65,101.33,77.83z"/>
	<path class="st0" d="M99.87,81.96c0.03,0.38,0.03,0.72,0.03,1.05c0.01,0.82,0.02,1.95,0.74,1.95c0.13-0.02,0.53-0.03,1-0.05
		c0.71-0.03,1.51-0.06,1.81-0.11c1.26-0.2,6.51-1.94,7.39-4.08c0.2-0.47,0.14-0.88,0.09-1.09c-0.23-0.89-1.18-1.26-2.14-1.55
		l-0.17-0.05c-1.16-0.32-7.34-2.27-8.68-2.85c-0.1-0.04-0.22,0-0.3,0.12c-0.08,0.12-0.12,0.3-0.1,0.47
		c0.12,1.36,0.18,2.87,0.24,4.33C99.81,80.72,99.84,81.33,99.87,81.96z M108.51,79.07l0.17,0.05c1.36,0.41,1.62,0.74,1.62,0.98
		c-0.63,1.52-5.23,3.34-6.92,3.61c-0.28,0.04-1.11,0.08-1.76,0.11c-0.5,0.02-0.92,0.04-1.02,0.05c-0.05-0.11-0.05-0.57-0.06-0.91
		c0-0.34-0.01-0.73-0.04-1.12c-0.03-0.6-0.05-1.21-0.08-1.82c-0.05-1.22-0.1-2.46-0.19-3.64C102.2,77.12,107.43,78.77,108.51,79.07z
		"/>
	<path class="st0" d="M98.02,85.78c-1.68,0-2.19-0.17-2.36-0.22c-0.38-0.12-0.99-0.27-1.71-0.44l-0.27-0.06
		c-2.96-0.7-4.96-1.24-5.81-2.25c-0.36-0.45-0.5-1-0.42-1.56c0.13-1.3,1.25-2.01,3.1-3.03c0.17-0.09,0.68-0.37,0.8-0.46
		c0.84-0.68,2.55-1.48,4.7-2.45l0.42-0.19c0.71-0.32,1.32-0.6,1.65-0.79c0.23-0.11,0.41-0.15,0.59-0.15c0.37,0,0.71,0.17,0.95,0.46
		c0.2,0.21,0.34,0.57,0.36,0.97l0.01,0.26c0.02,0.33,0.03,0.68,0.06,1.03c0.2,3.69,0.28,6.39-0.46,7.79
		c-0.35,0.66-0.91,1.05-1.56,1.1l-0.04,0H98.02z M96.42,82.63c0,0,0.25,0.07,1.07,0.09c0.19-0.98,0.1-3.29,0.03-4.79
		c0,0-0.46,0.21-0.46,0.21c-1.31,0.59-3.51,1.58-4.16,2.11c-0.25,0.19-0.57,0.37-0.96,0.59c0,0-0.57,0.32-0.72,0.41
		c1,0.31,2.25,0.61,3,0.79l0.27,0.06C95.25,82.3,95.93,82.46,96.42,82.63L96.42,82.63z"/>
	<path class="st0" d="M88.65,82.16c0.65,0.78,2.68,1.3,5.27,1.92c0.85,0.2,1.58,0.38,2.05,0.53c0.46,0.15,1.48,0.17,2.04,0.17
		c0.3-0.02,0.56-0.22,0.75-0.57c0.67-1.26,0.5-4.44,0.35-7.26c-0.03-0.45-0.05-0.89-0.07-1.3c-0.01-0.16-0.06-0.31-0.14-0.4
		c-0.08-0.1-0.19-0.11-0.28-0.06c-0.44,0.25-1.24,0.6-2.15,1.02c-1.73,0.79-3.7,1.68-4.49,2.32c-0.16,0.13-0.55,0.34-0.95,0.56
		c-1.7,0.94-2.51,1.48-2.59,2.29C88.41,81.67,88.48,81.95,88.65,82.16z M91.23,80.09c0.46-0.26,0.82-0.45,1.03-0.61
		c0.74-0.59,2.75-1.51,4.38-2.24c0.71-0.32,1.34-0.6,1.79-0.83c0.01,0.22,0.02,0.43,0.04,0.65c0.13,2.34,0.3,5.53-0.19,6.46
		c-0.07,0.14-0.16,0.2-0.27,0.22c-0.92,0-1.6-0.05-1.9-0.15c-0.49-0.16-1.23-0.33-2.08-0.54c-1.63-0.39-4.06-0.96-4.83-1.57
		C89.56,81.02,90.66,80.4,91.23,80.09z"/>
	<path class="st0" d="M29.73,46.53l-0.37-0.34c-0.06-0.06-0.11-0.09-0.18-0.13c-0.14-0.08-0.4-0.24-0.6-0.62
		c-0.61-1.02,0.63-2.73,1.33-3.17c0.34-0.2,0.7-0.24,0.94-0.24c0.64,0,1.43,0.24,1.73,0.93l0.08,0.19v0.21
		c0.04,0.31,0.15,1.18-0.47,2.31l0,0c-0.45,0.79-2.01,0.86-2.03,0.86H29.73z"/>
	<path class="st0" d="M30.86,43.03c-0.17,0-0.32,0.03-0.41,0.09c-0.53,0.33-1.18,1.53-0.98,1.87c0.13,0.25,0.25,0.16,0.63,0.54
		c0.01,0.01,0.03,0.01,0.07,0.01c0.26,0,1.12-0.24,1.16-0.34c0.55-0.99,0.35-1.65,0.35-1.82C31.58,43.13,31.19,43.03,30.86,43.03z"
		/>
	<path class="st0" d="M70.65,61.82l-0.07-0.01c-0.19-0.03-0.38-0.08-0.57-0.17l-0.05-0.02l-0.05-0.03
		c-0.13-0.08-0.27-0.18-0.48-0.36c-0.2-0.19-0.34-0.36-0.48-0.59c-0.14-0.23-0.24-0.45-0.31-0.67c-0.06-0.2-0.11-0.39-0.14-0.58
		c-0.04-0.21-0.06-0.34-0.06-0.62c0-0.21,0.02-0.4,0.08-0.58c0.05-0.18,0.13-0.36,0.27-0.55l0.08-0.11l0.11-0.09
		c0.05-0.05,0.11-0.1,0.22-0.17l0.07-0.05l0.08-0.04c0.18-0.08,0.37-0.12,0.58-0.12c0.15,0,0.29,0.02,0.45,0.07l0.13,0.04
		c0.19,0.07,0.36,0.17,0.55,0.31c0.15,0.12,1.48,1.7,1.34,2.62c-0.06,0.27-0.11,0.43-0.17,0.58c-0.18,0.44-0.48,0.78-0.86,0.98
		c-0.19,0.1-0.41,0.15-0.67,0.15H70.65z"/>
	<path class="st0" d="M70.46,58.28c-0.1-0.08-0.19-0.13-0.28-0.16c-0.03-0.01-0.05-0.01-0.08-0.02c-0.06-0.02-0.11-0.03-0.16-0.03
		c-0.07,0-0.13,0.01-0.18,0.03c-0.08,0.05-0.11,0.09-0.15,0.12c-0.07,0.1-0.1,0.16-0.12,0.24c-0.03,0.11-0.04,0.2-0.04,0.31
		c0,0.18,0.01,0.27,0.03,0.37c0.01,0.04,0.01,0.08,0.02,0.12c0.02,0.14,0.06,0.28,0.11,0.44c0.04,0.14,0.11,0.28,0.19,0.41
		c0.11,0.17,0.2,0.28,0.29,0.37c0.15,0.13,0.25,0.2,0.34,0.26c0.12,0.05,0.21,0.08,0.29,0.09c0.09,0,0.15-0.01,0.19-0.03
		c0.12-0.06,0.29-0.19,0.41-0.49c0.04-0.1,0.07-0.2,0.1-0.34C71.45,59.69,70.66,58.45,70.46,58.28z"/>
	<path class="st0" d="M73.85,62.21c-0.52,0-0.8-0.33-1.34-1.01c-0.25-0.32-0.38-0.51-0.44-0.76c-0.06-0.16-0.12-0.3-0.16-0.41
		c-0.07-0.16-0.13-0.33-0.18-0.59c-0.04-0.22-0.02-0.44,0.06-0.67l0.07-0.21l0.11-0.11c0.04-0.06,0.1-0.13,0.19-0.21
		c0.1-0.11,0.27-0.19,0.36-0.23l0.09-0.04l0.12-0.03c0.11-0.02,0.23-0.05,0.42-0.05c0.21,0,0.39,0.05,0.52,0.09
		c0.17,0.06,0.32,0.14,0.45,0.24l0.04,0.03l0.04,0.04c0.27,0.25,0.59,0.75,0.77,1.11c0.16,0.3,0.26,0.56,0.3,0.8l0.01,0.08v0.08
		c0,0.15,0,0.58-0.21,1c-0.17,0.36-0.49,0.65-0.9,0.8l-0.17,0.06H73.85z"/>
	<path class="st0" d="M73.56,59.03c-0.06-0.04-0.12-0.08-0.18-0.1c-0.1-0.03-0.16-0.04-0.21-0.04c-0.1,0-0.15,0.01-0.2,0.02
		c-0.07,0.03-0.1,0.04-0.13,0.08c-0.06,0.05-0.07,0.09-0.09,0.11c-0.03,0.09-0.03,0.13-0.02,0.18c0.05,0.29,0.13,0.33,0.33,0.95
		c0.01,0.04,0.12,0.19,0.25,0.37c0.22,0.28,0.52,0.63,0.55,0.63c0.18-0.06,0.29-0.18,0.35-0.31c0.11-0.22,0.1-0.47,0.1-0.55
		c-0.02-0.13-0.1-0.31-0.21-0.52C73.92,59.49,73.68,59.13,73.56,59.03z"/>
	<path class="st0" d="M79.86,58.79c-0.44,0-0.72-0.17-0.88-0.31c-0.35-0.28-1.03-0.88-1.22-1.49c-0.21-0.55,0.04-1.23,0.35-1.67
		c0.37-0.53,0.91-0.84,1.48-0.84l0.18,0c0.99,0.1,1.81,0.62,2.2,1.42c0.32,0.65,0.29,1.39-0.08,1.98
		C81.49,58.53,80.29,58.79,79.86,58.79z"/>
	<path class="st0" d="M79.66,55.48c-0.03,0-0.05,0-0.08,0c-0.59,0-1,0.88-0.88,1.21c0.08,0.25,0.45,0.66,0.93,1.03
		c0.05,0.04,0.13,0.06,0.23,0.06c0.39,0,1.08-0.27,1.18-0.43C81.48,56.63,80.88,55.6,79.66,55.48z"/>
	<path class="st0" d="M74.64,82.55c-0.49-0.19-0.84-0.38-1.08-0.59c-0.1-0.09-0.2-0.19-0.28-0.3c-0.23-0.33-0.24-0.71-0.22-0.97
		c0.02-0.22,0.12-0.9,0.5-1.47c0.18-0.29,0.46-0.53,0.79-0.67c0.2-0.09,0.38-0.14,0.55-0.18c0.07-0.02,0.15-0.03,0.21-0.03
		c0.08-0.01,0.18-0.02,0.3-0.02h0.11l0.07,0.01c0.14,0.01,0.28,0.04,0.42,0.09l0.1,0.04c0.19,0.07,0.32,0.17,0.42,0.24
		c0.24,0.17,0.38,0.4,0.46,0.55l0.03,0.06l0.03,0.06c0.03,0.08,0.08,0.2,0.11,0.36l0.01,0.08v0.08l0.02,0.17l-0.01,0.02
		c0,0.07,0,0.15,0,0.24c-0.02,0.19-0.05,0.34-0.1,0.5c-0.06,0.17-0.13,0.3-0.25,0.47c0,0.01-0.04,0.06-0.17,0.23l-0.12,0.14
		l-0.18,0.2c-0.05,0.06-0.1,0.1-0.15,0.14l-0.07,0.07L76,82.22l-0.13,0.09c-0.05,0.03-0.09,0.06-0.13,0.08
		c-0.15,0.09-0.3,0.15-0.54,0.2l-0.29,0.06L74.64,82.55z"/>
	<path class="st0" d="M76.18,79.9c-0.01-0.06-0.04-0.12-0.06-0.17c-0.06-0.11-0.11-0.17-0.17-0.22c-0.09-0.06-0.14-0.1-0.2-0.12
		c-0.02-0.01-0.05-0.02-0.08-0.03c-0.06-0.02-0.12-0.03-0.18-0.03c-0.03,0-0.05-0.01-0.08-0.01c-0.09,0-0.15,0.01-0.21,0.02
		c-0.04,0-0.07,0-0.11,0.01c-0.11,0.02-0.23,0.06-0.36,0.12c-0.13,0.05-0.25,0.16-0.34,0.3c-0.19,0.28-0.3,0.69-0.33,0.98
		c-0.01,0.15,0,0.27,0.04,0.32c0.03,0.04,0.07,0.09,0.12,0.13c0.16,0.14,0.44,0.28,0.78,0.41c0.16-0.03,0.19-0.05,0.22-0.08
		c0.02-0.01,0.04-0.02,0.07-0.04c0.03-0.02,0.06-0.05,0.1-0.08c0.02-0.02,0.05-0.04,0.07-0.06c0.03-0.03,0.07-0.06,0.1-0.1
		c0.03-0.02,0.05-0.04,0.08-0.08c0.03-0.03,0.07-0.08,0.1-0.11c0.02-0.02,0.05-0.05,0.07-0.08c0.03-0.04,0.06-0.08,0.09-0.11
		c0.09-0.11,0.11-0.14,0.13-0.17c0.07-0.1,0.09-0.14,0.1-0.17c0.03-0.1,0.05-0.19,0.06-0.28c0.01-0.15,0-0.2-0.01-0.27
		C76.19,79.95,76.18,79.92,76.18,79.9z"/>
	<path class="st0" d="M69.33,42.64c-0.09,0-0.18-0.01-0.29-0.02l-0.15-0.02c-0.08-0.01-0.15-0.03-0.31-0.07l-0.08-0.02l-0.08-0.03
		c-0.04-0.01-0.1-0.03-0.17-0.06c-0.12-0.05-0.22-0.1-0.38-0.2c-0.13-0.08-0.26-0.2-0.38-0.36c-0.08-0.08-0.17-0.22-0.25-0.42
		c-0.07-0.16-0.1-0.33-0.11-0.48c0-0.2,0-0.35,0.04-0.55c0.19-0.65,0.79-0.93,1.34-1.15l0.3-0.12c0.15-0.06,0.29-0.11,0.37-0.16
		l0.27-0.21l0.19,0.02c0.12-0.03,0.23-0.04,0.38-0.04l0.35,0.01l0.25,0.09l0.1,0.04l0.17,0.1l0.05,0.04l0.21,0.2
		c0.14,0.15,0.23,0.32,0.29,0.44l-0.01,0c0.23,0.59-0.12,1.62-0.36,2.11l0.75,0.83h-2.26C69.5,42.63,69.43,42.64,69.33,42.64z"/>
	<path class="st0" d="M69.61,41.61c0.08-0.01,0.15-0.02,0.22-0.04c0.08-0.02,0.14-0.04,0.19-0.08c0.09-0.05,0.14-0.09,0.18-0.12
		c0.08-0.09,0.38-1.24,0.35-1.28c-0.03-0.06-0.07-0.13-0.11-0.17c-0.07-0.06-0.09-0.09-0.12-0.11c-0.08-0.03-0.1-0.04-0.13-0.05
		c-0.22-0.01-0.28,0-0.33,0.01c-0.05,0.01-0.1,0.03-0.11,0.03c-0.14,0.11-0.52,0.24-0.88,0.39c-0.36,0.14-0.69,0.3-0.73,0.44
		c-0.02,0.09-0.02,0.15-0.02,0.23c0.01,0.11,0.02,0.15,0.04,0.19c0.04,0.1,0.07,0.14,0.1,0.17c0.07,0.09,0.12,0.13,0.17,0.16
		c0.08,0.05,0.13,0.08,0.18,0.1c0.11,0.04,0.16,0.05,0.21,0.08c0.13,0.03,0.19,0.04,0.25,0.05c0.11,0.01,0.18,0.02,0.26,0.02
		c0.12,0,0.18-0.01,0.25-0.01C69.57,41.61,69.59,41.61,69.61,41.61z"/>
	<path class="st0" d="M93.5,51.96c-0.3,0-0.59-0.09-0.83-0.25c-0.59-0.44-0.87-1.02-0.82-1.62c0.01-0.18,0.06-0.34,0.1-0.44
		c0.05-0.16,0.14-0.31,0.23-0.42c0.2-0.24,0.42-0.41,0.68-0.53l0.12-0.07l0.31-0.05l0.12-0.01c0,0,0.12,0,0.13,0
		c0.03,0,0.08,0,0.17,0.01h0.04l0.3,0.06l0.22,0.06l0.17,0.06l0.19,0.1l0.13,0.1l0.29,0.16l0.11,0.41c0.04,0.16,0.07,0.32,0.07,0.48
		c0.02,0.32-0.06,0.63-0.12,0.82c-0.13,0.33-0.29,0.51-0.45,0.67c-0.17,0.15-0.31,0.24-0.5,0.32C93.96,51.92,93.75,51.96,93.5,51.96
		z"/>
	<path class="st0" d="M94.15,49.75c-0.04-0.03-0.06-0.04-0.08-0.05c-0.06-0.02-0.09-0.03-0.12-0.04c-0.07-0.02-0.12-0.03-0.16-0.04
		c-0.07-0.01-0.1-0.02-0.14-0.02c-0.08-0.01-0.11-0.01-0.13-0.01c-0.08,0-0.09,0-0.11,0c-0.07,0.01-0.09,0.01-0.11,0.02
		c-0.13,0.05-0.24,0.13-0.32,0.23c-0.04,0.05-0.07,0.1-0.09,0.16c-0.02,0.05-0.04,0.12-0.04,0.17c-0.03,0.25,0.09,0.51,0.38,0.72
		c0.08,0.05,0.18,0.08,0.27,0.08s0.17-0.01,0.24-0.04c0.12-0.05,0.17-0.09,0.22-0.13c0.11-0.11,0.16-0.17,0.19-0.25
		c0.04-0.13,0.09-0.31,0.08-0.53c0-0.08-0.01-0.14-0.03-0.22C94.18,49.79,94.17,49.78,94.15,49.75z"/>
	<path class="st0" d="M53.77,45.32c-0.04-0.04-0.07-0.07-0.1-0.09c-0.17-0.09-0.42-0.23-0.62-0.57c-0.14-0.23-0.17-0.48-0.17-0.65
		c0-0.25,0.06-0.51,0.19-0.82c0.07-0.17,0.48-1.06,1.15-1.46c0.18-0.12,0.37-0.18,0.52-0.21c0.14-0.03,0.26-0.04,0.45-0.04
		c0,0,0.01,0,0.01,0c0.09,0,0.19,0,0.39,0.04c0.14,0.04,0.2,0.05,0.32,0.09c0.1,0.02,0.22,0.1,0.3,0.15l0.12,0.07l0.12,0.12
		c0.06,0.07,0.13,0.15,0.18,0.22l0.18,0.26v0.31c0.01,0.05,0.02,0.15,0.03,0.26c0.02,0.66-0.16,1.28-0.58,1.92l-0.18,0.28
		l-0.46,0.17c-0.03,0.02-0.07,0.03-0.12,0.04l-0.12,0.07h-0.14c0,0-0.09,0.02-0.12,0.03l-0.1,0.04h-0.11c-0.02,0-0.04,0-0.06,0.01
		c-0.05,0.01-0.13,0.02-0.3,0.03l-0.45,0.04L53.77,45.32z"/>
	<path class="st0" d="M55.71,42.63c-0.07-0.04-0.1-0.06-0.14-0.08c-0.09-0.03-0.13-0.04-0.17-0.05c-0.11-0.02-0.16-0.02-0.21-0.02
		c-0.11,0-0.18,0.01-0.24,0.02c-0.1,0.02-0.16,0.04-0.2,0.08c-0.28,0.15-0.6,0.61-0.77,1.01c-0.07,0.16-0.11,0.3-0.11,0.42
		c0,0.05,0.01,0.11,0.03,0.14c0.09,0.15,0.17,0.15,0.35,0.27c0.06,0.04,0.12,0.1,0.21,0.18c0.25-0.02,0.27-0.03,0.3-0.03
		c0.02,0,0.05-0.01,0.08-0.01c0.03-0.01,0.06-0.01,0.1-0.02c0.03-0.01,0.05-0.01,0.08-0.02c0.03-0.01,0.07-0.02,0.1-0.02
		c0.02-0.01,0.05-0.01,0.07-0.02c0.03-0.01,0.06-0.02,0.09-0.03c0.09-0.03,0.11-0.04,0.14-0.05c0.39-0.6,0.43-1.03,0.42-1.32
		c-0.01-0.16-0.03-0.28-0.03-0.32C55.78,42.7,55.74,42.66,55.71,42.63z"/>
	<path class="st0" d="M47.86,62.82c-0.54,0-1.04-0.29-1.5-0.85c-0.66-0.82-0.86-1.78-0.53-2.56c0.27-0.64,0.85-1.06,1.56-1.13
		l0.1-0.01c0.46,0,2.21,0.62,2.34,1.71c0.06,0.52-0.19,1.62-0.76,2.26C48.64,62.72,48.17,62.82,47.86,62.82z"/>
	<path class="st0" d="M47.49,59.27c-0.85,0.09-1.15,1.08-0.35,2.07c0.27,0.33,0.51,0.47,0.72,0.47c0.67,0,1.02-1.34,0.98-1.71
		C48.8,59.77,47.74,59.27,47.49,59.27z"/>
	<path class="st0" d="M62.12,63.8c-0.42,0-1.43-0.19-1.69-1.98l-0.03-0.18l0.04-0.17c0.07-0.36,0.57-1.68,1.06-2.12l0.12-0.11
		l0.15-0.06C61.85,59.14,62.14,59,62.5,59c0.29,0,1,0.1,1.36,1.04c0.12,0.34,0.45,1.47-0.03,2.48C63.46,63.31,62.8,63.8,62.12,63.8z
		"/>
	<path class="st0" d="M62.5,60c-0.15,0-0.28,0.09-0.33,0.11c-0.23,0.2-0.68,1.24-0.75,1.57c0.12,0.82,0.4,1.12,0.7,1.12
		s0.62-0.31,0.81-0.71c0.28-0.58,0.13-1.33,0-1.69C62.81,60.08,62.65,60,62.5,60z"/>
	<path class="st0" d="M42.97,43.21c-0.3,0-0.55-0.1-0.75-0.2c-0.24-0.14-0.38-0.25-0.53-0.39c-0.29-0.27-0.43-0.69-0.43-1.31
		c0-0.45,0.07-1.27,0.53-1.69l0.44-0.41l0.57,0.2c0.11,0.04,0.21,0.09,0.33,0.17l0.04,0.03c0,0,0.07,0.02,0.09,0.02
		c0.44,0.02,0.69,0.22,0.79,0.29l0.07,0.05l0.06,0.06c0.15,0.17,0.26,0.35,0.33,0.57c0.02,0.08,0.04,0.15,0.06,0.23l0.03,0.11
		l0.01,0.18c0,0.13,0,0.25-0.03,0.45c-0.02,0.17-0.07,0.35-0.13,0.52c-0.05,0.11-0.1,0.23-0.21,0.41c-0.2,0.26-0.35,0.38-0.5,0.47
		C43.58,43.07,43.33,43.21,42.97,43.21z"/>
	<path class="st0" d="M43.56,40.9c-0.03-0.1-0.07-0.15-0.11-0.19c-0.07-0.05-0.12-0.09-0.19-0.09c-0.03,0-0.05,0-0.08,0
		c-0.07,0-0.12-0.02-0.18-0.03c-0.03-0.01-0.06-0.01-0.09-0.01c-0.09-0.03-0.17-0.06-0.24-0.11c-0.03-0.02-0.06-0.03-0.08-0.05
		c-0.05-0.03-0.09-0.05-0.12-0.06c-0.2,0.18-0.3,1.34-0.08,1.54c0.1,0.1,0.19,0.16,0.28,0.22c0.15,0.08,0.23,0.1,0.3,0.1
		c0.09,0,0.16-0.03,0.22-0.06c0.1-0.06,0.15-0.11,0.2-0.17c0.07-0.11,0.1-0.17,0.13-0.25c0.04-0.1,0.06-0.19,0.07-0.28
		c0.02-0.14,0.02-0.23,0.02-0.31C43.59,41.04,43.58,40.97,43.56,40.9z"/>
	<path class="st0" d="M34.01,33.04c-0.68,0-1.05-0.5-1.21-0.71c-0.18-0.24-0.48-0.74-0.57-1.36c-0.11-0.79,0.2-1.51,0.84-1.98
		c0.51-0.38,1.03-0.58,1.54-0.58c0.52,0,0.98,0.21,1.29,0.6c0.36,0.44,0.49,1.06,0.35,1.73c-0.04,0.24-0.92,2.29-2.06,2.29
		L34.01,33.04z"/>
	<path class="st0" d="M34.61,29.41c-0.27,0-0.59,0.12-0.95,0.39c-0.8,0.58-0.35,1.53-0.05,1.94c0.19,0.26,0.29,0.3,0.4,0.3
		c0.05,0,0.11-0.01,0.18-0.01c0.25,0,1.03-1.2,1.08-1.49C35.41,29.86,35.12,29.41,34.61,29.41z"/>
	<path class="st0" d="M89.07,45.58c-0.3,0-0.55-0.1-0.75-0.2c-0.24-0.14-0.38-0.25-0.53-0.39c-0.29-0.31-0.41-0.68-0.43-1.22
		c-0.01-0.2,0-0.45,0.03-0.67c0.03-0.39,0.12-0.73,0.27-0.96l0.29-0.48h0.87l0.33,0.22c0.08,0.06,0.15,0.11,0.28,0.11l0.1,0
		l0.09,0.02c0.1,0.02,0.36,0.08,0.62,0.31c0.27,0.21,0.36,0.56,0.39,0.67c0.03,0.08,0.05,0.22,0.07,0.38l0.01,0.11
		c0,0.11-0.01,0.25-0.04,0.46c-0.02,0.16-0.07,0.31-0.12,0.46l-0.02,0.05l-0.03,0.06c-0.06,0.13-0.12,0.25-0.23,0.4
		c-0.11,0.14-0.24,0.29-0.47,0.44C89.63,45.49,89.36,45.58,89.07,45.58z"/>
	<path class="st0" d="M89.67,43.26c-0.03-0.11-0.06-0.16-0.1-0.19c-0.06-0.05-0.11-0.06-0.16-0.08c-0.56-0.01-0.86-0.33-0.91-0.33
		c-0.06,0.1-0.11,0.31-0.13,0.56c-0.02,0.16-0.03,0.34-0.02,0.51c0.01,0.25,0.05,0.45,0.13,0.54c0.1,0.1,0.19,0.16,0.28,0.22
		c0.15,0.08,0.23,0.1,0.3,0.1c0.08,0,0.15-0.02,0.21-0.06c0.1-0.06,0.15-0.12,0.2-0.18c0.07-0.1,0.1-0.17,0.13-0.24
		c0.04-0.12,0.07-0.2,0.08-0.29c0.02-0.14,0.03-0.24,0.03-0.31C89.7,43.4,89.69,43.33,89.67,43.26z"/>
</g>
</svg>
